<svg width="30" height="27" viewBox="0 0 30 27" fill="none" xmlns="http://www.w3.org/2000/svg">
<g clip-path="url(#clip0_108_1100)">
<path d="M10.7908 15.714C10.9271 17.2902 12.2802 18.5178 14.7063 18.6631V19.8263H15.7829V18.6549C18.2952 18.493 19.763 17.2571 19.763 15.4629C19.763 13.8322 18.6397 12.9912 16.6317 12.5551L15.7829 12.37V9.2028C16.8596 9.31515 17.5451 9.85706 17.7102 10.6071H19.5979C19.4616 9.0888 18.0475 7.90089 15.7829 7.77202V6.60889H14.7063V7.7968C12.5619 7.9901 11.0994 9.17802 11.0994 10.8583C11.0994 12.3452 12.1869 13.2903 13.9939 13.6785L14.7063 13.8405V17.201C13.6027 17.0473 12.8723 16.4905 12.7072 15.714H10.7908ZM14.6973 12.1354C13.6386 11.9091 13.0643 11.4481 13.0643 10.7542C13.0643 9.97767 13.6834 9.3961 14.7063 9.22593V12.1338H14.6973V12.1354ZM15.9391 14.1065C17.2257 14.3807 17.8196 14.8251 17.8196 15.6099C17.8196 16.5054 17.0803 17.12 15.7829 17.2324V14.0734L15.9391 14.1065Z" fill="#A99F9F"/>
<path d="M15.2769 24.7826C11.9455 24.7826 8.75047 23.5641 6.3948 21.3952C4.03912 19.2263 2.71572 16.2847 2.71572 13.2174C2.71572 10.1501 4.03912 7.20845 6.3948 5.03955C8.75047 2.87065 11.9455 1.65217 15.2769 1.65217C18.6083 1.65217 21.8033 2.87065 24.159 5.03955C26.5146 7.20845 27.838 10.1501 27.838 13.2174C27.838 16.2847 26.5146 19.2263 24.159 21.3952C21.8033 23.5641 18.6083 24.7826 15.2769 24.7826ZM15.2769 26.4348C19.0842 26.4348 22.7356 25.0422 25.4278 22.5635C28.12 20.0848 29.6325 16.7229 29.6325 13.2174C29.6325 9.71192 28.12 6.35003 25.4278 3.87128C22.7356 1.39254 19.0842 0 15.2769 0C11.4695 0 7.81813 1.39254 5.12593 3.87128C2.43373 6.35003 0.921265 9.71192 0.921265 13.2174C0.921265 16.7229 2.43373 20.0848 5.12593 22.5635C7.81813 25.0422 11.4695 26.4348 15.2769 26.4348Z" fill="#A99F9F"/>
<path d="M15.2768 22.3042C12.6593 22.3042 10.149 21.3468 8.29806 19.6427C6.44718 17.9386 5.40736 15.6273 5.40736 13.2172C5.40736 10.8072 6.44718 8.49593 8.29806 6.79179C10.149 5.08766 12.6593 4.13029 15.2768 4.13029C17.8944 4.13029 20.4047 5.08766 22.2556 6.79179C24.1065 8.49593 25.1463 10.8072 25.1463 13.2172C25.1463 15.6273 24.1065 17.9386 22.2556 19.6427C20.4047 21.3468 17.8944 22.3042 15.2768 22.3042ZM15.2768 23.1303C16.6908 23.1303 18.0908 22.8739 19.3971 22.3757C20.7034 21.8775 21.8903 21.1473 22.8901 20.2268C23.8898 19.3063 24.6829 18.2135 25.224 17.0108C25.7651 15.8081 26.0436 14.519 26.0436 13.2172C26.0436 11.9154 25.7651 10.6264 25.224 9.42369C24.6829 8.22098 23.8898 7.12817 22.8901 6.20766C21.8903 5.28715 20.7034 4.55696 19.3971 4.05878C18.0908 3.56061 16.6908 3.3042 15.2768 3.3042C12.4213 3.3042 9.68278 4.34861 7.66363 6.20766C5.64448 8.06672 4.51013 10.5881 4.51013 13.2172C4.51013 15.8463 5.64448 18.3678 7.66363 20.2268C9.68278 22.0859 12.4213 23.1303 15.2768 23.1303Z" fill="#A99F9F"/>
</g>
<defs>
<clipPath id="clip0_108_1100">
<rect width="28.7112" height="26.4348" fill="white" transform="translate(0.921265)"/>
</clipPath>
</defs>
</svg>
