<svg width="19" height="18" viewBox="0 0 19 18" fill="none" xmlns="http://www.w3.org/2000/svg">
<path d="M9.68546 18C14.6864 18 18.827 13.9147 18.827 9C18.827 4.07647 14.6774 0 9.67649 0C4.68451 0 0.543945 4.07647 0.543945 9C0.543945 13.9147 4.69347 18 9.68546 18ZM6.52178 12.8471C6.11847 12.8471 5.78687 12.5118 5.78687 12.1059C5.78687 11.9118 5.86753 11.7353 6.00196 11.5941L8.62791 9.00882L6.00196 6.42353C5.86753 6.28235 5.78687 6.10588 5.78687 5.91176C5.78687 5.50588 6.11847 5.18824 6.52178 5.18824C6.73687 5.18824 6.90715 5.25882 7.04159 5.4L9.67649 7.98529L12.3383 5.39118C12.4906 5.24118 12.652 5.17059 12.8491 5.17059C13.2524 5.17059 13.584 5.49706 13.584 5.89412C13.584 6.09706 13.5213 6.25588 13.3689 6.41471L10.734 9.00882L13.36 11.5853C13.5034 11.7353 13.5751 11.9029 13.5751 12.1059C13.5751 12.5118 13.2435 12.8471 12.8312 12.8471C12.6251 12.8471 12.4458 12.7588 12.3024 12.6265L9.67649 10.0412L7.06847 12.6265C6.92508 12.7676 6.73687 12.8471 6.52178 12.8471Z" fill="#3C3C43" fill-opacity="0.6"/>
</svg>
