<svg width="40" height="40" viewBox="0 0 40 40" fill="none" xmlns="http://www.w3.org/2000/svg">
<path d="M3 6.90625C3 6.13546 3.33583 5.39625 3.9336 4.85122C4.53137 4.30619 5.34212 4 6.1875 4H8.3125C9.15788 4 9.96863 4.30619 10.5664 4.85122C11.1642 5.39625 11.5 6.13546 11.5 6.90625V8.84375C11.5 9.61454 11.1642 10.3538 10.5664 10.8988C9.96863 11.4438 9.15788 11.75 8.3125 11.75H6.1875C5.34212 11.75 4.53137 11.4438 3.9336 10.8988C3.33583 10.3538 3 9.61454 3 8.84375V6.90625ZM6.1875 5.9375C5.90571 5.9375 5.63546 6.03956 5.4362 6.22124C5.23694 6.40292 5.125 6.64932 5.125 6.90625V8.84375C5.125 9.10068 5.23694 9.34708 5.4362 9.52876C5.63546 9.71044 5.90571 9.8125 6.1875 9.8125H8.3125C8.59429 9.8125 8.86454 9.71044 9.0638 9.52876C9.26306 9.34708 9.375 9.10068 9.375 8.84375V6.90625C9.375 6.64932 9.26306 6.40292 9.0638 6.22124C8.86454 6.03956 8.59429 5.9375 8.3125 5.9375H6.1875ZM3 18.5312C3 17.7605 3.33583 17.0212 3.9336 16.4762C4.53137 15.9312 5.34212 15.625 6.1875 15.625H8.3125C9.15788 15.625 9.96863 15.9312 10.5664 16.4762C11.1642 17.0212 11.5 17.7605 11.5 18.5312V20.4688C11.5 21.2395 11.1642 21.9788 10.5664 22.5238C9.96863 23.0688 9.15788 23.375 8.3125 23.375H6.1875C5.34212 23.375 4.53137 23.0688 3.9336 22.5238C3.33583 21.9788 3 21.2395 3 20.4688V18.5312ZM6.1875 17.5625C5.90571 17.5625 5.63546 17.6646 5.4362 17.8462C5.23694 18.0279 5.125 18.2743 5.125 18.5312V20.4688C5.125 20.7257 5.23694 20.9721 5.4362 21.1538C5.63546 21.3354 5.90571 21.4375 6.1875 21.4375H8.3125C8.59429 21.4375 8.86454 21.3354 9.0638 21.1538C9.26306 20.9721 9.375 20.7257 9.375 20.4688V18.5312C9.375 18.2743 9.26306 18.0279 9.0638 17.8462C8.86454 17.6646 8.59429 17.5625 8.3125 17.5625H6.1875ZM3 30.1562C3 29.3855 3.33583 28.6462 3.9336 28.1012C4.53137 27.5562 5.34212 27.25 6.1875 27.25H8.3125C9.15788 27.25 9.96863 27.5562 10.5664 28.1012C11.1642 28.6462 11.5 29.3855 11.5 30.1562V32.0938C11.5 32.8645 11.1642 33.6038 10.5664 34.1488C9.96863 34.6938 9.15788 35 8.3125 35H6.1875C5.34212 35 4.53137 34.6938 3.9336 34.1488C3.33583 33.6038 3 32.8645 3 32.0938V30.1562ZM6.1875 29.1875C5.90571 29.1875 5.63546 29.2896 5.4362 29.4712C5.23694 29.6529 5.125 29.8993 5.125 30.1562V32.0938C5.125 32.3507 5.23694 32.5971 5.4362 32.7788C5.63546 32.9604 5.90571 33.0625 6.1875 33.0625H8.3125C8.59429 33.0625 8.86454 32.9604 9.0638 32.7788C9.26306 32.5971 9.375 32.3507 9.375 32.0938V30.1562C9.375 29.8993 9.26306 29.6529 9.0638 29.4712C8.86454 29.2896 8.59429 29.1875 8.3125 29.1875H6.1875ZM15.75 8.84375C15.75 8.58682 15.8619 8.34042 16.0612 8.15874C16.2605 7.97706 16.5307 7.875 16.8125 7.875H35.9375C36.2193 7.875 36.4895 7.97706 36.6888 8.15874C36.8881 8.34042 37 8.58682 37 8.84375C37 9.10068 36.8881 9.34708 36.6888 9.52876C36.4895 9.71044 36.2193 9.8125 35.9375 9.8125H16.8125C16.5307 9.8125 16.2605 9.71044 16.0612 9.52876C15.8619 9.34708 15.75 9.10068 15.75 8.84375ZM15.75 20.4688C15.75 20.2118 15.8619 19.9654 16.0612 19.7837C16.2605 19.6021 16.5307 19.5 16.8125 19.5H35.9375C36.2193 19.5 36.4895 19.6021 36.6888 19.7837C36.8881 19.9654 37 20.2118 37 20.4688C37 20.7257 36.8881 20.9721 36.6888 21.1538C36.4895 21.3354 36.2193 21.4375 35.9375 21.4375H16.8125C16.5307 21.4375 16.2605 21.3354 16.0612 21.1538C15.8619 20.9721 15.75 20.7257 15.75 20.4688ZM15.75 32.0938C15.75 31.8368 15.8619 31.5904 16.0612 31.4087C16.2605 31.2271 16.5307 31.125 16.8125 31.125H35.9375C36.2193 31.125 36.4895 31.2271 36.6888 31.4087C36.8881 31.5904 37 31.8368 37 32.0938C37 32.3507 36.8881 32.5971 36.6888 32.7788C36.4895 32.9604 36.2193 33.0625 35.9375 33.0625H16.8125C16.5307 33.0625 16.2605 32.9604 16.0612 32.7788C15.8619 32.5971 15.75 32.3507 15.75 32.0938Z" fill="white"/>
</svg>
