<svg width="36" height="37" viewBox="0 0 36 37" fill="none" xmlns="http://www.w3.org/2000/svg">
<path d="M7.5 33.9168C7.10218 33.9168 6.72064 33.7544 6.43934 33.4653C6.15804 33.1762 6 32.784 6 32.3752V4.62516C6 4.21629 6.15804 3.82416 6.43934 3.53504C6.72064 3.24592 7.10218 3.0835 7.5 3.0835H28.5C28.8978 3.0835 29.2794 3.24592 29.5607 3.53504C29.842 3.82416 30 4.21629 30 4.62516V9.25016H27V6.16683H9V30.8335H27V27.7502H30V32.3752C30 32.784 29.842 33.1762 29.5607 33.4653C29.2794 33.7544 28.8978 33.9168 28.5 33.9168H7.5ZM27 24.6668V20.0418H16.5V16.9585H27V12.3335L34.5 18.5002L27 24.6668Z" fill="#FF8411"/>
</svg>
