<svg width="120" height="120" viewBox="0 0 120 120" fill="none" xmlns="http://www.w3.org/2000/svg">
<circle cx="60" cy="60" r="60" fill="#A2E9FF"/>
<path d="M60.8746 23.8563C66.9895 24.7161 72.8732 27.3025 77.8191 31.2944C78.8134 32.1437 79.8369 32.9316 80.7326 33.9124C84.5758 37.7692 87.6414 42.5139 89.6462 47.7657C91.158 51.6804 92.0262 55.8442 92.3367 60.073C93.407 60.2152 94.4466 60.4485 95.428 60.9504C97.9406 62.1664 99.8064 64.6247 100.566 67.4796C100.992 69.157 101.142 70.9451 100.844 72.6647C100.366 75.9565 98.6262 79.0044 96.0958 80.8977C94.327 82.24 92.1362 83.0085 89.9744 82.9471C89.145 82.9384 88.3511 82.6664 87.5282 82.633C87.2291 83.0138 87.0059 83.4823 86.7586 83.9052C83.7415 89.1026 79.5523 93.47 74.6905 96.6091C70.1472 99.5447 65.0056 101.375 59.7412 101.929C57.9497 102.052 56.2052 102.289 54.4089 102.059C46.0514 101.656 37.9058 97.9462 31.7489 91.8065C27.0552 87.1478 23.5289 81.1328 21.6372 74.5422C20.4908 70.5327 19.9201 66.3338 20.009 62.1348C20.0931 55.0564 22.0349 47.9955 25.4966 41.998C28.5847 36.5918 32.9195 32.07 37.9786 28.8677C42.7692 25.8356 48.2212 24.0107 53.7573 23.6264C56.1276 23.3685 58.5173 23.5615 60.8746 23.8563Z" fill="black"/>
<path d="M55.537 24.5947C63.3738 24.3508 71.272 27.1741 77.4953 32.3363C78.5543 33.0487 79.3902 34.0015 80.3021 34.9052C84.2358 38.8761 87.2868 43.8453 89.1834 49.2971C90.3847 52.7381 91.1009 56.351 91.3758 60.0165C89.9384 60.1464 88.5722 60.4271 87.2723 61.136C86.9182 61.3167 86.9667 62.0046 87.3822 62.0537C87.7622 62.0941 88.1874 61.7888 88.5528 61.6677C90.9166 60.7254 93.6167 60.9044 95.793 62.3134C97.6831 63.5031 99.0412 65.4999 99.6556 67.7635C100.076 69.2111 100.089 70.8184 99.9402 72.3169C99.536 75.3613 97.9434 78.2354 95.6184 80.0042C93.0783 81.9922 89.6086 82.573 86.7371 81.0921C86.2246 80.8411 85.7767 80.4639 85.269 80.2059C84.792 80.0147 84.48 80.6955 84.8325 81.0394C85.345 81.5237 86.0192 81.8325 86.611 82.1905C83.3547 88.1827 78.6157 93.1924 72.9633 96.4859C68.0804 99.3478 62.5443 100.966 56.9921 101.074C52.5248 101.201 48.0462 100.366 43.8618 98.667C38.9595 96.6947 34.51 93.503 30.8673 89.4373C27.2019 85.3366 24.4128 80.334 22.7507 74.9138C20.3319 67.0809 20.34 58.418 22.7944 50.5956C24.581 44.7946 27.6902 39.5042 31.7468 35.2614C36.544 30.2202 42.6847 26.7442 49.2297 25.3176C51.2992 24.8754 53.4238 24.5736 55.537 24.5947Z" fill="#FB9F5D"/>
<path d="M94.6702 65.89C95.0954 65.8724 95.2264 66.5568 94.8901 66.7638C94.2935 67.0849 93.6257 67.2499 93.0081 67.5271C92.0671 67.8851 91.1843 68.3623 90.3112 68.8817C91.0048 69.2923 91.7437 69.7134 92.3662 70.2434C92.7833 70.6101 93.1504 71.0066 93.228 71.612C93.1859 72.2419 92.7866 72.7613 92.3468 73.1368C91.3993 73.9545 90.0961 74.3967 88.9854 74.9371C88.7024 75.0459 88.2691 75.2863 88.0816 74.8915C87.9167 74.5862 88.0719 74.3458 88.3354 74.2125C89.4106 73.6334 90.738 73.2263 91.6968 72.4297C91.9183 72.2297 92.2449 71.9489 92.2805 71.619C91.6224 70.6311 90.2724 70.1118 89.333 69.4976C88.9547 69.1958 88.9627 68.7536 89.3071 68.422C90.4826 67.4323 92.0525 66.7972 93.4414 66.2497C93.8327 66.1041 94.2547 65.9075 94.6702 65.89Z" fill="black"/>
<path d="M43.9015 49.8273C44.0082 50.6414 43.6574 51.4679 43.2208 52.1083C42.6388 52.8909 41.9581 53.5753 41.1432 54.0613C39.9047 54.8246 38.5627 55.4142 37.2321 55.9581C33.3856 57.5005 29.3807 58.6077 25.3451 59.3763C24.8034 59.471 24.2181 59.6395 23.67 59.571C23.3596 59.4096 23.3467 59.0762 23.4906 58.7779C23.8689 58.4621 24.3782 58.3006 24.8147 58.0953C30.6257 55.5124 36.4366 52.9278 42.2443 50.3396C42.7875 50.1203 43.3098 49.7465 43.9015 49.8273ZM48.2573 49.8536C56.2315 51.1889 64.2122 52.5119 72.1881 53.8455C72.6052 53.9192 73.0499 53.9473 73.4509 54.0929C73.8454 54.2929 73.7257 54.9773 73.2956 55.0159C71.7451 55.1826 70.1945 55.3352 68.6343 55.358C66.146 55.3756 63.6803 55.4142 61.2001 55.151C57.8193 54.8632 54.3705 54.3456 51.1353 53.2103C50.0083 52.7874 48.7294 52.2522 47.8579 51.3433C47.5685 51.0099 47.1966 50.5923 47.3454 50.0922C47.5426 49.7185 47.9274 49.8132 48.2573 49.8536Z" fill="black"/>
<path d="M62.6954 83.5107C62.7899 83.7225 62.8797 83.937 62.9581 84.1541C63.0664 84.8763 62.5087 85.0527 62.0801 85.3324C61.1629 85.8129 60.2249 86.2554 59.287 86.6843C55.2172 88.4001 51.1312 89.7004 46.7872 89.9258C45.2892 90.0615 43.8051 90.0941 42.3072 89.9366C41.178 89.7819 39.9681 89.7656 38.8803 89.3855C38.3388 89.1466 38.2512 88.3186 38.7882 88.0091C39.4058 87.9766 40.051 88.2345 40.6733 88.286C42.3325 88.5277 43.9687 88.4516 45.6372 88.4516C50.8201 88.2453 56.0122 86.6083 60.778 84.2492C61.4141 83.9261 61.981 83.546 62.6954 83.5107Z" fill="black"/>
<path d="M45.8651 20.0822C46.2224 20.0348 46.6702 19.9032 46.9936 20.1243C47.1941 20.363 47.2281 20.677 47.0356 20.9367C46.7462 21.3122 46.3453 21.6 45.9993 21.9123C45.4479 22.3861 44.958 22.9265 44.4891 23.4951C51.2976 21.7158 58.4441 21.3614 65.3981 22.1264C70.1047 22.6932 74.9649 23.8249 79.2964 25.9481C81.6408 27.1062 83.9917 28.631 85.7492 30.7033C87.0734 32.251 87.9918 34.1513 88.1227 36.285C88.7873 36.4131 89.4194 36.5552 89.9853 36.9746C91.2416 37.8642 92.1131 39.4136 92.7129 40.8717C93.7105 43.323 94.2457 46.0621 94.5432 48.7117C94.776 51.2068 94.9118 53.6985 94.7712 56.2059C94.6467 57.8817 94.5675 59.5469 94.3023 61.2068C94.2522 61.4419 94.2409 61.6419 93.9951 61.7262C92.9151 61.8648 91.6636 61.8595 90.645 62.3017C89.2044 62.9053 87.8058 63.5633 86.4946 64.4565C86.2812 64.5775 86.016 64.7986 85.7686 64.7565C85.4145 64.7144 85.2238 64.3161 85.3935 63.9704C85.8026 63.0176 86.3248 62.1157 86.7969 61.198C85.8236 61.6613 84.847 62.0947 83.94 62.7035C83.6603 62.4824 83.3919 62.3245 83.3595 61.9122C83.2302 60.0891 83.2641 58.215 83.0976 56.3989C82.8761 56.1673 82.6061 55.9848 82.3539 55.7953C81.3304 55.0513 80.3506 54.2407 79.429 53.3511C79.1671 53.0984 78.9326 52.8229 78.779 52.4772C77.0878 48.3063 75.9205 43.9021 75.547 39.3539C74.2794 39.3329 73.036 39.2346 71.7781 39.0662C72.0966 39.3732 72.5591 39.6856 72.6836 40.147C72.5882 40.5717 72.289 40.6787 71.956 40.8331C69.3205 41.9526 66.4329 42.3158 63.6179 42.293C59.0633 42.2334 54.5022 41.1472 50.2968 39.2609C50.8692 39.9575 51.4399 40.6436 52.1044 41.242C52.355 41.4859 52.6849 41.7473 52.8223 42.086C52.7576 42.5668 52.4213 42.8159 51.9832 42.765C49.144 42.4895 46.3744 41.8982 43.5788 41.3122C43.574 42.3457 43.7826 43.3511 43.8343 44.3776C43.7486 44.7443 43.3331 44.7987 43.0809 44.6215C42.8367 44.4513 42.6314 44.2477 42.4228 44.0319C40.9919 42.5194 39.582 41.0507 38.3257 39.3574C38.1107 39.1065 37.8989 38.7205 37.561 38.6871C36.3403 38.4976 35.0985 38.2695 33.8665 38.2432C33.2117 38.1871 32.5552 38.6854 31.97 38.9696C31.3248 39.3557 30.5633 39.6434 29.999 40.1558C29.3862 40.97 28.8818 41.8894 28.3418 42.7598C28.269 42.8984 28.1736 42.9844 28.0556 43.0212C26.7088 42.8247 25.4137 42.1176 24.4339 41.0963C22.9593 39.5662 22.2253 37.6413 21.5785 35.5849C21.4912 35.2287 21.3732 34.7338 21.7241 34.5005C22.0199 34.3022 22.4565 34.5636 22.7427 34.6829C23.7742 35.2251 24.7394 35.841 25.868 36.1341C25.4897 35.0567 25.3086 33.9618 25.5479 32.8195C25.9812 30.0102 27.4493 27.5098 29.4946 25.7516C29.9861 25.341 30.5229 24.8655 31.1179 24.6514C31.5706 24.4865 31.9441 24.9339 31.8487 25.4129C31.6417 26.3447 31.2731 27.229 31.0403 28.1555C33.0452 26.1885 35.071 24.3742 37.4979 23.0353C40.1318 21.5474 42.9548 20.6612 45.8651 20.0822Z" fill="black"/>
<path d="M87.764 64.065C88.1068 63.8632 88.5094 64.3019 88.3542 64.6879C88.0906 64.9967 87.701 65.2038 87.3647 65.4108C86.3832 65.9811 85.4293 66.604 84.4754 67.2269C84.3299 67.1638 84.1843 67.0988 84.0388 67.0357C84.076 66.8076 84.0324 66.5303 84.2167 66.3724C84.7163 65.9074 85.3388 65.588 85.8982 65.2143C86.5223 64.837 87.1254 64.4089 87.764 64.065Z" fill="black"/>
<path d="M59.2578 56.1835C61.6264 55.873 63.9902 56.4678 65.9515 57.9452C67.966 59.4332 69.4067 61.7827 69.9063 64.3709C70.3299 66.5397 70.1067 68.8489 69.2482 70.8667C68.2587 73.2601 66.3912 75.2359 64.1422 76.2063C62.4898 76.9485 60.6547 77.1977 58.8907 76.8502C56.2375 76.3852 53.8009 74.6358 52.3668 72.1687C51.4614 70.6299 50.9537 68.8453 50.8518 67.0257C50.7532 64.4885 51.5357 61.9108 53.02 59.9438C54.5511 57.8786 56.839 56.5117 59.2578 56.1835Z" fill="white"/>
<path d="M31.6094 60.224C34.0395 59.7362 36.6119 60.5661 38.4179 62.391C40.0444 64.0123 40.9886 66.3777 40.9935 68.7728C40.966 70.1853 40.6346 71.6101 40.0121 72.8542C38.89 75.1037 36.8366 76.7514 34.5181 77.2234C33.2133 77.5252 31.8939 77.4146 30.6247 76.9847C27.5366 75.953 25.239 72.8121 25.066 69.301C24.9076 67.0567 25.6287 64.7879 26.982 63.0876C28.1639 61.5909 29.8228 60.5749 31.6094 60.224Z" fill="white"/>
<path d="M58.9382 63.4841C60.1298 63.3262 61.3974 63.7965 62.2123 64.7633C62.83 65.495 63.2277 66.4811 63.2487 67.4778C63.294 68.7517 62.7588 70.0572 61.8372 70.8538C60.7119 71.8768 59.0498 72.0681 57.7369 71.3732C56.34 70.6538 55.4362 68.9851 55.5736 67.3059C55.6868 65.3511 57.1484 63.707 58.9382 63.4841ZM31.6573 66.0548C33.5021 65.3757 35.5927 66.5812 36.1101 68.6148C36.7196 70.6661 35.4601 72.977 33.5183 73.4086C31.7996 73.8736 29.9305 72.7875 29.3695 70.9626C28.7357 69.0097 29.8141 66.6478 31.6573 66.0548Z" fill="black"/>
</svg>
