<svg width="35" height="35" viewBox="0 0 35 35" fill="none" xmlns="http://www.w3.org/2000/svg">
<path d="M18.28 5.15506C20.828 5.48279 23.2797 6.46863 25.3407 7.99019C25.755 8.3139 26.1815 8.6142 26.5547 8.98807C28.1562 10.4581 29.4336 12.2666 30.269 14.2684C30.8989 15.7605 31.2607 17.3476 31.3901 18.9595C31.8361 19.0137 32.2693 19.1026 32.6782 19.2939C33.7252 19.7574 34.5027 20.6944 34.8193 21.7826C34.9965 22.422 35.0592 23.1035 34.9352 23.759C34.7358 25.0137 34.0108 26.1754 32.9565 26.8971C32.2194 27.4087 31.3065 27.7016 30.4057 27.6782C30.0601 27.6749 29.7293 27.5712 29.3864 27.5585C29.2618 27.7037 29.1688 27.8822 29.0657 28.0434C27.8085 30.0245 26.0629 31.6891 24.037 32.8857C22.1438 34.0046 20.0014 34.7022 17.8077 34.9135C17.0612 34.9603 16.3343 35.0506 15.5858 34.963C12.1033 34.8092 8.70904 33.3953 6.14349 31.0551C4.18766 29.2794 2.71826 26.9867 1.93 24.4746C1.45233 22.9463 1.2145 21.3459 1.25156 19.7454C1.28659 17.0473 2.09574 14.356 3.53819 12.07C4.82501 10.0094 6.63127 8.28581 8.73936 7.06521C10.7356 5.90949 13.0074 5.21392 15.3143 5.06745C16.3019 4.96913 17.2977 5.0427 18.28 5.15506Z" fill="black"/>
<path d="M16.0563 5.43671C19.3219 5.34375 22.613 6.41988 25.2062 8.38755C25.6475 8.65909 25.9958 9.02226 26.3758 9.3667C28.015 10.8802 29.2863 12.7743 30.0766 14.8524C30.5772 16.1639 30.8756 17.541 30.9902 18.9382C30.3912 18.9877 29.8219 19.0947 29.2802 19.3649C29.1327 19.4338 29.1529 19.696 29.3261 19.7147C29.4844 19.7301 29.6616 19.6137 29.8138 19.5675C30.7988 19.2084 31.9239 19.2766 32.8308 19.8137C33.6184 20.2671 34.1843 21.0282 34.4403 21.891C34.6155 22.4428 34.6209 23.0554 34.5589 23.6266C34.3905 24.787 33.7268 25.8825 32.758 26.5567C31.6996 27.3145 30.2538 27.5359 29.0572 26.9714C28.8437 26.8757 28.657 26.7319 28.4455 26.6336C28.2467 26.5607 28.1167 26.8202 28.2636 26.9513C28.4772 27.1359 28.7581 27.2536 29.0047 27.3901C27.6478 29.6741 25.6731 31.5836 23.3178 32.8389C21.2831 33.9298 18.9763 34.5464 16.6627 34.5879C14.8012 34.636 12.935 34.3177 11.1913 33.6703C9.14861 32.9185 7.29451 31.7019 5.7766 30.1523C4.24927 28.5892 3.08709 26.6824 2.3945 24.6165C1.3866 21.6308 1.38997 18.3289 2.41269 15.3473C3.15715 13.1362 4.45273 11.1197 6.14311 9.50247C8.14206 7.58095 10.7009 6.25602 13.4281 5.71227C14.2905 5.54373 15.1758 5.42869 16.0563 5.43671Z" fill="#FFAD61" fill-opacity="0.73"/>
<path d="M32.3626 21.1774C32.5398 21.1707 32.5944 21.4315 32.4542 21.5104C32.2056 21.6328 31.9274 21.6957 31.67 21.8014C31.2779 21.9378 30.91 22.1197 30.5462 22.3177C30.8353 22.4742 31.1432 22.6347 31.4025 22.8367C31.5764 22.9765 31.7293 23.1277 31.7616 23.3584C31.7441 23.5985 31.5777 23.7965 31.3944 23.9396C30.9996 24.2513 30.4566 24.4198 29.9938 24.6258C29.8759 24.6673 29.6953 24.7589 29.6172 24.6084C29.5484 24.492 29.6131 24.4004 29.7229 24.3496C30.171 24.1289 30.7241 23.9737 31.1236 23.6701C31.2159 23.5938 31.352 23.4868 31.3668 23.3611C31.0926 22.9845 30.5301 22.7866 30.1386 22.5525C29.981 22.4374 29.9843 22.2689 30.1278 22.1425C30.6176 21.7653 31.2718 21.5232 31.8506 21.3145C32.0136 21.259 32.1895 21.1841 32.3626 21.1774Z" fill="black"/>
<path d="M17.8931 16.9558C19.3848 16.8253 20.8872 17.4841 21.7812 18.678C22.3633 19.4451 22.6753 20.3915 22.6705 21.3512C22.6523 22.204 22.3997 23.046 21.9119 23.7516C21.3163 24.6271 20.3805 25.2899 19.3443 25.5374C18.2502 25.8156 17.0469 25.6524 16.0721 25.0853C15.3694 24.6833 14.7929 24.0957 14.4066 23.3878C13.9262 22.531 13.7821 21.5298 13.937 20.5661C14.0926 19.6578 14.5413 18.8097 15.211 18.171C15.9376 17.4717 16.8849 17.0425 17.8931 16.9558Z" fill="black"/>
<path d="M17.7588 17.3554C18.8286 17.2243 19.8938 17.5086 20.7427 18.168C21.7156 18.9138 22.3111 20.129 22.2788 21.3509C22.2822 22.8859 21.3059 24.3499 19.8837 24.9505C19.1689 25.2602 18.3752 25.3719 17.6058 25.2328C16.5009 25.0562 15.4843 24.388 14.8873 23.4484C14.51 22.8618 14.2985 22.1816 14.256 21.488C14.2156 20.5209 14.541 19.5378 15.1595 18.7887C15.7962 18.0028 16.7522 17.4798 17.7588 17.3554Z" fill="white"/>
<path d="M6.43891 18.4813C7.21504 18.4024 8.02014 18.5716 8.6932 18.9655C9.51851 19.4397 10.1397 20.2423 10.3917 21.1553C10.6039 21.9197 10.5628 22.7584 10.2664 23.4955C9.95172 24.292 9.34739 24.9682 8.58877 25.3742C7.91235 25.7387 7.11668 25.8898 6.35335 25.7855C5.29021 25.6638 4.30926 25.0498 3.72581 24.1616C3.35257 23.6052 3.15584 22.9557 3.11205 22.2909C3.09116 21.4516 3.34179 20.6115 3.85247 19.9387C4.46287 19.1207 5.41889 18.5843 6.43891 18.4813Z" fill="black"/>
<path d="M6.2378 18.8957C6.99574 18.7592 7.78063 18.8943 8.45099 19.2702C9.64551 19.9263 10.3489 21.3449 10.0962 22.6832C9.97901 23.3748 9.63945 24.0202 9.12876 24.5057C8.58305 25.0374 7.85542 25.3585 7.09613 25.4267C5.73857 25.5504 4.38977 24.7686 3.81912 23.542C3.29698 22.4598 3.43173 21.1335 4.15868 20.1758C4.65589 19.5043 5.41249 19.0435 6.2378 18.8957Z" fill="white"/>
<path d="M16.2229 19.8456C17.0327 19.6543 17.8998 20.1292 18.2009 20.8923C18.3498 21.2936 18.3572 21.7417 18.1955 22.1403C17.9833 22.6975 17.4612 23.1181 16.8683 23.2084C16.3219 23.3027 15.7405 23.1115 15.3544 22.7169C14.8835 22.2427 14.7339 21.5063 14.9866 20.8883C15.1927 20.3566 15.6644 19.9673 16.2229 19.8456ZM7.58503 20.5719C8.41169 20.4007 9.2525 20.9605 9.41217 21.7812C9.45664 22.1577 9.44923 22.5403 9.23161 22.866C8.9089 23.4017 8.26414 23.7194 7.6396 23.6111C6.9214 23.4967 6.36019 22.8774 6.33728 22.1537C6.29484 21.4006 6.83921 20.7137 7.58503 20.5719Z" fill="black"/>
<path d="M11.2078 15.054C11.2522 15.3643 11.106 15.6793 10.9241 15.9234C10.6816 16.2217 10.3979 16.4826 10.0584 16.6678C9.5423 16.9588 8.98311 17.1835 8.42863 17.3908C6.82584 17.9787 5.15702 18.4007 3.47539 18.6937C3.2497 18.7298 3.00581 18.794 2.77741 18.7679C2.64806 18.7064 2.64267 18.5793 2.70263 18.4656C2.86028 18.3452 3.07251 18.2837 3.25441 18.2054C5.67579 17.2209 8.09716 16.2358 10.5172 15.2493C10.7436 15.1657 10.9612 15.0232 11.2078 15.054ZM13.0228 15.064C16.3456 15.573 19.6711 16.0773 22.9946 16.5856C23.1684 16.6137 23.3537 16.6244 23.5208 16.6799C23.6852 16.7561 23.6353 17.017 23.4561 17.0317C22.81 17.0952 22.1639 17.1534 21.5138 17.1621C20.4769 17.1688 19.4495 17.1835 18.416 17.0832C17.0072 16.9735 15.5701 16.7762 14.222 16.3434C13.7524 16.1823 13.2195 15.9783 12.8564 15.6318C12.7358 15.5047 12.5808 15.3456 12.6428 15.155C12.725 15.0125 12.8853 15.0486 13.0228 15.064Z" fill="black"/>
<path d="M15.8662 26.5175C15.9706 26.4921 16.0906 26.4506 16.1984 26.468C16.3331 26.5202 16.3351 26.6693 16.2684 26.7783C15.9909 26.9536 15.5947 26.9663 15.3077 27.1054C15.5381 28.0056 15.561 28.944 15.3084 29.8429C15.0881 30.6582 14.6198 31.4494 13.9124 31.9363C13.4374 32.2693 12.8614 32.4319 12.2813 32.3737C11.5052 32.3001 10.8193 31.8259 10.3592 31.218C9.71913 30.3753 9.45975 29.3506 9.45099 28.3066C9.4739 27.9307 9.51701 27.5568 9.59315 27.1877C9.43145 27.1355 9.21653 27.1121 9.08785 26.9977C9.05012 26.9154 9.07438 26.8071 9.07101 26.7181C9.37553 26.7168 9.6302 26.8292 9.92395 26.8894C11.9148 27.2873 13.9319 27.0927 15.8662 26.5175Z" fill="black"/>
<path d="M14.9065 27.1768C15.2588 28.3612 15.1268 29.747 14.4557 30.7998C14.1775 31.2332 13.8036 31.5997 13.3286 31.8144C12.7903 32.0638 12.1455 32.0438 11.6173 31.7769C11.0743 31.5087 10.6357 31.0138 10.3575 30.4854C9.84678 29.5043 9.72147 28.3445 9.98557 27.2731C10.6903 27.4396 11.4051 27.4771 12.126 27.4918C12.0586 27.9426 12.0613 28.3873 12.0465 28.8415C12.0472 28.9692 12.0357 29.115 12.0795 29.2374C12.1536 29.3518 12.3935 29.3176 12.4002 29.1665C12.4393 28.604 12.3914 28.0462 12.5019 27.4858C13.3091 27.469 14.1175 27.3379 14.9065 27.1768Z" fill="#EA869E"/>
<path d="M19.1622 0.0233719C19.3441 -0.0501983 19.4896 0.0588193 19.5509 0.226024C19.7207 0.737002 19.6143 1.3249 19.4391 1.82183C19.8757 1.58172 20.3412 1.40783 20.8404 1.35834C21.9433 1.22925 23.0301 1.51484 23.9982 2.03117C24.7892 2.45386 25.4447 3.01902 26.0766 3.6457C26.7234 4.29178 27.5097 4.9305 28.3889 5.22612C28.8969 5.4067 29.454 5.41941 29.9701 5.26625C30.1076 5.23883 30.3198 5.15456 30.4303 5.27494C30.5509 5.3746 30.4835 5.55719 30.4579 5.68694C30.2261 6.45742 29.8771 7.16904 29.2027 7.64992C30.0887 8.01577 30.8244 8.68125 31.2691 9.52596C31.7386 10.4195 31.9637 11.4488 31.9327 12.4554C31.9448 13.1664 31.804 13.8613 31.5844 14.5348C32.1166 15.0892 32.4191 15.8456 32.4986 16.6007C32.5936 17.5157 32.3955 18.4915 31.9738 19.3088C31.9179 19.4305 31.7979 19.3877 31.6888 19.389C31.3964 19.3576 31.1047 19.3375 30.8096 19.3523C30.4215 19.3643 30.0361 19.4847 29.6777 19.6265C29.5376 19.676 29.4143 19.7362 29.2607 19.7054C28.7608 19.6151 28.3478 19.3376 27.8593 19.1797C28.0722 19.47 28.2865 19.7669 28.4589 20.0833C28.5095 20.1836 28.5715 20.3006 28.5742 20.4144C28.5607 20.5722 28.3397 20.6284 28.2575 20.4779C27.9914 19.9943 27.7037 19.5315 27.3433 19.1095C27.1667 18.9389 27.3695 18.6921 27.5764 18.7316C27.862 18.7764 28.1362 18.9095 28.4104 18.9991C28.1726 18.66 27.928 18.3089 27.639 18.0106C27.4975 17.8628 27.3163 17.7524 27.1829 17.5979C27.1688 17.5043 27.1964 17.4114 27.2206 17.3217C27.5413 16.3713 27.5164 15.3059 27.2772 14.3401C27.0738 13.5349 26.7322 12.7744 26.1831 12.1417C25.8334 11.9939 25.4885 11.8407 25.1664 11.6381C24.4045 11.184 23.7691 10.562 23.0233 10.0938C22.0498 9.46644 20.7252 9.42163 19.6884 9.9199C19.5853 9.95869 19.4755 9.94866 19.4465 9.82693C19.3535 9.64635 19.4802 9.53131 19.5691 9.38618C19.8925 8.93941 20.2287 8.50133 20.571 8.06861C20.0859 8.34148 19.6452 8.68325 19.2464 9.06916C19.0658 9.24038 18.9318 9.44437 18.8092 9.65906C18.6966 9.67377 18.5855 9.68983 18.4716 9.69451C18.3126 9.50256 18.2708 9.28452 18.0411 9.14674C17.6167 8.86851 17.0056 8.89928 16.5272 8.98556C15.2566 9.2377 14.0075 9.66173 12.6877 9.69986C11.927 9.71591 11.1846 9.55071 10.5506 9.12133C10.0521 9.45641 9.5252 9.71792 8.9276 9.82493C7.97024 10.0015 6.9455 9.8985 6.01037 9.64769C5.49833 10.0543 5.148 10.5526 4.7377 11.0515C4.32605 11.5806 3.9171 12.1384 3.60718 12.733C3.54385 12.8393 3.48591 12.9797 3.3835 13.0533C3.09987 13.2259 2.77782 13.3148 2.44702 13.3356C1.88042 13.3777 1.27002 13.2914 0.79909 12.9543C0.384748 12.6627 0.143554 12.2106 0.0539481 11.721C-0.0686702 11.0663 0.0256501 10.3667 0.256738 9.74467C0.305247 9.59351 0.496586 9.53466 0.585517 9.68113C0.736432 9.98143 0.801784 10.2663 1.15212 10.4014C1.46608 10.4984 1.85145 10.3272 2.14385 10.2122C1.48764 9.6216 1.21074 8.73542 1.31179 7.87264C1.46136 6.52296 2.21257 5.22612 3.15174 4.26101C3.91844 3.45642 4.89602 2.89395 5.98274 2.64046C6.40719 2.54616 6.86465 2.42912 7.30055 2.45453C7.45955 2.4552 7.50874 2.68661 7.38477 2.77557C6.79728 3.29858 6.59853 4.17741 6.7838 4.92448C7.00681 4.5466 7.21971 4.16872 7.50604 3.83297C8.54088 2.58562 10.1491 1.86798 11.7438 1.68271C12.371 1.58774 12.9976 1.60179 13.6289 1.55296C15.2 1.51417 16.7792 1.30416 18.2048 0.609927C18.5478 0.451417 18.8226 0.179876 19.1622 0.0233719Z" fill="black"/>
<path d="M19.212 0.430664C19.3124 0.904188 19.2013 1.42252 18.9958 1.85525C18.9358 2.00038 18.762 2.17294 18.8428 2.33279C18.8873 2.399 19.0106 2.47993 19.0887 2.43043C19.3549 2.29533 19.5974 2.1201 19.8757 2.0044C20.4739 1.7255 21.1301 1.65728 21.7836 1.72684C22.9566 1.85726 24.0177 2.37693 24.9212 3.11731C25.4743 3.55205 25.923 4.08509 26.4654 4.52986C27.036 5.00138 27.672 5.41939 28.3895 5.63141C28.944 5.80731 29.5113 5.79995 30.0698 5.64478C29.8879 6.17248 29.6454 6.74499 29.2263 7.13224C29.0471 7.30546 28.8281 7.40712 28.6227 7.54289C28.5162 7.63653 28.496 7.72949 28.5701 7.8539C28.7951 7.92546 29.0249 7.95288 29.2405 8.05922C29.7882 8.32675 30.2746 8.72871 30.6283 9.22364C31.1424 9.9473 31.4267 10.8449 31.5237 11.7197C31.5884 12.5383 31.5419 13.3523 31.298 14.1408C31.2542 14.2913 31.1767 14.4358 31.1491 14.5896C31.3115 14.811 31.5352 14.9741 31.6665 15.2243C32.3228 16.3399 32.2406 17.6541 31.775 18.8225C31.738 18.8807 31.7177 19.0346 31.6221 18.9998C30.982 18.9108 30.3474 18.9904 29.7451 19.2205C29.611 19.2666 29.4729 19.3422 29.3307 19.3549C29.2263 19.3355 29.1273 19.3028 29.0262 19.2706C28.6307 18.6232 28.1713 17.9731 27.5844 17.4822C28.1463 15.7547 27.7751 13.7602 26.749 12.2748C27.5043 12.4019 28.2177 12.2119 28.8969 11.8936C29.1165 11.7852 29.3617 11.6949 29.5571 11.5464C29.6892 11.4006 29.5659 11.2187 29.388 11.2127C28.6853 11.1953 28.0655 10.7031 27.6309 10.1928C27.2934 9.77341 26.9491 9.31192 27.007 8.74543L26.8373 8.68925C26.7787 8.71199 26.7207 8.73406 26.6628 8.7568C26.5523 9.12064 26.6891 9.43365 26.8541 9.75267C27.2954 10.5305 27.9476 11.1779 28.7924 11.5123C28.2811 11.7638 27.6828 11.9658 27.1054 11.9304C26.5516 11.8989 26.0045 11.6749 25.5282 11.4027C24.7406 10.9559 24.1228 10.3613 23.3824 9.86303C22.9391 9.5654 22.452 9.34737 21.9197 9.26845C21.2999 9.18551 20.6464 9.20424 20.0475 9.39686C20.3836 8.9327 20.7313 8.47389 21.1072 8.04049C21.2009 7.93081 21.2992 7.81911 21.3774 7.69739C21.4495 7.60777 21.405 7.4526 21.4037 7.34626C21.2608 7.34091 21.1362 7.33355 21.0075 7.40512C20.1195 7.83717 19.2242 8.44914 18.6333 9.24638C18.4426 8.98754 18.2156 8.78222 17.905 8.67855C17.298 8.47255 16.6 8.56753 15.9889 8.70865C14.7614 8.97015 13.4793 9.39419 12.2167 9.29453C11.4015 9.24771 10.6099 8.82769 10.1194 8.18028C9.50565 7.33155 9.41537 6.13235 9.89439 5.20135C10.2683 4.43489 10.8989 3.83562 11.6616 3.45306C11.6265 3.77075 11.6077 4.07172 11.7343 4.37469C11.9183 4.85959 12.3279 5.21874 12.8211 5.37458C13.4436 5.57255 14.1193 5.60398 14.7419 5.81132C14.8584 5.84543 14.9911 5.90495 15.1138 5.89291C15.2061 5.88489 15.2424 5.76049 15.293 5.69829C15.1899 5.59997 15.0868 5.51236 14.948 5.46821C14.3996 5.28094 13.7932 5.21339 13.2273 5.08966C12.9942 5.03281 12.7571 4.95857 12.5583 4.82147C12.1615 4.55527 11.9378 4.04095 12.0463 3.57345C12.1298 3.27917 12.3959 3.2163 12.5859 2.97619C12.5583 2.90998 12.5307 2.84376 12.5031 2.77688C12.1898 2.73876 11.8765 2.94342 11.5922 3.06314C10.5749 3.5273 9.75358 4.37737 9.37832 5.43009C8.95185 6.61524 9.28938 8.06457 10.2562 8.89525C10.0076 9.04239 9.7583 9.18284 9.48746 9.28651C8.84203 9.54467 8.1171 9.54935 7.43259 9.50387C6.22662 9.42361 5.06579 9.02098 4.15087 8.22241C4.01343 8.09467 3.93393 7.92613 3.80188 7.79638C3.65972 7.77765 3.57753 7.82915 3.56944 7.97428C3.57551 8.22308 3.80255 8.44112 3.98176 8.5916C4.46752 8.98086 5.01459 9.29855 5.59669 9.52193C5.36223 9.75067 5.13316 9.98275 4.927 10.2369C4.35097 10.9298 3.74461 11.6568 3.31747 12.4507C3.21102 12.6473 3.11737 12.8239 2.88696 12.8961C2.4012 13.0406 1.80495 13.0145 1.33469 12.8232C0.978289 12.6828 0.702062 12.3999 0.556537 12.0494C0.331513 11.5324 0.368566 10.9071 0.46693 10.3646C0.66029 10.5352 0.83007 10.7345 1.09956 10.7833C1.54355 10.8663 1.94913 10.7218 2.34798 10.5446C2.48609 10.481 2.60197 10.3974 2.63835 10.2422C2.63903 10.1125 2.49148 10.0363 2.40726 9.95399C2.02459 9.64098 1.80024 9.19086 1.71265 8.71199C1.61631 8.07929 1.73017 7.46531 1.94307 6.86872C2.31564 5.83673 2.98061 4.90039 3.8039 4.17338C4.62787 3.44771 5.66204 3.03304 6.74674 2.88523C6.4658 3.41293 6.27513 3.95668 6.33644 4.56397C6.37147 4.82682 6.41122 5.13715 6.55742 5.36522C6.66589 5.46755 6.81276 5.62472 6.96974 5.51302C7.17456 4.84487 7.57273 4.27771 8.05781 3.77944C9.00709 2.85447 10.2387 2.30068 11.5457 2.09669C12.3131 1.98701 13.0623 1.95624 13.835 1.93551C15.4109 1.8693 16.9261 1.65795 18.3584 0.96505C18.6643 0.816572 18.9277 0.612583 19.212 0.430664Z" fill="black"/>
<path d="M27.897 20.1596C28.0513 20.3943 28.1577 20.6625 28.2783 20.916C28.3349 21.0658 28.4326 21.213 28.3322 21.3675C28.2534 21.3996 28.1813 21.4103 28.1031 21.3695C27.9751 21.1956 27.9111 20.9708 27.8155 20.7776C27.7171 20.5408 27.5628 20.3749 27.5978 20.1034C27.6982 20.1027 27.8337 20.0532 27.897 20.1596Z" fill="black"/>
</svg>
