<svg width="50" height="50" viewBox="0 0 50 50" fill="none" xmlns="http://www.w3.org/2000/svg">
<circle cx="25" cy="25" r="25" fill="#FFE600" fill-opacity="0.33"/>
<path d="M26.28 12.1551C28.828 12.4828 31.2797 13.4686 33.3407 14.9902C33.755 15.3139 34.1815 15.6142 34.5547 15.9881C36.1562 17.4581 37.4336 19.2666 38.269 21.2684C38.8989 22.7605 39.2607 24.3476 39.3901 25.9595C39.8361 26.0137 40.2693 26.1026 40.6782 26.2939C41.7252 26.7574 42.5027 27.6944 42.8193 28.7826C42.9965 29.422 43.0592 30.1035 42.9352 30.759C42.7358 32.0137 42.0109 33.1754 40.9565 33.8971C40.2194 34.4087 39.3065 34.7016 38.4057 34.6782C38.0601 34.6749 37.7293 34.5712 37.3864 34.5585C37.2618 34.7037 37.1688 34.8822 37.0657 35.0434C35.8085 37.0245 34.0629 38.6891 32.037 39.8857C30.1438 41.0046 28.0014 41.7022 25.8077 41.9135C25.0612 41.9603 24.3343 42.0506 23.5858 41.963C20.1033 41.8092 16.709 40.3953 14.1435 38.0551C12.1877 36.2794 10.7183 33.9867 9.93 31.4746C9.45233 29.9463 9.2145 28.3459 9.25156 26.7454C9.28659 24.0473 10.0957 21.356 11.5382 19.07C12.825 17.0094 14.6313 15.2858 16.7394 14.0652C18.7356 12.9095 21.0074 12.2139 23.3143 12.0674C24.3019 11.9691 25.2977 12.0427 26.28 12.1551V12.1551Z" fill="black"/>
<path d="M24.0563 12.4367C27.3219 12.3437 30.613 13.4199 33.2062 15.3875C33.6475 15.6591 33.9958 16.0223 34.3758 16.3667C36.015 17.8802 37.2863 19.7743 38.0766 21.8524C38.5772 23.1639 38.8756 24.541 38.9902 25.9382C38.3912 25.9877 37.8219 26.0947 37.2802 26.3649C37.1327 26.4338 37.1529 26.696 37.3261 26.7147C37.4844 26.7301 37.6616 26.6137 37.8138 26.5675C38.7988 26.2084 39.9239 26.2766 40.8308 26.8137C41.6184 27.2671 42.1843 28.0282 42.4403 28.891C42.6155 29.4428 42.6209 30.0554 42.5589 30.6266C42.3905 31.787 41.7268 32.8825 40.758 33.5567C39.6996 34.3145 38.2538 34.5359 37.0572 33.9714C36.8437 33.8757 36.657 33.7319 36.4455 33.6336C36.2467 33.5607 36.1167 33.8202 36.2636 33.9513C36.4772 34.1359 36.7581 34.2536 37.0047 34.3901C35.6478 36.6741 33.6731 38.5836 31.3178 39.8389C29.2831 40.9298 26.9763 41.5464 24.6627 41.5879C22.8012 41.636 20.935 41.3177 19.1913 40.6703C17.1486 39.9185 15.2945 38.7019 13.7766 37.1523C12.2493 35.5892 11.0871 33.6824 10.3945 31.6165C9.3866 28.6308 9.38997 25.3289 10.4127 22.3473C11.1572 20.1362 12.4527 18.1197 14.1431 16.5025C16.1421 14.581 18.7009 13.256 21.4281 12.7123C22.2905 12.5437 23.1758 12.4287 24.0563 12.4367Z" fill="#FFAD61" fill-opacity="0.73"/>
<path d="M40.3626 28.1774C40.5398 28.1707 40.5944 28.4315 40.4542 28.5104C40.2056 28.6328 39.9274 28.6957 39.67 28.8014C39.2779 28.9378 38.91 29.1197 38.5462 29.3177C38.8353 29.4742 39.1432 29.6347 39.4025 29.8367C39.5764 29.9765 39.7293 30.1277 39.7616 30.3584C39.7441 30.5985 39.5777 30.7965 39.3944 30.9396C38.9996 31.2513 38.4566 31.4198 37.9938 31.6258C37.8759 31.6673 37.6953 31.7589 37.6172 31.6084C37.5484 31.492 37.6131 31.4004 37.7229 31.3496C38.171 31.1289 38.7241 30.9737 39.1236 30.6701C39.2159 30.5938 39.352 30.4868 39.3668 30.3611C39.0926 29.9845 38.5301 29.7866 38.1386 29.5525C37.981 29.4374 37.9843 29.2689 38.1278 29.1425C38.6176 28.7653 39.2718 28.5232 39.8506 28.3145C40.0136 28.259 40.1894 28.1841 40.3626 28.1774V28.1774Z" fill="black"/>
<path d="M25.8931 23.9558C27.3848 23.8253 28.8872 24.4841 29.7812 25.678C30.3633 26.4451 30.6753 27.3915 30.6705 28.3512C30.6523 29.204 30.3997 30.046 29.9119 30.7516C29.3163 31.6271 28.3805 32.2899 27.3443 32.5374C26.2502 32.8156 25.0469 32.6524 24.0721 32.0853C23.3694 31.6833 22.7929 31.0957 22.4066 30.3878C21.9262 29.531 21.7821 28.5298 21.937 27.5661C22.0926 26.6578 22.5413 25.8097 23.211 25.171C23.9376 24.4717 24.8849 24.0425 25.8931 23.9558V23.9558Z" fill="black"/>
<path d="M25.7588 24.3554C26.8286 24.2243 27.8938 24.5086 28.7427 25.168C29.7156 25.9138 30.3111 27.129 30.2788 28.3509C30.2822 29.8859 29.3059 31.3499 27.8837 31.9505C27.1689 32.2602 26.3752 32.3719 25.6058 32.2328C24.5009 32.0562 23.4843 31.388 22.8873 30.4484C22.51 29.8618 22.2985 29.1816 22.256 28.488C22.2156 27.5209 22.541 26.5378 23.1595 25.7887C23.7962 25.0028 24.7522 24.4798 25.7588 24.3554V24.3554Z" fill="white"/>
<path d="M14.4389 25.4813C15.215 25.4024 16.0201 25.5716 16.6932 25.9655C17.5185 26.4397 18.1397 27.2423 18.3917 28.1553C18.6039 28.9197 18.5628 29.7584 18.2664 30.4955C17.9517 31.292 17.3474 31.9682 16.5888 32.3742C15.9123 32.7387 15.1167 32.8898 14.3533 32.7855C13.2902 32.6638 12.3093 32.0498 11.7258 31.1616C11.3526 30.6052 11.1558 29.9557 11.112 29.2909C11.0912 28.4516 11.3418 27.6115 11.8525 26.9387C12.4629 26.1207 13.4189 25.5843 14.4389 25.4813V25.4813Z" fill="black"/>
<path d="M14.2378 25.8957C14.9957 25.7592 15.7806 25.8943 16.451 26.2702C17.6455 26.9263 18.3489 28.3449 18.0962 29.6832C17.979 30.3748 17.6394 31.0202 17.1288 31.5057C16.583 32.0374 15.8554 32.3585 15.0961 32.4267C13.7386 32.5504 12.3898 31.7686 11.8191 30.542C11.297 29.4598 11.4317 28.1335 12.1587 27.1758C12.6559 26.5043 13.4125 26.0435 14.2378 25.8957V25.8957Z" fill="white"/>
<path d="M24.2229 26.8456C25.0327 26.6543 25.8998 27.1292 26.2009 27.8923C26.3498 28.2936 26.3572 28.7417 26.1955 29.1403C25.9833 29.6975 25.4612 30.1181 24.8683 30.2084C24.3219 30.3027 23.7405 30.1115 23.3544 29.7169C22.8835 29.2427 22.7339 28.5063 22.9866 27.8883C23.1927 27.3566 23.6644 26.9673 24.2229 26.8456V26.8456ZM15.585 27.5719C16.4117 27.4007 17.2525 27.9605 17.4122 28.7812C17.4566 29.1577 17.4492 29.5403 17.2316 29.866C16.9089 30.4017 16.2641 30.7194 15.6396 30.6111C14.9214 30.4967 14.3602 29.8774 14.3373 29.1537C14.2948 28.4006 14.8392 27.7137 15.585 27.5719V27.5719Z" fill="black"/>
<path d="M19.2078 22.054C19.2522 22.3643 19.106 22.6793 18.9241 22.9234C18.6816 23.2217 18.3979 23.4826 18.0584 23.6678C17.5423 23.9588 16.9831 24.1835 16.4286 24.3908C14.8258 24.9787 13.157 25.4007 11.4754 25.6937C11.2497 25.7298 11.0058 25.794 10.7774 25.7679C10.6481 25.7064 10.6427 25.5793 10.7026 25.4656C10.8603 25.3452 11.0725 25.2837 11.2544 25.2054C13.6758 24.2209 16.0972 23.2358 18.5172 22.2493C18.7436 22.1657 18.9612 22.0232 19.2078 22.054V22.054ZM21.0228 22.064C24.3456 22.573 27.6711 23.0773 30.9946 23.5856C31.1684 23.6137 31.3537 23.6244 31.5208 23.6799C31.6852 23.7561 31.6353 24.017 31.4561 24.0317C30.81 24.0952 30.1639 24.1534 29.5138 24.1621C28.4769 24.1688 27.4495 24.1835 26.416 24.0832C25.0072 23.9735 23.5701 23.7762 22.222 23.3434C21.7524 23.1823 21.2195 22.9783 20.8564 22.6318C20.7358 22.5047 20.5808 22.3456 20.6428 22.155C20.725 22.0125 20.8853 22.0486 21.0228 22.064V22.064Z" fill="black"/>
<path d="M23.8662 33.5175C23.9706 33.4921 24.0906 33.4506 24.1984 33.468C24.3331 33.5202 24.3351 33.6693 24.2684 33.7783C23.9909 33.9536 23.5947 33.9663 23.3077 34.1054C23.5381 35.0056 23.561 35.944 23.3084 36.8429C23.0881 37.6582 22.6198 38.4494 21.9124 38.9363C21.4374 39.2693 20.8614 39.4319 20.2813 39.3737C19.5052 39.3001 18.8193 38.8259 18.3592 38.218C17.7191 37.3753 17.4597 36.3506 17.451 35.3066C17.4739 34.9307 17.517 34.5568 17.5931 34.1877C17.4315 34.1355 17.2165 34.1121 17.0879 33.9977C17.0501 33.9154 17.0744 33.8071 17.071 33.7181C17.3755 33.7168 17.6302 33.8292 17.9239 33.8894C19.9148 34.2873 21.9319 34.0927 23.8662 33.5175V33.5175Z" fill="black"/>
<path d="M22.9065 34.1768C23.2588 35.3612 23.1268 36.747 22.4557 37.7998C22.1775 38.2332 21.8036 38.5997 21.3286 38.8144C20.7903 39.0638 20.1455 39.0438 19.6173 38.7769C19.0743 38.5087 18.6357 38.0138 18.3575 37.4854C17.8468 36.5043 17.7215 35.3445 17.9856 34.2731C18.6903 34.4396 19.4051 34.4771 20.126 34.4918C20.0586 34.9426 20.0613 35.3873 20.0465 35.8415C20.0472 35.9692 20.0357 36.115 20.0795 36.2374C20.1536 36.3518 20.3935 36.3176 20.4002 36.1665C20.4393 35.604 20.3914 35.0462 20.5019 34.4858C21.3091 34.469 22.1175 34.3379 22.9065 34.1768Z" fill="#EA869E"/>
<path d="M27.1622 7.02337C27.3441 6.9498 27.4896 7.05882 27.5509 7.22602C27.7207 7.737 27.6143 8.3249 27.4391 8.82183C27.8757 8.58172 28.3412 8.40783 28.8404 8.35834C29.9433 8.22925 31.0301 8.51484 31.9982 9.03117C32.7892 9.45386 33.4447 10.019 34.0766 10.6457C34.7234 11.2918 35.5097 11.9305 36.3889 12.2261C36.8969 12.4067 37.454 12.4194 37.9701 12.2662C38.1076 12.2388 38.3198 12.1546 38.4303 12.2749C38.5509 12.3746 38.4835 12.5572 38.4579 12.6869C38.2261 13.4574 37.8771 14.169 37.2027 14.6499C38.0887 15.0158 38.8244 15.6812 39.2691 16.526C39.7386 17.4195 39.9637 18.4488 39.9327 19.4554C39.9448 20.1663 39.804 20.8613 39.5844 21.5348C40.1166 22.0892 40.4191 22.8456 40.4986 23.6007C40.5936 24.5157 40.3955 25.4915 39.9738 26.3088C39.9179 26.4305 39.7979 26.3877 39.6888 26.3891C39.3964 26.3576 39.1047 26.3375 38.8096 26.3523C38.4215 26.3643 38.0361 26.4847 37.6777 26.6265C37.5376 26.676 37.4143 26.7362 37.2607 26.7054C36.7608 26.6151 36.3478 26.3376 35.8593 26.1797C36.0722 26.47 36.2865 26.7669 36.4589 27.0833C36.5095 27.1836 36.5715 27.3007 36.5741 27.4143C36.5607 27.5722 36.3397 27.6284 36.2575 27.4779C35.9914 26.9943 35.7037 26.5315 35.3433 26.1095C35.1667 25.9389 35.3695 25.6921 35.5764 25.7316C35.862 25.7764 36.1362 25.9095 36.4104 25.9991C36.1726 25.66 35.928 25.3089 35.639 25.0106C35.4975 24.8628 35.3163 24.7524 35.1829 24.598C35.1688 24.5043 35.1964 24.4113 35.2206 24.3217C35.5413 23.3713 35.5164 22.3059 35.2772 21.3401C35.0738 20.5349 34.7322 19.7744 34.1831 19.1417C33.8334 18.9939 33.4885 18.8407 33.1664 18.6381C32.4045 18.184 31.7691 17.562 31.0233 17.0938C30.0498 16.4664 28.7252 16.4216 27.6884 16.9199C27.5853 16.9587 27.4755 16.9487 27.4465 16.8269C27.3535 16.6464 27.4802 16.5313 27.5691 16.3862C27.8925 15.9394 28.2287 15.5013 28.571 15.0686C28.0859 15.3415 27.6452 15.6833 27.2464 16.0692C27.0658 16.2404 26.9318 16.4444 26.8092 16.6591C26.6966 16.6738 26.5855 16.6898 26.4716 16.6945C26.3126 16.5026 26.2708 16.2845 26.0411 16.1467C25.6167 15.8685 25.0056 15.8993 24.5272 15.9856C23.2566 16.2377 22.0075 16.6617 20.6877 16.6999C19.927 16.7159 19.1846 16.5507 18.5506 16.1213C18.0521 16.4564 17.5252 16.7179 16.9276 16.8249C15.9702 17.0015 14.9455 16.8985 14.0104 16.6477C13.4983 17.0543 13.148 17.5526 12.7377 18.0515C12.326 18.5806 11.9171 19.1384 11.6072 19.733C11.5439 19.8393 11.4859 19.9797 11.3835 20.0533C11.0999 20.2259 10.7778 20.3148 10.447 20.3356C9.88042 20.3777 9.27002 20.2914 8.79909 19.9543C8.38475 19.6627 8.14355 19.2106 8.05395 18.721C7.93133 18.0663 8.02565 17.3667 8.25674 16.7447C8.30525 16.5935 8.49659 16.5347 8.58552 16.6811C8.73643 16.9814 8.80178 17.2663 9.15212 17.4014C9.46608 17.4984 9.85145 17.3272 10.1438 17.2122C9.48764 16.6216 9.21074 15.7354 9.31179 14.8726C9.46136 13.523 10.2126 12.2261 11.1517 11.261C11.9184 10.4564 12.896 9.89395 13.9827 9.64046C14.4072 9.54616 14.8647 9.42912 15.3006 9.45453C15.4596 9.4552 15.5087 9.68661 15.3848 9.77557C14.7973 10.2986 14.5985 11.1774 14.7838 11.9245C15.0068 11.5466 15.2197 11.1687 15.506 10.833C16.5409 9.58562 18.1491 8.86798 19.7438 8.68271C20.371 8.58774 20.9976 8.60179 21.6289 8.55296C23.2 8.51417 24.7792 8.30416 26.2048 7.60993C26.5477 7.45142 26.8226 7.17988 27.1622 7.02337V7.02337Z" fill="black"/>
<path d="M27.212 7.43066C27.3124 7.90419 27.2013 8.42252 26.9958 8.85525C26.9358 9.00038 26.762 9.17294 26.8428 9.33279C26.8873 9.399 27.0106 9.47993 27.0887 9.43043C27.3549 9.29533 27.5974 9.1201 27.8757 9.0044C28.4739 8.7255 29.1301 8.65728 29.7836 8.72684C30.9566 8.85726 32.0177 9.37693 32.9212 10.1173C33.4743 10.552 33.923 11.0851 34.4654 11.5299C35.036 12.0014 35.672 12.4194 36.3895 12.6314C36.944 12.8073 37.5113 12.7999 38.0698 12.6448C37.8879 13.1725 37.6454 13.745 37.2263 14.1322C37.0471 14.3055 36.8281 14.4071 36.6227 14.5429C36.5162 14.6365 36.496 14.7295 36.5701 14.8539C36.7951 14.9255 37.0249 14.9529 37.2405 15.0592C37.7882 15.3267 38.2746 15.7287 38.6283 16.2236C39.1424 16.9473 39.4267 17.8449 39.5237 18.7197C39.5884 19.5383 39.5419 20.3523 39.298 21.1408C39.2542 21.2913 39.1767 21.4357 39.1491 21.5896C39.3115 21.811 39.5352 21.9741 39.6665 22.2243C40.3228 23.3399 40.2406 24.6541 39.775 25.8225C39.738 25.8807 39.7177 26.0346 39.6221 25.9998C38.982 25.9108 38.3474 25.9904 37.7451 26.2205C37.611 26.2666 37.4729 26.3422 37.3307 26.3549C37.2263 26.3355 37.1273 26.3028 37.0262 26.2706C36.6307 25.6232 36.1713 24.9731 35.5844 24.4822C36.1463 22.7547 35.7751 20.7602 34.749 19.2748C35.5043 19.4019 36.2177 19.2119 36.8969 18.8936C37.1165 18.7852 37.3617 18.6949 37.5571 18.5464C37.6892 18.4006 37.5659 18.2187 37.388 18.2127C36.6853 18.1953 36.0655 17.7031 35.6309 17.1928C35.2934 16.7734 34.9491 16.3119 35.0071 15.7454L34.8373 15.6893C34.7787 15.712 34.7207 15.7341 34.6628 15.7568C34.5523 16.1206 34.6891 16.4336 34.8541 16.7527C35.2954 17.5305 35.9476 18.1779 36.7924 18.5123C36.2811 18.7638 35.6828 18.9658 35.1054 18.9304C34.5516 18.8989 34.0045 18.6749 33.5282 18.4027C32.7406 17.9559 32.1228 17.3613 31.3824 16.863C30.9391 16.5654 30.452 16.3474 29.9197 16.2684C29.2999 16.1855 28.6464 16.2042 28.0475 16.3969C28.3836 15.9327 28.7313 15.4739 29.1072 15.0405C29.2009 14.9308 29.2992 14.8191 29.3774 14.6974C29.4495 14.6078 29.405 14.4526 29.4037 14.3463C29.2608 14.3409 29.1362 14.3336 29.0075 14.4051C28.1195 14.8372 27.2242 15.4491 26.6333 16.2464C26.4426 15.9875 26.2156 15.7822 25.905 15.6785C25.298 15.4726 24.6 15.5675 23.9889 15.7086C22.7614 15.9702 21.4793 16.3942 20.2167 16.2945C19.4015 16.2477 18.6099 15.8277 18.1194 15.1803C17.5057 14.3315 17.4154 13.1324 17.8944 12.2014C18.2683 11.4349 18.8989 10.8356 19.6616 10.4531C19.6265 10.7707 19.6077 11.0717 19.7343 11.3747C19.9183 11.8596 20.3279 12.2187 20.8211 12.3746C21.4436 12.5726 22.1193 12.604 22.7419 12.8113C22.8584 12.8454 22.9911 12.905 23.1138 12.8929C23.2061 12.8849 23.2424 12.7605 23.293 12.6983C23.1899 12.6 23.0868 12.5124 22.948 12.4682C22.3996 12.2809 21.7932 12.2134 21.2273 12.0897C20.9942 12.0328 20.7571 11.9586 20.5583 11.8215C20.1615 11.5553 19.9378 11.041 20.0463 10.5734C20.1298 10.2792 20.3959 10.2163 20.5859 9.97619C20.5583 9.90998 20.5307 9.84376 20.5031 9.77688C20.1898 9.73876 19.8765 9.94342 19.5922 10.0631C18.5749 10.5273 17.7536 11.3774 17.3783 12.4301C16.9518 13.6152 17.2894 15.0646 18.2562 15.8952C18.0076 16.0424 17.7583 16.1828 17.4875 16.2865C16.842 16.5447 16.1171 16.5494 15.4326 16.5039C14.2266 16.4236 13.0658 16.021 12.1509 15.2224C12.0134 15.0947 11.9339 14.9261 11.8019 14.7964C11.6597 14.7776 11.5775 14.8291 11.5694 14.9743C11.5755 15.2231 11.8026 15.4411 11.9818 15.5916C12.4675 15.9809 13.0146 16.2985 13.5967 16.5219C13.3622 16.7507 13.1332 16.9827 12.927 17.2369C12.351 17.9298 11.7446 18.6568 11.3175 19.4507C11.211 19.6473 11.1174 19.8239 10.887 19.8961C10.4012 20.0406 9.80495 20.0145 9.33469 19.8232C8.97829 19.6828 8.70206 19.3999 8.55654 19.0494C8.33151 18.5324 8.36857 17.9071 8.46693 17.3646C8.66029 17.5352 8.83007 17.7345 9.09956 17.7833C9.54355 17.8663 9.94913 17.7218 10.348 17.5446C10.4861 17.481 10.602 17.3974 10.6384 17.2422C10.639 17.1125 10.4915 17.0363 10.4073 16.954C10.0246 16.641 9.80024 16.1909 9.71265 15.712C9.61631 15.0793 9.73017 14.4653 9.94307 13.8687C10.3156 12.8367 10.9806 11.9004 11.8039 11.1734C12.6279 10.4477 13.662 10.033 14.7467 9.88523C14.4658 10.4129 14.2751 10.9567 14.3364 11.564C14.3715 11.8268 14.4112 12.1371 14.5574 12.3652C14.6659 12.4675 14.8128 12.6247 14.9697 12.513C15.1746 11.8449 15.5727 11.2777 16.0578 10.7794C17.0071 9.85447 18.2387 9.30068 19.5457 9.09669C20.3131 8.98701 21.0623 8.95624 21.835 8.93551C23.4109 8.8693 24.9261 8.65795 26.3584 7.96505C26.6643 7.81657 26.9277 7.61258 27.212 7.43066V7.43066Z" fill="black"/>
<path d="M35.897 27.1596C36.0513 27.3943 36.1577 27.6625 36.2783 27.916C36.3349 28.0658 36.4326 28.213 36.3322 28.3675C36.2534 28.3996 36.1813 28.4103 36.1031 28.3695C35.9751 28.1956 35.9111 27.9708 35.8155 27.7776C35.7171 27.5408 35.5628 27.3749 35.5978 27.1034C35.6982 27.1027 35.8337 27.0532 35.897 27.1596V27.1596Z" fill="black"/>
</svg>
