<svg width="108" height="108" viewBox="0 0 108 108" fill="none" xmlns="http://www.w3.org/2000/svg">
<circle cx="54" cy="54" r="54" fill="#55B9A1" fill-opacity="0.23"/>
<path d="M56.1635 19.2374C61.3528 19.9098 66.346 21.9323 70.5433 25.0538C71.3871 25.7179 72.2557 26.334 73.0158 27.101C76.2773 30.1169 78.8789 33.8271 80.5803 37.9339C81.8632 40.9951 82.6 44.2511 82.8635 47.5579C83.7718 47.669 84.6541 47.8515 85.487 48.244C87.6193 49.1948 89.2027 51.1172 89.8476 53.3496C90.2084 54.6614 90.336 56.0595 90.0836 57.4042C89.6774 59.9783 88.201 62.3617 86.0537 63.8422C84.5526 64.8919 82.6934 65.4928 80.8588 65.4448C80.1549 65.438 79.4812 65.2253 78.7828 65.1992C78.529 65.497 78.3396 65.8633 78.1297 66.194C75.5693 70.2582 72.0142 73.6734 67.8882 76.1281C64.0326 78.4237 59.6692 79.8548 55.2016 80.2884C53.6813 80.3844 52.2008 80.5697 50.6764 80.3899C43.5839 80.0743 36.6712 77.1737 31.4462 72.3726C27.4629 68.7297 24.4703 64.0261 22.865 58.8724C21.8921 55.7371 21.4078 52.4536 21.4832 49.1701C21.5546 43.635 23.2025 38.1136 26.1402 33.4237C28.7609 29.1962 32.4396 25.6603 36.7329 23.1562C40.7985 20.7852 45.4253 19.3582 50.1234 19.0577C52.1349 18.856 54.1629 19.0069 56.1635 19.2374V19.2374Z" fill="black"/>
<path d="M51.6345 19.8146C58.2851 19.6239 64.9879 21.8316 70.2692 25.8684C71.1679 26.4255 71.8773 27.1706 72.6512 27.8772C75.9895 30.9823 78.5787 34.8681 80.1882 39.1313C81.2077 41.822 81.8155 44.6472 82.0488 47.5135C80.829 47.6151 79.6695 47.8346 78.5664 48.389C78.2659 48.5303 78.307 49.0682 78.6597 49.1066C78.9821 49.1381 79.343 48.8994 79.6531 48.8047C81.6591 48.0679 83.9505 48.2078 85.7974 49.3096C87.4014 50.2399 88.554 51.8014 89.0754 53.5714C89.4321 54.7034 89.4431 55.9603 89.3169 57.1321C88.9739 59.5127 87.6223 61.7602 85.6492 63.1433C83.4936 64.6979 80.5491 65.1521 78.1122 63.994C77.6772 63.7978 77.2972 63.5028 76.8663 63.3011C76.4615 63.1516 76.1967 63.6839 76.4958 63.9529C76.9308 64.3316 77.503 64.5731 78.0052 64.853C75.2417 69.5388 71.22 73.4562 66.4231 76.0316C62.2793 78.2695 57.5812 79.5346 52.8694 79.6197C49.0782 79.7185 45.2774 79.0654 41.7264 77.7372C37.5661 76.1949 33.7901 73.699 30.6987 70.5198C27.5881 67.3132 25.2212 63.4013 23.8107 59.1628C21.758 53.0377 21.7648 46.2636 23.8477 40.1467C25.3639 35.6104 28.0025 31.4735 31.4451 28.1557C35.5162 24.2136 40.7275 21.4955 46.2818 20.3799C48.0381 20.0342 49.8411 19.7982 51.6345 19.8146V19.8146Z" fill="#ECAD80"/>
<path d="M84.8436 52.1067C85.2044 52.093 85.3156 52.6281 85.0302 52.79C84.5239 53.0411 83.9572 53.1701 83.433 53.3869C82.6345 53.6668 81.8853 54.04 81.1443 54.4462C81.733 54.7672 82.36 55.0965 82.8883 55.5109C83.2423 55.7977 83.5538 56.1078 83.6196 56.5812C83.584 57.0738 83.2451 57.4799 82.8718 57.7735C82.0678 58.413 80.9619 58.7587 80.0192 59.1813C79.7791 59.2664 79.4114 59.4544 79.2522 59.1457C79.1122 58.9069 79.244 58.7189 79.4676 58.6147C80.3801 58.1619 81.5066 57.8435 82.3203 57.2206C82.5082 57.0642 82.7854 56.8446 82.8156 56.5867C82.2571 55.8142 81.1114 55.408 80.3142 54.9278C79.9931 54.6918 80 54.346 80.2923 54.0867C81.2898 53.3128 82.6221 52.8161 83.8008 52.388C84.1328 52.2741 84.4909 52.1204 84.8436 52.1067V52.1067Z" fill="black"/>
<path d="M53.8968 46.6633C56.4901 46.3313 59.3359 46.5838 61.7124 47.7336C62.8855 48.3058 64.0093 49.1469 64.624 50.3255C65.1591 51.3326 65.1605 52.6252 64.602 53.6227C64.023 54.7273 62.9541 55.5574 61.8674 56.1255C60.0082 57.0887 57.832 57.4742 55.7519 57.4495C54.0999 57.4523 52.4684 57.2012 50.9207 56.6112C49.6899 56.1351 48.4989 55.4202 47.6633 54.3801C46.9992 53.5404 46.6163 52.4413 46.8551 51.3711C47.1076 50.1965 47.8828 49.2635 48.8296 48.5623C50.2909 47.4866 52.1172 46.9185 53.8968 46.6633V46.6633Z" fill="black"/>
<path d="M54.7873 47.3469C55.9399 47.3098 57.1528 47.2673 58.2862 47.4951C59.7392 47.7283 61.2294 48.2223 62.4437 49.0661C63.197 49.6081 63.8748 50.3134 64.1383 51.2245C64.4154 52.1589 64.1012 53.1633 63.4865 53.8932C62.6495 54.9168 61.3515 55.5919 60.118 56.0104C58.7609 56.4577 57.3175 56.7075 55.8877 56.6745C54.4868 56.7116 53.0749 56.4852 51.7398 56.0639C50.4788 55.6454 49.2083 55.0088 48.3397 53.9742C47.7511 53.2827 47.3929 52.2659 47.6729 51.3713C47.88 50.4726 48.5908 49.7165 49.3112 49.1814C50.8754 48.048 52.8883 47.5266 54.7873 47.3469V47.3469Z" fill="white"/>
<path d="M30.9811 48.4515C33.2204 48.1373 35.6778 48.3266 37.7182 49.3626C38.7802 49.91 39.834 50.7937 40.1825 51.9792C40.5022 52.9534 40.1592 54.0017 39.5444 54.7811C38.6828 55.8458 37.4492 56.4866 36.1636 56.8955C34.1644 57.5129 31.9909 57.5829 29.9492 57.137C28.5936 56.8283 27.2023 56.2492 26.2226 55.2311C25.5763 54.5794 25.1359 53.6792 25.2141 52.7448C25.2882 51.7542 25.8974 50.8719 26.6452 50.2503C27.854 49.2322 29.4402 48.6998 30.9811 48.4515V48.4515Z" fill="black"/>
<path d="M30.7097 49.2962C32.8529 48.8846 35.2267 49.0534 37.2176 49.9892C38.0903 50.4035 39.0604 51.1225 39.3773 52.0748C39.6627 52.8473 39.4267 53.6801 38.9218 54.3017C38.2851 55.0921 37.3082 55.645 36.3697 55.9963C34.6751 56.6014 32.7994 56.8072 31.0198 56.5314C29.7451 56.3544 28.4155 55.9441 27.3603 55.1895C26.6427 54.6543 26.039 53.9505 26.0006 53.0147C25.9745 52.0748 26.5728 51.2968 27.2753 50.7397C28.2536 49.9837 29.505 49.5336 30.7097 49.2962Z" fill="white"/>
<path d="M60.996 49.6093C61.2869 49.3911 61.634 49.5654 61.8124 49.8371C62.1403 50.3873 62.139 51.1543 62.1952 51.7773C62.224 52.3796 62.2625 53.1 62.0278 53.6639C61.7562 54.2224 61.0111 53.8478 60.8341 53.4169C60.5212 52.5456 60.5336 51.5303 60.6036 50.6178C60.6612 50.294 60.6914 49.8028 60.996 49.6093ZM36.932 50.552C37.2311 50.6247 37.3175 51.0692 37.3861 51.3245C37.4986 52.0146 37.5755 52.7309 37.5316 53.4293C37.4863 53.7778 37.4369 54.21 37.1035 54.4076C36.8194 54.5846 36.5176 54.4035 36.3694 54.1428C36.0854 53.6159 36.073 52.9106 36.0552 52.3261C36.0634 51.7279 36.0401 51.1282 36.3625 50.6027C36.5601 50.5492 36.7261 50.471 36.932 50.552V50.552Z" fill="black"/>
<path d="M42.305 37.4206C42.615 37.411 42.696 37.6539 42.6686 37.9201C42.6 38.5622 42.5629 39.262 42.3502 39.8726C42.1677 39.9261 41.9852 39.9522 41.7973 39.9851C41.6436 39.3265 41.7959 38.5828 41.8947 37.9146C41.9441 37.68 42.0003 37.3904 42.305 37.4206ZM45.1562 38.2823C45.1603 38.7228 45.1068 39.155 45.0643 39.5927C50.7846 39.664 56.4968 39.6448 62.2171 39.6956C62.5094 39.7011 62.7605 39.8136 63.0253 39.9206C62.9443 40.1237 62.9951 40.4462 62.7179 40.4818C61.6134 40.6616 60.443 40.5532 59.3233 40.6026C56.9427 40.6876 54.5607 40.7384 52.1801 40.8125C49.8434 40.84 47.5135 40.984 45.1754 41.0074C44.724 41.0609 44.3453 40.6341 44.1875 40.2568C44.1902 39.6407 44.3275 39.0013 44.4702 38.4044C44.6458 38.0642 44.8585 38.1753 45.1562 38.2823V38.2823ZM40.0862 39.0411C40.0711 39.7093 40.0794 40.5244 39.7734 41.1322C39.3316 41.338 38.7964 41.3778 38.3203 41.4711C34.8008 42.116 31.2786 42.7541 27.7605 43.4044C27.1787 43.4991 26.5668 43.6994 25.9781 43.6843C25.6173 43.6185 25.5212 43.1698 25.8588 42.9969C26.2978 42.8035 26.8124 42.7582 27.2762 42.6429C31.269 41.7236 35.255 40.7782 39.2465 39.8548C39.3028 39.5927 39.3563 39.332 39.4208 39.0727C39.6417 39.0439 39.864 39.0397 40.0862 39.0411V39.0411Z" fill="black"/>
<path d="M51.6562 61.4997C51.7399 62.456 51.545 63.3232 51.4462 64.2631C51.0675 67.5809 50.1606 70.8424 48.8186 73.8995C48.3178 74.9052 47.8966 76.0592 46.9059 76.6904C46.3763 77.0732 45.6559 76.9565 45.0947 76.7123C44.48 76.4063 43.868 76.029 43.3919 75.5282C41.7381 73.8201 40.353 71.871 39.2838 69.7474C38.3563 68.0268 37.6853 66.2129 36.9347 64.414C36.8085 64.1259 36.7797 63.8501 37.0816 63.669C37.6825 63.6553 38.2684 63.8624 38.8735 63.8679C40.2306 63.9132 41.6164 63.9393 42.9638 63.7472C45.3911 63.4673 47.7786 62.7661 50.0357 61.8399C50.6147 61.63 51.014 61.2486 51.6562 61.4997V61.4997Z" fill="black"/>
<path d="M50.9371 62.3423C50.649 64.5857 50.3663 66.7399 49.7173 68.923C48.4728 68.8255 47.1858 69.2783 46.0867 69.8299C44.6405 70.5818 43.1778 71.6795 42.3463 73.1079C41.3076 71.7619 40.461 70.3061 39.6913 68.794C38.9503 67.4027 38.407 65.9468 37.7744 64.5075C39.0711 64.6173 40.3115 64.7888 41.615 64.6461C44.7997 64.5459 48.0214 63.5909 50.9371 62.3423Z" fill="#8F2E45"/>
<path d="M49.4649 69.7651C48.9394 71.5901 48.2547 73.3889 47.3313 75.0505C47.109 75.4471 46.8263 75.8519 46.4119 76.0645C45.8494 76.2992 45.1592 75.9013 44.7023 75.5843C43.9696 75.1205 43.525 74.4468 42.9377 73.8348C43.2039 73.1021 43.7898 72.4655 44.3647 71.955C45.4377 71.0385 46.7097 70.303 48.0681 69.9106C48.5264 69.7679 48.9902 69.7514 49.4649 69.7651Z" fill="#EA869E"/>
<path d="M57.8087 42.3531C59.2728 42.3147 60.7382 42.3449 62.2023 42.3174C64.1191 42.2337 66.0414 42.2667 67.9624 42.2461C68.4934 42.2667 69.1973 42.2214 69.6378 42.5631C69.9616 42.7867 69.9424 43.3301 69.9602 43.68C69.9451 44.2741 69.9218 44.967 69.6432 45.5049C68.9476 45.7765 68.0735 45.6764 67.3326 45.7669C67.3916 47.4492 67.5617 49.1369 67.5123 50.8204C67.4149 52.7291 67.0088 54.6624 66.0936 56.3528C64.9835 58.1421 63.3617 59.6994 61.4915 60.6764C60.0618 61.4146 58.5071 61.6917 56.91 61.7439C56.0565 61.7699 55.2525 61.8111 54.4114 61.6286C53.1106 61.3487 51.8208 61.018 50.7121 60.2483C49.1836 59.2082 48.0681 57.6728 47.2256 56.0496C46.3214 54.1876 45.8343 52.0375 45.4062 50.0205C45.3334 49.7049 45.0796 49.543 44.8093 49.4099C43.8996 49.0051 42.7607 49.3399 42.2297 50.1783C42.12 50.509 42.1062 50.8836 42.0706 51.228C41.9855 52.2721 41.7618 53.3314 41.5382 54.355C41.1101 56.2184 40.3046 57.9664 39.233 59.5457C38.6361 60.3402 37.8952 61.1127 37.0074 61.5778C35.5626 62.3654 33.9476 62.9623 32.286 62.9884C31.2926 62.9623 30.3444 62.9349 29.3881 62.6454C28.6362 62.4629 27.946 61.9867 27.308 61.5559C26.4284 60.9535 25.7904 60.144 25.2114 59.2617C24.4841 58.1215 23.9339 56.8825 23.5319 55.594C23.1422 54.2974 22.8129 53.0158 22.8198 51.652C22.1954 51.7439 21.5313 51.9593 20.9002 51.9209C20.3019 51.8097 20.1716 50.8904 20.1455 50.4006C20.1633 50.0726 20.1236 49.473 20.5146 49.3468C23.4784 47.9994 26.6123 47.006 29.7819 46.2705C32.1186 45.7628 34.5472 45.1399 36.9539 45.3581C38.488 45.487 40.0865 45.8959 41.3063 46.8756C41.7454 47.2063 42.0513 47.8128 42.5933 47.917C43.5648 48.1681 44.576 47.7483 45.4597 47.3737C45.9578 46.0016 46.8345 44.9944 48.0749 44.2425C48.938 43.7156 49.9506 43.3987 50.9152 43.1064C53.2149 42.5534 55.4624 42.4684 57.8087 42.3531V42.3531Z" fill="black"/>
<path d="M21.8731 50.8385C22.0391 50.6738 22.3396 50.8371 22.2079 51.0635C22.0418 51.2282 21.7413 51.0649 21.8731 50.8385Z" fill="black"/>
<path d="M62.7481 49.4444C63.809 49.4444 64.6691 48.7994 64.6691 48.0037C64.6691 47.208 63.809 46.563 62.7481 46.563C61.6872 46.563 60.8271 47.208 60.8271 48.0037C60.8271 48.7994 61.6872 49.4444 62.7481 49.4444Z" fill="white"/>
<path d="M36.1292 51.6686C36.9628 51.6686 37.6385 51.1706 37.6385 50.5562C37.6385 49.9419 36.9628 49.4438 36.1292 49.4438C35.2956 49.4438 34.6199 49.9419 34.6199 50.5562C34.6199 51.1706 35.2956 51.6686 36.1292 51.6686Z" fill="white"/>
<path fill-rule="evenodd" clip-rule="evenodd" d="M57.9542 14.0384C58.4824 14.1465 58.9948 14.3842 59.4943 14.6158C59.6411 14.6838 59.7868 14.7513 59.9314 14.815C62.0184 15.7947 64.1397 16.6921 66.3049 17.4797C69.1685 18.5087 71.991 19.7162 74.7654 20.9635C75.9317 21.4739 77.1501 22.0186 78.2108 22.7266C78.8296 23.1959 79.384 23.79 79.7654 24.4706C80.8905 26.2681 81.8922 28.1465 82.8362 30.0441C84.8971 34.048 86.7481 38.1684 88.5483 42.2958C90.1907 45.9538 91.6356 49.7066 92.8554 53.5252C93.8735 56.8443 94.6542 60.2691 95.0617 63.7186C95.4418 66.8759 95.7451 70.0454 95.8933 73.2233C95.9564 75.5655 95.9962 77.8542 96.0277 80.1964C95.9701 80.527 95.8439 80.549 95.5379 80.5023C95.3028 80.2776 95.1229 79.9819 94.9485 79.6953L94.9484 79.695C94.894 79.6048 94.8385 79.5154 94.7818 79.4266C94.2728 78.5828 93.702 77.7814 93.0941 77.0048C92.7835 76.6088 92.4831 76.2054 92.1828 75.802C91.7972 75.2845 91.4116 74.7668 91.0044 74.2647C89.1781 76.2488 86.8743 77.3575 84.4004 78.3179C83.9847 79.4883 83.5181 80.6409 82.9981 81.7688C82.57 82.6991 82.1103 83.698 81.4572 84.4925C81.2816 84.7326 80.9578 84.7518 80.8288 84.454C80.8314 84.1289 80.9491 83.8037 81.0603 83.4969L81.0867 83.4236C81.626 81.9897 81.9759 80.4886 82.2132 78.9779C81.3667 79.2071 80.5091 79.3937 79.6488 79.5638C78.5909 83.0147 77.2284 86.5026 75.2772 89.5542C74.196 91.2007 72.8197 92.9269 71.0044 93.7872C70.9696 93.8017 70.9327 93.8179 70.8945 93.8347C70.6227 93.9544 70.2812 94.105 70.0357 93.8956C69.7997 93.6856 69.9589 93.3755 70.0892 93.1533C71.2967 91.1911 71.9594 88.794 72.4328 86.5561C72.8582 84.4582 73.1408 82.33 73.3096 80.1977C69.8409 80.2073 66.4216 79.8616 63.0887 78.8654C62.758 78.7652 62.4562 78.6075 62.1598 78.4318L62.2668 77.9255C66.5368 76.4107 70.4268 73.9395 73.6073 70.7123C73.575 70.2222 73.5699 69.7322 73.5647 69.2422C73.5584 68.6345 73.552 68.0268 73.4935 67.4192C73.3988 64.9288 73.2286 62.4425 72.9885 59.9618C70.1523 58.7625 67.4863 56.976 65.0632 55.0907C63.6801 54.0136 62.3478 52.872 61.0525 51.6893C56.2665 47.2464 51.9704 42.2669 48.2932 36.8704C45.9537 33.3948 43.7556 29.6215 42.3176 25.6781C35.9249 28.2398 30.0989 32.4741 25.28 37.3603C25.0179 37.6155 24.7806 37.8789 24.642 38.2233C23.3618 41.3078 22.6058 44.6023 22.4 47.9338C22.356 48.9848 22.3615 50.04 22.3849 51.091C22.6908 57.9969 25.4749 64.7381 30.1387 69.841C33.5594 73.5965 37.9241 76.4724 42.7484 78.0764C43.1779 78.1629 43.5498 78.7117 43.322 79.1179C43.1328 79.2669 42.8896 79.362 42.666 79.4495L42.651 79.4554C40.7657 80.1511 38.9641 81.0059 37.1722 81.9115C36.9271 82.0306 36.6829 82.1497 36.4393 82.2684C33.992 83.4613 31.6053 84.6246 29.0122 85.5517C27.3994 86.1029 25.7692 86.1404 24.1248 86.1782C23.5547 86.1914 22.983 86.2046 22.4096 86.2392C22.111 86.2471 21.8087 86.2453 21.5062 86.2434H21.5056C20.9784 86.2403 20.4499 86.237 19.9356 86.2858C19.8394 86.2942 19.7419 86.3042 19.6438 86.3142C19.3264 86.3466 19.0025 86.3798 18.6911 86.364C18.3865 86.3352 18.0668 86.1445 18.0545 85.8056C17.9063 84.5281 17.7869 83.2521 17.7155 81.9678C17.5679 80.01 17.5857 78.0336 17.6034 76.0657V76.0655C17.6078 75.5826 17.6122 75.1002 17.614 74.6187C14.7682 78.06 13.1162 82.1434 12.0446 86.4395C12.0007 86.6467 11.8923 86.7235 11.7098 86.8113C11.3997 86.7194 11.2982 86.6151 11.2584 86.2954C10.8769 83.3275 10.9579 80.2718 11.2419 77.2985C11.6014 73.7351 12.2861 70.2101 13.2644 66.7661C14.2647 63.2603 15.5709 59.7752 17.3259 56.574C17.3994 56.4242 17.4948 56.279 17.5904 56.1334C17.7322 55.9177 17.8746 55.7011 17.9474 55.4667C18.2054 52.127 18.8105 48.801 19.8012 45.5984C19.9262 45.2149 20.0506 44.8313 20.1749 44.4477L20.1752 44.4467C20.3868 43.7942 20.5982 43.1419 20.8124 42.4906C18.9011 45.0084 17.1804 47.6539 15.7644 50.4832C14.5089 52.9873 13.4345 55.6368 12.7636 58.3605C12.7523 58.3944 12.7416 58.4285 12.7315 58.4627C12.6734 58.6554 12.6098 58.8665 12.3753 58.8805C12.1406 58.9121 11.9376 58.7351 11.9307 58.5005C11.9148 58.3171 11.8983 58.1337 11.8819 57.9502C11.8202 57.2655 11.7585 56.5798 11.7249 55.8948C11.5534 49.4513 13.3577 42.9612 16.7702 37.4975C18.8434 34.2291 21.5341 31.2722 24.8698 29.2634C25.1509 29.1218 25.233 28.8767 25.3212 28.6129C25.3536 28.5161 25.3868 28.4169 25.431 28.3194L25.4694 28.2211C25.7751 27.4379 26.1016 26.6011 26.6178 25.936C27.1338 25.3186 27.7334 24.7368 28.4167 24.3059C29.3907 23.6755 30.4744 23.1528 31.5339 22.6418L31.5343 22.6416C31.7567 22.5343 31.978 22.4277 32.1969 22.3205C32.8208 22.0109 33.4507 21.7132 34.0808 21.4154L34.0811 21.4153C34.7523 21.0981 35.4237 20.7808 36.0882 20.4489C37.1082 19.9668 38.123 19.474 39.1377 18.9813L39.138 18.9812C40.6211 18.2609 42.1042 17.5407 43.6033 16.854C44.8821 16.2653 46.1266 15.7398 47.5234 15.486C48.6129 15.3158 49.7558 15.3776 50.8453 15.5162C51.202 15.5724 51.5272 15.4901 51.862 15.3748C53.1422 14.9412 54.4416 14.6408 55.7588 14.3512C55.9607 14.309 56.1524 14.2574 56.3399 14.2069C56.8657 14.0653 57.3597 13.9322 57.9542 14.0384V14.0384ZM58.9874 32.2656L58.9883 32.2661C60.9913 33.7626 63.0001 35.2633 64.9342 36.8375C65.1823 37.0408 65.4301 37.2405 65.6766 37.4392C66.5398 38.135 67.389 38.8194 68.1916 39.6092C68.6488 40.051 69.07 40.5202 69.4924 40.9907C69.676 41.1952 69.8597 41.4 70.0467 41.6028C70.2662 41.8196 70.3225 42.0872 70.3815 42.3795C71.3063 47.0007 72.0802 51.6646 72.6002 56.3476C69.8326 53.8449 67.2915 51.1034 64.9726 48.1808C62.5796 45.1649 60.3774 41.987 58.4427 38.6569C56.5382 35.4256 54.8903 32.0721 53.6115 28.543C53.762 28.642 53.9125 28.7406 54.063 28.8393L54.0644 28.8402C55.5088 29.7877 56.9489 30.7321 58.3302 31.7744L58.9874 32.2656V32.2656ZM89.4923 55.8934C89.5157 53.9231 88.7843 52.0117 87.4698 50.5463C87.5775 51.1766 87.6072 51.8078 87.6371 52.4424C87.646 52.6323 87.6549 52.8226 87.666 53.0134C87.865 55.7274 87.9116 58.4675 87.7429 61.1857C88.8543 59.6462 89.5033 57.7993 89.4923 55.8934V55.8934Z" fill="black"/>
<path d="M57.2545 14.8232C57.7265 14.7738 58.1821 14.8246 58.6129 15.0304C60.0797 15.7041 61.5506 16.4437 63.0421 17.057C64.5693 17.7046 66.1308 18.2548 67.6854 18.8353C69.8067 19.6599 71.9033 20.5449 73.9793 21.4793C75.2087 22.0268 76.4148 22.5249 77.5632 23.2507C78.344 23.757 78.9148 24.4637 79.3881 25.2568C80.7013 27.4329 81.74 29.6613 82.8939 31.9047C84.9397 36.0224 86.7839 40.2169 88.6225 44.4293C90.0097 47.7087 91.2693 51.0498 92.3135 54.4554C93.1052 57.1887 93.7679 59.9987 94.1466 62.8212C94.3895 64.5308 94.5583 66.2529 94.7325 67.9721C94.9123 70.1606 95.1195 72.3327 95.1222 74.5322C95.2045 75.9098 95.2347 77.2778 95.2224 78.6582C94.4073 77.3396 93.4222 76.235 92.4987 74.9864C92.05 74.4156 91.6055 73.8462 91.176 73.2616C90.7369 73.1532 90.5133 73.6609 90.2361 73.9148C88.783 75.4707 86.7166 76.5574 84.7504 77.3203C86.353 72.5385 87.3656 67.5715 87.6552 62.5344C88.4784 61.6165 89.159 60.586 89.6036 59.4321C90.3925 57.4713 90.5037 55.2375 89.8821 53.215C89.4732 51.9005 88.735 50.6574 87.7251 49.7161C87.5605 49.5419 87.3794 49.4321 87.3697 49.1686C87.2078 47.9214 87.1653 46.6302 86.9444 45.3898C86.8552 45.018 86.563 45.1223 86.2707 45.088C86.235 45.2979 86.1884 45.4982 86.2158 45.7123C86.5684 48.9546 86.8977 52.2175 87.0116 55.4817C87.0418 58.0943 87.061 60.6999 86.8127 63.3056C86.3859 69.1329 84.9919 74.8999 82.7841 80.3088C83.0887 78.4386 83.3892 76.5794 83.5484 74.6886C83.8338 71.9513 83.8201 69.2015 83.6129 66.4587C83.3961 64.384 83.2603 62.2669 82.8473 60.2197C82.7334 60.1908 82.6181 60.162 82.5042 60.1318C82.4013 60.1771 82.297 60.221 82.1928 60.2663C82.1585 60.5023 82.1255 60.7383 82.1063 60.9771C81.7358 66.7976 80.8193 72.6469 79.2125 78.2589C78.9244 79.0863 78.7337 79.9383 78.4373 80.7616C77.4041 83.8256 76.1074 86.9718 74.266 89.6433C73.4469 90.8165 72.4672 91.9567 71.2584 92.7429C72.7128 89.7696 73.3673 86.3201 73.8023 83.0599C74.0424 81.2816 74.1508 79.4993 74.2839 77.7128C74.3552 75.9729 74.3689 74.2331 74.4252 72.4946C74.3333 70.0742 74.3786 67.6291 74.1686 65.221C74.1082 63.569 73.9408 61.9293 73.8283 60.2814C74.959 60.6423 76.246 60.9798 77.4397 60.8687C77.8322 60.8481 77.9625 60.3006 77.6003 60.125C76.1532 59.2281 74.7795 58.2178 73.4922 57.1036C72.9131 51.8744 72.0665 46.7153 71.032 41.5602C70.667 41.0361 70.1648 40.6011 69.7573 40.1058C68.4606 38.6088 66.9444 37.4535 65.4186 36.2131C63.3399 34.5185 61.1966 32.9324 59.0506 31.3243C57.3012 30.0125 55.4653 28.8682 53.6239 27.6936C53.3083 27.4837 53.0435 27.4096 52.6689 27.3931C52.5948 27.6484 52.529 27.8528 52.6333 28.1149C53.5718 30.9167 54.8149 33.6308 56.1898 36.2447C58.462 40.5408 61.1582 44.616 64.1645 48.4332C66.6137 51.5163 69.2304 54.4129 72.1818 57.0254C73.4016 58.0407 74.6077 59.063 75.9016 59.985C75.3843 59.9109 74.8739 59.7888 74.3772 59.6242C73.0407 59.148 71.7482 58.5841 70.5243 57.861C66.718 55.6697 63.2219 52.6977 60.0633 49.6612C55.7781 45.4831 51.9143 40.8632 48.5869 35.8879C46.8059 33.2041 45.1648 30.3844 43.8682 27.4329C43.001 25.4351 42.2573 23.3042 41.9897 21.1349C44.2784 19.3992 47.0282 18.1423 49.6544 17.0035C52.1091 15.984 54.664 15.3748 57.2545 14.8232V14.8232Z" fill="#6A4E35"/>
<path d="M49.6159 16.1708C46.9787 17.252 44.3497 18.5555 42.0157 20.198C41.6823 20.4532 41.2542 20.7125 41.2309 21.1804C41.3104 22.4386 41.7029 23.7298 42.0459 24.929C37.1433 26.8815 32.5879 29.8357 28.5635 33.2303C24.2619 36.8939 20.4611 41.19 17.4288 45.9608C15.3925 49.1812 13.6897 52.5827 12.5495 56.2256C12.5372 54.9743 12.5056 53.7133 12.6003 52.4647C13.0654 47.1148 14.8327 41.898 17.7732 37.4002C20.2059 33.7119 23.5882 30.364 27.7402 28.6996C28.075 28.5144 28.075 27.9504 27.6579 27.8516C27.1296 28.052 26.6343 28.3374 26.1143 28.561C26.423 27.8379 26.7221 27.016 27.2188 26.3986C27.6812 25.8511 28.2054 25.3612 28.8146 24.9812C29.9219 24.2855 31.1458 23.7065 32.3231 23.1384C33.794 22.4167 35.2869 21.7375 36.7536 21.0061C39.4663 19.7342 42.1337 18.3538 44.8766 17.1532C46.3928 16.5001 47.9433 16.0308 49.6159 16.1708V16.1708Z" fill="#6A4E35"/>
<path d="M23.3017 39.4883C21.2984 45.2306 21.0007 51.5135 22.5402 57.4026C23.948 62.887 26.9173 67.9419 30.9993 71.862C34.1922 74.9534 38.0575 77.2723 42.2411 78.7541C40.2981 79.4937 38.4279 80.3911 36.5715 81.3227C33.9946 82.5796 31.5056 83.8131 28.7929 84.7901C26.872 85.461 25.0676 85.3019 23.0959 85.4597C21.6703 85.5104 20.2556 85.4693 18.8382 85.6545C18.6022 83.7047 18.4266 81.7344 18.4376 79.7681C18.3937 77.3957 18.358 75.0179 18.3758 72.6468C18.3525 72.3601 18.4074 71.9649 18.1755 71.7605C17.8613 71.7138 17.7433 71.8249 17.6596 72.109C17.6157 72.6043 17.6514 73.1038 17.6198 73.6005C17.1505 73.9394 16.8679 74.3853 16.5139 74.8313C15.5561 76.0648 14.6972 77.3546 13.996 78.7528C13.1289 80.4652 12.3769 82.2722 11.8994 84.1342C11.658 82.2201 11.8267 80.3485 11.9324 78.3974C12.3413 73.4921 13.3758 68.6362 14.9648 63.9792C15.7455 61.7179 16.6593 59.4828 17.7982 57.3766C17.805 58.1189 17.7172 58.8557 17.72 59.598C17.7213 60.5626 17.5663 61.5176 17.5965 62.4987C17.6102 62.7278 17.6459 62.9446 17.9079 62.9968C18.1632 63.0544 18.3264 62.8678 18.3649 62.6304C18.4623 61.9018 18.4266 61.154 18.4733 60.4213C18.5048 58.8653 18.5995 57.3107 18.7093 55.7588C18.9851 52.0171 19.7164 48.3137 20.8813 44.7462C21.2586 43.5786 21.5838 42.3889 22.0188 41.2418C22.2219 40.5585 22.8503 40.0495 23.3017 39.4883V39.4883ZM82.6993 65.3019C82.8941 66.7262 82.9161 68.1792 82.9888 69.6131C83.0341 72.4438 82.7459 75.3115 82.3453 78.1106C81.5412 78.3645 80.7317 78.5236 79.9111 78.7089C81.0692 74.6982 81.8637 70.5997 82.3864 66.4586C82.4537 66.0278 82.3864 65.6449 82.6993 65.3019V65.3019ZM73.6172 71.8126C73.6447 73.3233 73.5692 74.8285 73.5582 76.3378C73.5006 77.356 73.4293 78.3713 73.3922 79.3908C70.1472 79.4594 66.8651 79.0958 63.7339 78.2314C67.2657 76.7714 70.5368 74.7242 73.3154 72.0939L73.6172 71.8126V71.8126Z" fill="#6A4E35"/>
</svg>
