<svg width="108" height="108" viewBox="0 0 108 108" fill="none" xmlns="http://www.w3.org/2000/svg">
<circle cx="54" cy="54" r="54" fill="#FFDFAF"/>
<path d="M60.6808 27.6395C66.0412 28.334 71.1988 30.4231 75.5344 33.6476C76.406 34.3335 77.3032 34.9699 78.0884 35.7622C81.4574 38.8775 84.1446 42.7099 85.9021 46.952C87.2273 50.114 87.9884 53.4773 88.2605 56.8931C89.1988 57.0079 90.1101 57.1964 90.9704 57.6017C93.173 58.5839 94.8086 60.5696 95.4747 62.8756C95.8475 64.2305 95.9793 65.6748 95.7185 67.0638C95.299 69.7227 93.7739 72.1846 91.5558 73.7139C90.0052 74.7981 88.0848 75.4189 86.1898 75.3693C85.4627 75.3622 84.7668 75.1425 84.0454 75.1156C83.7832 75.4231 83.5876 75.8016 83.3708 76.1431C80.726 80.3413 77.0538 83.869 72.7919 86.4046C68.8092 88.7757 64.3021 90.254 59.6873 90.7019C58.1169 90.8011 56.5876 90.9924 55.013 90.8068C47.6868 90.4808 40.5463 87.4846 35.1492 82.5253C31.0347 78.7624 27.9435 73.9038 26.2852 68.5803C25.2804 65.3417 24.78 61.9501 24.858 58.5584C24.9317 52.8409 26.6339 47.1376 29.6684 42.2932C32.3755 37.9264 36.1753 34.274 40.6101 31.6874C44.8097 29.2383 49.5889 27.7642 54.4418 27.4538C56.5196 27.2455 58.6144 27.4014 60.6808 27.6395Z" fill="black"/>
<path d="M56.0023 28.2364C62.872 28.0394 69.7957 30.3199 75.2509 34.4896C76.1793 35.0651 76.912 35.8347 77.7114 36.5646C81.1597 39.772 83.8342 43.7858 85.4968 48.1895C86.5498 50.9688 87.1777 53.8871 87.4186 56.8479C86.1586 56.9528 84.961 57.1795 83.8215 57.7521C83.5111 57.8981 83.5536 58.4537 83.9179 58.4934C84.2509 58.526 84.6237 58.2794 84.944 58.1816C87.0161 57.4205 89.3831 57.5651 91.2908 58.7032C92.9476 59.6641 94.1382 61.277 94.6768 63.1054C95.0453 64.2747 95.0566 65.5729 94.9262 66.7833C94.5719 69.2424 93.1758 71.564 91.1377 72.9926C88.9111 74.5984 85.8695 75.0676 83.3523 73.8714C82.9031 73.6687 82.5105 73.364 82.0654 73.1556C81.6473 73.0011 81.3738 73.551 81.6827 73.8288C82.132 74.22 82.7231 74.4695 83.2418 74.7586C80.3873 79.5988 76.2331 83.6452 71.2782 86.3055C66.9979 88.6172 62.1449 89.924 57.2779 90.0118C53.3618 90.1139 49.4358 89.4392 45.7678 88.0673C41.4705 86.4742 37.57 83.8961 34.3768 80.6121C31.1637 77.2999 28.7188 73.2591 27.2618 68.881C25.1415 62.554 25.1486 55.5567 27.3001 49.2383C28.8662 44.5526 31.5917 40.2794 35.1478 36.8523C39.353 32.7803 44.736 29.9726 50.4733 28.8203C52.2875 28.4632 54.1498 28.2194 56.0023 28.2364Z" fill="#ECAD80"/>
<path d="M90.3058 61.5916C90.6786 61.5774 90.7934 62.1302 90.4986 62.2974C89.9756 62.5568 89.3902 62.69 88.8488 62.9139C88.0239 63.2031 87.2501 63.5886 86.4847 64.0081C87.0927 64.3398 87.7405 64.6799 88.2861 65.108C88.6518 65.4042 88.9735 65.7245 89.0416 66.2135C89.0047 66.7223 88.6546 67.1418 88.2691 67.4451C87.4386 68.1056 86.2962 68.4628 85.3225 68.8993C85.0745 68.9872 84.6946 69.1813 84.5302 68.8624C84.3857 68.6158 84.5217 68.4217 84.7527 68.3139C85.6953 67.8462 86.8589 67.5174 87.6994 66.8739C87.8935 66.7124 88.1798 66.4856 88.211 66.2191C87.6342 65.4212 86.4507 65.0017 85.6272 64.5056C85.2956 64.2618 85.3027 63.9046 85.6045 63.6368C86.6349 62.8374 88.0112 62.3243 89.2286 61.8821C89.5716 61.7645 89.9416 61.6057 90.3058 61.5916Z" fill="black"/>
<path d="M60.9645 52.6198C63.2904 52.6921 65.5467 53.663 67.1908 55.3099C68.0072 56.105 68.6011 57.0546 69.1184 58.0638C70.2338 57.3424 71.3578 56.6351 72.486 55.9335C72.6631 56.088 72.829 56.2524 72.9905 56.4239C72.5412 56.9228 71.9885 57.1879 71.4371 57.5479C70.7611 57.9773 70.0836 58.4025 69.4104 58.8348C69.8597 60.2521 70.0524 61.7247 69.8072 63.2016C69.5167 65.3162 68.448 67.292 66.8663 68.7192C65.225 70.2159 63.0452 71.089 60.8214 71.106C58.9817 71.1542 57.1264 70.6128 55.5915 69.5994C53.8283 68.457 52.5003 66.6924 51.8497 64.6983C51.202 62.6431 51.2743 60.3414 52.1034 58.3472C52.8702 56.4509 54.3088 54.8294 56.089 53.8246C57.5502 52.9685 59.2793 52.5702 60.9645 52.6198Z" fill="black"/>
<path d="M59.584 53.4929C61.6603 53.242 63.7325 53.7225 65.4517 54.9158C67.2177 56.1177 68.4805 58.0155 68.9184 60.1061C69.2898 61.8579 69.0942 63.7231 68.3416 65.353C67.4742 67.2862 65.8372 68.8821 63.8657 69.6659C62.4172 70.2655 60.8085 70.4667 59.2622 70.1861C56.9364 69.8105 54.8005 68.3974 53.5433 66.4047C52.7496 65.1617 52.3046 63.7203 52.2153 62.2505C52.1288 60.201 52.8148 58.119 54.1159 56.5302C55.4581 54.862 57.4636 53.7579 59.584 53.4929Z" fill="white"/>
<path d="M40.419 56.8507C41.9426 57.7054 43.1459 59.0873 43.8021 60.7059C44.2967 61.912 44.4456 63.2259 44.3138 64.5185C44.0601 66.9463 42.5903 69.1758 40.4728 70.3833C38.1356 71.7496 35.1352 71.7681 32.7768 70.4415C30.733 69.309 29.2689 67.2454 28.8933 64.9366C28.6367 63.6752 28.8026 62.4322 29.1612 61.2104C28.3363 60.6959 27.4419 60.2722 26.6468 59.7152C26.3705 59.5592 26.4427 59.1312 26.7432 59.0575C26.9771 58.9895 27.1939 59.1411 27.3952 59.2389C28.0797 59.64 28.7615 60.0411 29.4475 60.4394C30.3801 58.4367 32.0908 56.8677 34.2082 56.2059C36.252 55.5454 38.5538 55.7878 40.419 56.8507Z" fill="black"/>
<path d="M35.3476 56.7571C37.4778 56.3631 39.7328 57.0335 41.316 58.5075C42.7418 59.8171 43.5695 61.7277 43.5738 63.6623C43.5497 64.8032 43.2591 65.9541 42.7134 66.959C41.7298 68.776 39.9298 70.1069 37.8974 70.4881C36.7536 70.7319 35.5971 70.6426 34.4845 70.2954C31.7774 69.462 29.7634 66.925 29.6117 64.0889C29.4728 62.2762 30.1049 60.4436 31.2912 59.0702C32.3273 57.8612 33.7815 57.0406 35.3476 56.7571Z" fill="white"/>
<path d="M56.4657 58.5853C57.5103 58.4577 58.6215 58.8376 59.3358 59.6185C59.8772 60.2096 60.2259 61.0061 60.2443 61.8111C60.284 62.8401 59.8148 63.8946 59.007 64.5381C58.0205 65.3644 56.5635 65.5188 55.4126 64.9576C54.1881 64.3765 53.3958 63.0286 53.5163 61.6722C53.6155 60.0933 54.8967 58.7653 56.4657 58.5853ZM32.5512 60.6617C34.1684 60.1132 36.001 61.0869 36.4545 62.7296C36.9888 64.3864 35.8848 66.253 34.1825 66.6017C32.6759 66.9773 31.0375 66.0999 30.5457 64.6259C29.9901 63.0485 30.9355 61.1407 32.5512 60.6617Z" fill="black"/>
<path d="M38.0108 45.3974C38.976 45.4244 40.0206 45.8028 40.5521 46.656C40.7009 46.8615 40.6413 47.1776 40.6541 47.4214C39.7626 47.4426 38.8839 47.4681 38.0122 47.6807C35.8777 48.174 33.8524 49.2199 32.1105 50.5366C30.9242 51.4409 29.7946 52.5351 28.9995 53.8064C28.7968 54.121 28.6579 54.5193 28.3914 54.7829C28.2157 54.8198 28.0272 54.8226 27.8486 54.8325C27.8415 54.5817 27.816 54.3421 27.8784 54.097C28.6891 51.1404 30.6889 48.5212 33.2812 46.8955C34.6744 46.0678 36.361 45.3294 38.0108 45.3974ZM63.7295 50.857C65.205 51.0936 66.7343 51.4026 67.9829 52.27L67.9532 52.9475C67.3763 53.1729 66.9199 52.9262 66.3502 52.837C65.3836 52.6669 64.3787 52.6598 63.3979 52.6796C59.2522 52.8667 55.1448 54.0814 51.4966 56.0444C51.2911 56.1336 51.0828 56.1946 50.8702 56.2626C50.5045 55.5029 50.3585 54.7163 50.8517 53.9708C51.5788 52.8837 53.0061 52.2147 54.2009 51.7825C57.2254 50.7393 60.5618 50.5069 63.7295 50.857Z" fill="black"/>
<path d="M56.2857 71.8247C58.8383 71.8233 61.5624 72.1294 63.9379 73.1131C56.5394 74.1293 48.7513 75.249 41.4053 76.2595C42.5434 75.2688 43.9111 74.5134 45.2944 73.9252C47.0278 73.2024 49.0163 72.6241 50.9056 72.8721C51.0445 72.8934 51.1692 72.8778 51.2783 72.8239C52.7297 71.9863 54.6473 71.8743 56.2857 71.8247Z" fill="#D31E1E"/>
<path d="M63.9376 73.1133C64.2806 73.255 64.2098 73.5952 64.1332 73.8857C63.1723 75.7778 61.8542 77.4545 60.1151 78.6904C57.6787 80.4607 54.6046 81.2983 51.6083 81.1821C47.8085 81.046 44.0866 79.4756 41.1995 77.0279C41.1428 76.6849 41.1301 76.5021 41.405 76.2597C48.751 75.2492 56.5392 74.1295 63.9376 73.1133Z" fill="black"/>
<path d="M64.1334 73.8857C63.9761 74.5391 63.8712 75.1883 63.6161 75.8161C62.8564 77.7919 61.3413 79.4161 59.5937 80.5727C57.6676 81.8298 55.4466 82.5782 53.1647 82.8248C50.3783 83.121 47.3835 82.6703 44.9429 81.2402C43.2761 80.2736 41.914 78.8322 41.1997 77.0279C44.0868 79.4757 47.8087 81.0461 51.6085 81.1821C54.6047 81.2983 57.6789 80.4607 60.1153 78.6905C61.8544 77.4546 63.1725 75.7779 64.1334 73.8857Z" fill="#D31E1E"/>
<path d="M63.0689 74.0796C61.9109 76.2127 60.0953 77.9716 57.9141 79.0388C56.1481 79.9062 54.144 80.3768 52.1753 80.3413C48.6731 80.3668 45.229 79.0643 42.4553 76.9582C49.2486 76.0242 56.3068 75.0023 63.0689 74.0796Z" fill="white"/>
<path d="M42.2543 18.0542C44.1904 17.8203 46.2838 18.3518 47.874 19.4857C48.7896 20.1462 49.5621 21.0249 49.9617 22.0921C50.3076 22.9978 50.3076 24.0183 49.9646 24.9254C54.5085 23.5832 59.1956 22.8263 63.9394 22.866C64.9797 22.9 66.0228 22.9751 67.0603 23.0588C71.4909 23.5052 75.8236 24.7794 79.6178 27.1477C83.1285 29.3332 86.0383 32.457 87.8978 36.1577C89.4526 39.2077 90.2973 42.6079 90.5184 46.0151C94.3991 45.0783 98.6595 47.0143 100.89 50.2416C101.949 51.7794 102.62 53.6843 102.428 55.5665C102.41 55.8173 102.15 55.9832 101.928 56.0384C101.549 55.9548 101.211 55.6841 100.858 55.524C98.9416 54.5914 96.834 54.0173 94.7222 53.7551C98.5603 56.3616 101.456 60.3372 102.809 64.7706C103.508 67.0199 103.736 69.4024 103.48 71.7424C103.172 74.2128 102.248 76.5995 100.57 78.4619C100.346 78.7156 99.8317 78.7907 99.7055 78.4123C99.724 76.9666 99.8005 75.297 99.0507 73.9874C98.3109 76.2154 96.9928 78.2295 95.1843 79.7361C93.2071 81.4071 90.6729 82.4233 88.1033 82.6742C85.9575 82.9435 83.7238 82.6345 81.6715 81.9726C81.0351 82.8698 80.5901 83.9498 80.7361 85.068C80.78 85.3076 80.5617 85.411 80.4143 85.5514C80.0799 85.3274 79.734 85.1219 79.3939 84.9065C78.5392 84.3551 77.8306 83.6536 77.1545 82.901C76.9986 82.7536 76.9844 82.575 76.9362 82.3765C79.5356 80.1074 81.7466 77.3847 83.4588 74.3899C83.66 74.0058 84.0257 74.1773 84.3517 74.2525C86.7058 74.9455 89.2627 74.3758 91.22 72.9372C93.1802 71.534 94.5266 69.2947 94.9107 66.9221C95.1006 65.4452 95.0411 63.9655 94.5011 62.5652C93.8208 60.7241 92.4375 59.175 90.6446 58.3586C89.0005 57.6003 87.1112 57.5167 85.3835 58.0326C84.7258 59.6725 83.8471 61.2457 82.7614 62.6417C81.7225 63.8961 80.5419 65.088 79.2266 66.0532C78.98 66.2205 78.7419 66.375 78.4797 66.1284C78.2685 65.8732 78.5449 65.397 78.5888 65.0994C79.0154 63.2923 79.4463 61.4143 79.4449 59.5506C79.5427 57.9858 79.4633 56.4183 79.1983 54.872C79.1317 54.5063 79.1189 54.0811 78.9545 53.7466C78.525 53.6956 78.0942 53.7055 77.6647 53.6304C76.5139 53.4447 75.414 52.8154 74.5211 52.0869C73.3547 51.0948 72.7041 49.7427 72.6233 48.2148C72.1684 49.1432 71.9005 50.1466 71.9983 51.1884C71.9912 51.4463 72.1032 51.8602 71.8849 52.0501C71.634 52.2003 71.3123 52.2514 71.026 52.2967C69.3309 52.4966 67.5323 52.3704 65.9321 51.7454C64.3958 51.1543 63.0677 50.0673 62.2443 48.6343C61.3188 47.0101 61.0778 45.1591 61.2762 43.3194C61.3372 42.8403 61.4435 42.3797 61.4732 41.8978C60.8567 43.0189 60.3975 44.1769 60.1906 45.4454C59.9255 47.0214 59.8334 48.8285 60.3932 50.3521C60.4528 50.5591 60.5605 50.817 60.4981 51.0296C60.4329 51.2606 60.1792 51.3358 59.968 51.2365C58.7435 50.6966 57.9257 49.7682 57.1277 48.7321C57.0852 49.3869 57.1561 49.9326 57.3602 50.552C57.4211 50.8312 57.6337 51.2082 57.4126 51.4577C57.234 51.7255 56.8783 51.7326 56.5948 51.8077C54.3427 52.2287 52.0565 52.5632 49.7676 52.6808C48.5047 52.8225 47.2107 52.7559 45.9394 52.7673C43.1813 52.6383 40.3069 52.2925 37.7685 51.1388C36.2151 50.4258 34.768 49.3813 34.0013 47.808C33.6299 47.071 33.535 46.2972 33.4414 45.4893C33.0417 45.8734 32.7597 46.3354 32.5088 46.8258C31.7619 48.2942 31.3239 49.961 31.3537 51.6136C31.3509 52.0444 31.4742 52.4767 31.4388 52.9033C31.3509 53.2321 30.9158 53.218 30.6493 53.1613C29.7337 52.9671 28.8323 52.668 27.9791 52.2825C27.4986 52.0728 27.0677 51.7794 26.5787 51.5895C26.0558 53.9493 25.6717 56.2723 25.6901 58.7002C25.5384 66.0632 28.2002 73.4332 32.9581 79.0473C33.2884 79.4356 33.6441 79.7276 33.7263 80.2662C33.3621 80.5936 33.1013 80.697 32.618 80.7509C30.0002 81.1222 27.5227 80.0323 25.5512 78.3783C23.3076 76.4663 21.7145 73.7805 21.1348 70.8892C20.9336 69.9041 20.9506 68.9219 20.9676 67.9227C19.7161 69.2706 18.8628 71.1074 18.7976 72.957C18.7877 73.164 18.5099 73.3043 18.32 73.249C18.1159 73.1895 18.0252 72.9953 17.9317 72.8224C16.4208 69.666 15.8411 66.151 16.0367 62.6687C16.2252 59.5406 17.094 56.3233 18.7948 53.6687C20.0619 51.6972 21.7754 50.0602 23.9794 49.1914C22.5862 47.3644 21.8832 45.1194 21.9498 42.8262C22.015 39.7619 23.2934 36.8862 25.1203 34.4696C27.7934 30.9688 31.6825 28.3921 35.8948 27.1449C38.2249 26.4348 40.6854 26.2038 43.1076 26.4419C43.7808 26.5 44.4243 26.6715 45.0947 26.7679C45.1173 25.3605 44.4243 24.1685 43.4534 23.2047C42.2572 22.0468 40.64 21.1992 38.9732 21.0377C38.6501 20.981 38.2561 21.0887 38.1002 20.723C38.0449 20.3559 38.3213 20.0909 38.531 19.8287C39.4565 18.7728 40.881 18.1988 42.2543 18.0542Z" fill="black"/>
<path d="M42.9629 18.8124C44.7657 18.794 46.56 19.3808 47.9235 20.5756C48.6166 21.195 49.1948 22.0538 49.3536 22.9822C49.5237 23.7164 49.3238 24.4916 48.9341 25.1238C48.8008 25.3293 48.6832 25.6354 48.9142 25.8168C49.2345 26.0252 49.7107 25.8792 50.0481 25.7772C55.4183 24.1316 61.0323 23.3564 66.6435 23.8411C70.8515 24.2266 75.0199 25.3761 78.6709 27.5375C82.0541 29.5203 84.8986 32.3833 86.7907 35.8231C88.5667 39.0249 89.4879 42.5866 89.7175 46.2305C89.7402 46.4757 89.7303 46.7167 89.9868 46.8329C90.181 46.942 90.3567 46.8839 90.5608 46.8457C93.7881 45.9938 97.3966 47.4055 99.5552 49.8674C100.846 51.3116 101.637 53.1442 101.657 55.0945C99.13 53.7253 96.1479 52.9231 93.2764 52.8268C92.9589 52.8069 92.7889 52.8438 92.6712 53.1584C92.6585 53.4957 92.9065 53.5709 93.1404 53.731C96.8212 55.8598 99.7465 59.2983 101.379 63.2129C102.326 65.4891 102.85 67.995 102.757 70.4639C102.679 72.8649 101.955 75.3268 100.491 77.2557C100.444 76.6463 100.445 76.0269 100.356 75.4231C100.2 74.5132 99.8429 73.6246 99.429 72.8025C99.3043 72.5488 99.0747 72.434 98.8097 72.5729C98.5347 72.6764 98.5163 72.9315 98.4227 73.1753C97.8728 75.2375 96.7474 77.1537 95.1983 78.622C93.6804 80.0776 91.7486 81.0839 89.709 81.5757C87.2174 82.1795 84.5188 82.0052 82.0796 81.2441C81.6969 81.1321 81.3383 81.1902 81.086 81.5148C80.4596 82.2915 80.05 83.3417 79.9238 84.3268C79.1712 83.8605 78.5263 83.2694 77.9197 82.6316C78.7418 81.8351 79.5681 81.0471 80.3221 80.1825C81.7323 78.615 82.937 76.8901 84.0227 75.0844C84.8008 75.168 85.5421 75.3707 86.333 75.3665C89.2682 75.3849 92.0533 73.8783 93.798 71.5453C95.0282 69.931 95.7284 67.9524 95.8446 65.9285C95.9041 63.94 95.3939 61.9373 94.2289 60.3074C92.9434 58.4734 90.8429 57.1765 88.6007 56.9696C87.6482 56.8151 86.7114 56.8803 85.7717 57.0816C85.7703 56.7556 85.8936 56.4693 85.6526 56.2014C85.389 56.1617 85.1948 56.1589 85.1155 56.4523C84.7696 57.8072 84.0907 59.0913 83.3892 60.2946C82.3928 62.0082 81.018 63.4709 79.5326 64.7705C79.9026 62.9266 80.3093 61.1663 80.2682 59.2671C80.3504 57.2601 80.1123 55.266 79.6687 53.3101C79.6276 53.0819 79.5142 52.8792 79.2534 52.8792C78.4654 52.8721 77.7256 52.9118 76.98 52.6028C75.8108 52.1252 74.6131 51.3372 73.981 50.2118C73.3701 49.18 73.2964 47.8024 73.3319 46.6331C73.1745 46.3127 72.7593 46.3694 72.6076 46.6671C72.2561 47.2779 71.872 47.9001 71.6325 48.5606C71.2739 49.4734 71.1308 50.4811 71.1506 51.4576C69.0246 51.7524 66.6747 51.4846 64.8605 50.2614C63.4418 49.3189 62.5205 47.8123 62.1874 46.154C61.853 44.3767 62.0826 42.5398 62.6835 40.8433C62.7572 40.5882 62.9244 40.2551 62.7969 40.0014C62.6197 39.6924 62.1917 39.8058 61.972 40.0042C60.2641 41.8723 59.3641 44.2846 59.1997 46.7961C59.0651 47.8817 59.2167 48.9305 59.3882 50.0006C58.5634 49.3685 57.9029 48.5691 57.3926 47.6663C57.1885 47.2652 56.6457 47.3176 56.5337 47.7598C56.2645 48.7916 56.3282 49.951 56.6684 50.9616C52.51 51.768 48.3317 52.1705 44.0967 51.8276C41.7255 51.5795 39.1474 51.092 37.0767 49.8518C35.8536 49.1162 34.8289 48.0816 34.4504 46.6699C34.2435 45.9343 34.3611 45.2554 34.3512 44.5142C34.1684 44.225 33.8693 44.1839 33.5887 44.3639C32.6164 45.0287 32.0424 45.9641 31.5463 47.0072C30.8065 48.6641 30.3983 50.4953 30.557 52.3137C28.4736 51.7709 26.5574 50.8255 25.0904 49.2168C23.3273 47.3134 22.5435 44.6616 22.8213 42.1005C22.9602 40.3713 23.5626 38.6592 24.3747 37.1342C25.7296 34.6156 27.7876 32.4641 30.1219 30.8313C32.8843 28.9109 36.069 27.6409 39.4196 27.2653C41.3655 27.0201 43.3385 27.1803 45.232 27.6764C45.5027 27.7671 45.6884 27.597 45.7777 27.3575C46.0895 26.0989 45.7125 24.8502 45.0038 23.8014C43.7112 21.8937 41.5356 20.5557 39.2566 20.2397C40.26 19.2702 41.5923 18.8677 42.9629 18.8124ZM24.5463 49.866C24.9758 50.2841 25.4166 50.6767 25.8829 51.0537C25.238 53.6276 24.8326 56.3275 24.8666 58.9836C24.7745 66.6187 27.6162 74.166 32.6208 79.9203C31.1383 80.1811 29.6317 79.831 28.2895 79.1989C26.2556 78.2195 24.5577 76.4989 23.4167 74.5671C22.3055 72.6721 21.6295 70.403 21.7712 68.1962C21.7854 67.815 21.8888 67.4323 21.8704 67.0524C21.7599 66.7335 21.4353 66.6853 21.1532 66.8172C20.5608 67.0935 20.0676 67.6505 19.6892 68.1721C18.9918 69.1161 18.5014 70.189 18.1939 71.3186C17.1408 68.7943 16.7482 65.9583 16.8191 63.2356C16.958 59.9247 17.8424 56.5033 19.7317 53.7466C20.9279 51.9962 22.5224 50.5718 24.5463 49.866Z" fill="#CB6820"/>
</svg>
