<svg width="17" height="17" viewBox="0 0 17 17" fill="none" xmlns="http://www.w3.org/2000/svg">
<path d="M0.743866 1.16313C0.851272 1.06127 0.978865 0.980457 1.11934 0.925317C1.25981 0.870178 1.4104 0.841797 1.56249 0.841797C1.71458 0.841797 1.86517 0.870178 2.00564 0.925317C2.14612 0.980457 2.27371 1.06127 2.38112 1.16313L8.49999 6.95344L14.6189 1.16313C14.7264 1.06143 14.854 0.980767 14.9945 0.925732C15.1349 0.870696 15.2855 0.84237 15.4375 0.84237C15.5895 0.84237 15.7401 0.870696 15.8805 0.925732C16.021 0.980767 16.1486 1.06143 16.2561 1.16313C16.3636 1.26482 16.4489 1.38554 16.5071 1.51841C16.5653 1.65128 16.5952 1.79369 16.5952 1.9375C16.5952 2.08132 16.5653 2.22372 16.5071 2.35659C16.4489 2.48946 16.3636 2.61018 16.2561 2.71188L10.1349 8.5L16.2561 14.2881C16.3636 14.3898 16.4489 14.5105 16.5071 14.6434C16.5653 14.7763 16.5952 14.9187 16.5952 15.0625C16.5952 15.2063 16.5653 15.3487 16.5071 15.4816C16.4489 15.6145 16.3636 15.7352 16.2561 15.8369C16.1486 15.9386 16.021 16.0192 15.8805 16.0743C15.7401 16.1293 15.5895 16.1576 15.4375 16.1576C15.2855 16.1576 15.1349 16.1293 14.9945 16.0743C14.854 16.0192 14.7264 15.9386 14.6189 15.8369L8.49999 10.0466L2.38112 15.8369C2.27361 15.9386 2.14599 16.0192 2.00553 16.0743C1.86507 16.1293 1.71452 16.1576 1.56249 16.1576C1.41046 16.1576 1.25991 16.1293 1.11945 16.0743C0.978994 16.0192 0.851369 15.9386 0.743866 15.8369C0.636363 15.7352 0.551086 15.6145 0.492906 15.4816C0.434725 15.3487 0.40478 15.2063 0.40478 15.0625C0.40478 14.9187 0.434725 14.7763 0.492906 14.6434C0.551086 14.5105 0.636363 14.3898 0.743866 14.2881L6.86505 8.5L0.743866 2.71188C0.636189 2.61028 0.550758 2.48958 0.492468 2.3567C0.434178 2.22382 0.404175 2.08137 0.404175 1.9375C0.404175 1.79364 0.434178 1.65118 0.492468 1.5183C0.550758 1.38542 0.636189 1.26473 0.743866 1.16313Z" fill="#E37209"/>
</svg>
