<svg width="31" height="31" viewBox="0 0 31 31" fill="none" xmlns="http://www.w3.org/2000/svg">
<path d="M10.6562 18.4276C10.8035 20.2759 12.2644 21.7155 14.8839 21.886V23.25H16.0464V21.8763C18.7589 21.6864 20.3438 20.2372 20.3438 18.1331C20.3438 16.2208 19.1309 15.2346 16.9628 14.7231L16.0464 14.5061V10.7919C17.2089 10.9236 17.949 11.5591 18.1272 12.4388H20.1655C20.0183 10.6582 18.4915 9.26513 16.0464 9.114V7.75H14.8839V9.14306C12.5686 9.36975 10.9895 10.7628 10.9895 12.7333C10.9895 14.477 12.1636 15.5853 14.1147 16.0406L14.8839 16.2304V20.1713C13.6923 19.9911 12.9037 19.3382 12.7255 18.4276H10.6562ZM14.8742 14.2309C13.7311 13.9655 13.1111 13.4249 13.1111 12.6112C13.1111 11.7006 13.7795 11.0186 14.8839 10.819V14.229H14.8742V14.2309ZM16.2149 16.5424C17.6041 16.864 18.2454 17.3852 18.2454 18.3055C18.2454 19.3556 17.4472 20.0764 16.0464 20.2081V16.5036L16.2149 16.5424Z" fill="white"/>
<path d="M15.5 29.0625C11.903 29.0625 8.45333 27.6336 5.90986 25.0901C3.3664 22.5467 1.9375 19.097 1.9375 15.5C1.9375 11.903 3.3664 8.45333 5.90986 5.90986C8.45333 3.3664 11.903 1.9375 15.5 1.9375C19.097 1.9375 22.5467 3.3664 25.0901 5.90986C27.6336 8.45333 29.0625 11.903 29.0625 15.5C29.0625 19.097 27.6336 22.5467 25.0901 25.0901C22.5467 27.6336 19.097 29.0625 15.5 29.0625ZM15.5 31C19.6109 31 23.5533 29.367 26.4602 26.4602C29.367 23.5533 31 19.6109 31 15.5C31 11.3891 29.367 7.44666 26.4602 4.53984C23.5533 1.63303 19.6109 0 15.5 0C11.3891 0 7.44666 1.63303 4.53984 4.53984C1.63303 7.44666 0 11.3891 0 15.5C0 19.6109 1.63303 23.5533 4.53984 26.4602C7.44666 29.367 11.3891 31 15.5 31Z" fill="white"/>
<path d="M15.5 26.1562C12.6738 26.1562 9.96333 25.0335 7.96489 23.0351C5.96646 21.0367 4.84375 18.3262 4.84375 15.5C4.84375 12.6738 5.96646 9.96333 7.96489 7.96489C9.96333 5.96646 12.6738 4.84375 15.5 4.84375C18.3262 4.84375 21.0367 5.96646 23.0351 7.96489C25.0335 9.96333 26.1562 12.6738 26.1562 15.5C26.1562 18.3262 25.0335 21.0367 23.0351 23.0351C21.0367 25.0335 18.3262 26.1562 15.5 26.1562ZM15.5 27.125C17.0266 27.125 18.5383 26.8243 19.9487 26.2401C21.3591 25.6559 22.6406 24.7996 23.7201 23.7201C24.7996 22.6406 25.6559 21.3591 26.2401 19.9487C26.8243 18.5383 27.125 17.0266 27.125 15.5C27.125 13.9734 26.8243 12.4617 26.2401 11.0513C25.6559 9.64089 24.7996 8.35936 23.7201 7.27988C22.6406 6.2004 21.3591 5.34411 19.9487 4.7599C18.5383 4.17569 17.0266 3.875 15.5 3.875C12.4169 3.875 9.45999 5.09977 7.27988 7.27988C5.09977 9.45999 3.875 12.4169 3.875 15.5C3.875 18.5831 5.09977 21.54 7.27988 23.7201C9.45999 25.9002 12.4169 27.125 15.5 27.125Z" fill="white"/>
</svg>
