<svg width="55" height="55" viewBox="0 0 55 55" fill="none" xmlns="http://www.w3.org/2000/svg">
<circle cx="27.5" cy="27.5" r="27.5" fill="#FFC700"/>
<g clip-path="url(#clip0_298_2079)">
<path d="M21.3046 31.2443C21.4929 33.6085 23.3615 35.4498 26.712 35.6678V37.4125H28.1989V35.6555C31.6684 35.4126 33.6956 33.5589 33.6956 30.8676C33.6956 28.4216 32.1442 27.1602 29.3711 26.5059L28.1989 26.2284V21.4777C29.6858 21.6462 30.6325 22.4591 30.8605 23.5842H33.4676C33.2792 21.3067 31.3264 19.5249 28.1989 19.3316V17.5869H26.712V19.3687C23.7505 19.6587 21.7308 21.4405 21.7308 23.9608C21.7308 26.1912 23.2326 27.6087 25.7281 28.1911L26.712 28.434V33.4746C25.1879 33.2442 24.1793 32.409 23.9513 31.2443H21.3046ZM26.6996 25.8765C25.2375 25.537 24.4444 24.8456 24.4444 23.8047C24.4444 22.64 25.2994 21.7676 26.712 21.5124V25.874H26.6996V25.8765ZM28.4145 28.833C30.1914 29.2444 31.0117 29.911 31.0117 31.0881C31.0117 32.4313 29.9906 33.3532 28.1989 33.5217V28.7834L28.4145 28.833Z" fill="white"/>
<path d="M27.5 44.8473C22.8992 44.8473 18.4868 43.0196 15.2336 39.7663C11.9803 36.5131 10.1526 32.1007 10.1526 27.4999C10.1526 22.8991 11.9803 18.4867 15.2336 15.2334C18.4868 11.9802 22.8992 10.1525 27.5 10.1525C32.1008 10.1525 36.5132 11.9802 39.7665 15.2334C43.0197 18.4867 44.8474 22.8991 44.8474 27.4999C44.8474 32.1007 43.0197 36.5131 39.7665 39.7663C36.5132 43.0196 32.1008 44.8473 27.5 44.8473ZM27.5 47.3255C32.7581 47.3255 37.8008 45.2367 41.5188 41.5187C45.2368 37.8007 47.3256 32.758 47.3256 27.4999C47.3256 22.2418 45.2368 17.1991 41.5188 13.4811C37.8008 9.76308 32.7581 7.67432 27.5 7.67432C22.2419 7.67432 17.1992 9.76308 13.4812 13.4811C9.7632 17.1991 7.67444 22.2418 7.67444 27.4999C7.67444 32.758 9.7632 37.8007 13.4812 41.5187C17.1992 45.2367 22.2419 47.3255 27.5 47.3255Z" fill="white"/>
<path d="M27.5 41.1301C23.8851 41.1301 20.4183 39.6941 17.8621 37.138C15.306 34.5818 13.87 31.115 13.87 27.5C13.87 23.8851 15.306 20.4183 17.8621 17.8621C20.4183 15.306 23.8851 13.87 27.5 13.87C31.115 13.87 34.5818 15.306 37.138 17.8621C39.6941 20.4183 41.1301 23.8851 41.1301 27.5C41.1301 31.115 39.6941 34.5818 37.138 37.138C34.5818 39.6941 31.115 41.1301 27.5 41.1301ZM27.5 42.3692C29.4527 42.3692 31.3862 41.9846 33.1902 41.2374C34.9943 40.4901 36.6334 39.3949 38.0141 38.0141C39.3949 36.6334 40.4901 34.9943 41.2374 33.1902C41.9846 31.3862 42.3692 29.4527 42.3692 27.5C42.3692 25.5474 41.9846 23.6139 41.2374 21.8099C40.4901 20.0058 39.3949 18.3667 38.0141 16.9859C36.6334 15.6052 34.9943 14.51 33.1902 13.7627C31.3862 13.0155 29.4527 12.6309 27.5 12.6309C23.5565 12.6309 19.7745 14.1974 16.9859 16.9859C14.1974 19.7745 12.6309 23.5565 12.6309 27.5C12.6309 31.4436 14.1974 35.2256 16.9859 38.0141C19.7745 40.8027 23.5565 42.3692 27.5 42.3692Z" fill="white"/>
</g>
<defs>
<clipPath id="clip0_298_2079">
<rect width="39.6512" height="39.6512" fill="white" transform="translate(7.67444 7.67432)"/>
</clipPath>
</defs>
</svg>
