<svg width="108" height="108" viewBox="0 0 108 108" fill="none" xmlns="http://www.w3.org/2000/svg">
<circle cx="54" cy="54" r="54" fill="#FFE600" fill-opacity="0.33"/>
<path d="M56.4562 27.9247C61.8165 28.6192 66.9742 30.7083 71.3098 33.9327C72.1814 34.6187 73.0786 35.2551 73.8638 36.0474C77.2328 39.1626 79.92 42.9951 81.6775 47.2371C83.0027 50.3992 83.7638 53.7625 84.0359 57.1782C84.9742 57.293 85.8855 57.4815 86.7458 57.8869C88.9484 58.8691 90.5839 60.8548 91.2501 63.1607C91.6228 64.5157 91.7547 65.96 91.4939 67.3489C91.0743 70.0078 89.5493 72.4697 87.3312 73.999C85.7806 75.0833 83.8602 75.704 81.9652 75.6544C81.2381 75.6474 80.5422 75.4277 79.8208 75.4007C79.5586 75.7083 79.363 76.0867 79.1461 76.4283C76.5014 80.6264 72.8291 84.1541 68.5673 86.6897C64.5846 89.0609 60.0775 90.5392 55.4627 90.987C53.8923 91.0863 52.363 91.2776 50.7884 91.0919C43.4622 90.7659 36.3217 87.7697 30.9246 82.8105C26.8101 79.0475 23.7189 74.1889 22.0606 68.8655C21.0558 65.6269 20.5554 62.2352 20.6334 58.8436C20.7071 53.1261 22.4093 47.4228 25.4438 42.5784C28.1509 38.2116 31.9507 34.5592 36.3855 31.9725C40.585 29.5234 45.3643 28.0494 50.2172 27.739C52.295 27.5307 54.3898 27.6866 56.4562 27.9247Z" fill="black"/>
<path d="M51.7777 28.5216C58.6474 28.3245 65.571 30.605 71.0263 34.7748C71.9547 35.3502 72.6874 36.1198 73.4868 36.8497C76.9351 40.0571 79.6096 44.071 81.2721 48.4746C82.3252 51.254 82.9531 54.1723 83.194 57.133C81.934 57.2379 80.7364 57.4647 79.5969 58.0373C79.2865 58.1833 79.329 58.7389 79.6933 58.7786C80.0263 58.8112 80.3991 58.5645 80.7194 58.4668C82.7915 57.7056 85.1584 57.8502 87.0662 58.9883C88.723 59.9493 89.9136 61.5622 90.4521 63.3905C90.8207 64.5598 90.832 65.8581 90.7016 67.0685C90.3473 69.5275 88.9512 71.8491 86.9131 73.2778C84.6865 74.8836 81.6449 75.3527 79.1277 74.1565C78.6784 73.9538 78.2859 73.6491 77.8408 73.4408C77.4227 73.2863 77.1492 73.8362 77.4581 74.114C77.9074 74.5052 78.4984 74.7546 79.0172 75.0438C76.1627 79.8839 72.0085 83.9304 67.0536 86.5907C62.7733 88.9023 57.9203 90.2091 53.0532 90.297C49.1372 90.399 45.2112 89.7244 41.5432 88.3524C37.2458 86.7594 33.3454 84.1812 30.1521 80.8973C26.9391 77.585 24.4942 73.5442 23.0372 69.1661C20.9169 62.8392 20.924 55.8419 23.0755 49.5234C24.6416 44.8378 27.3671 40.5645 30.9232 37.1375C35.1284 33.0655 40.5114 30.2578 46.2487 29.1055C48.0629 28.7483 49.9252 28.5045 51.7777 28.5216Z" fill="#FFAD61" fill-opacity="0.73"/>
<path d="M86.0812 61.8767C86.454 61.8626 86.5688 62.4153 86.274 62.5826C85.751 62.8419 85.1656 62.9752 84.6242 63.1991C83.7993 63.4882 83.0255 63.8737 82.2601 64.2933C82.8681 64.6249 83.5159 64.9651 84.0615 65.3931C84.4272 65.6893 84.7489 66.0096 84.8169 66.4986C84.7801 67.0074 84.43 67.427 84.0445 67.7303C83.214 68.3908 82.0716 68.7479 81.0979 69.1844C80.8499 69.2723 80.47 69.4665 80.3056 69.1476C80.161 68.901 80.2971 68.7068 80.5281 68.5991C81.4706 68.1314 82.6343 67.8026 83.4747 67.1591C83.6689 66.9975 83.9552 66.7707 83.9864 66.5043C83.4095 65.7063 82.2261 65.2868 81.4026 64.7907C81.071 64.547 81.0781 64.1898 81.3799 63.9219C82.4103 63.1226 83.7866 62.6095 85.004 62.1673C85.347 62.0496 85.717 61.8909 86.0812 61.8767Z" fill="black"/>
<path d="M55.6414 52.9306C58.7794 52.6542 61.94 54.0502 63.8208 56.5802C65.0454 58.2058 65.7016 60.2113 65.6917 62.2452C65.6534 64.0523 65.1219 65.8367 64.0958 67.332C62.8429 69.1873 60.8742 70.5918 58.6944 71.1162C56.3926 71.7058 53.8613 71.36 51.8104 70.1581C50.3322 69.3063 49.1194 68.0611 48.3068 66.561C47.2963 64.7454 46.9929 62.6236 47.3189 60.5813C47.6463 58.6565 48.5903 56.8594 49.9991 55.5058C51.5276 54.0239 53.5204 53.1143 55.6414 52.9306Z" fill="black"/>
<path d="M55.3594 53.778C57.6101 53.5002 59.8509 54.1026 61.6367 55.5001C63.6833 57.0804 64.9362 59.6556 64.8682 62.2451C64.8753 65.4979 62.8216 68.6004 59.8296 69.8731C58.3258 70.5294 56.6562 70.766 55.0376 70.4712C52.7132 70.0971 50.5745 68.6812 49.3187 66.6898C48.525 65.4468 48.08 64.0054 47.9907 62.5356C47.9057 60.4862 48.5902 58.4027 49.8913 56.8153C51.2307 55.15 53.2419 54.0416 55.3594 53.778Z" fill="white"/>
<path d="M31.5455 56.1636C33.1782 55.9964 34.8719 56.355 36.2878 57.1898C38.024 58.1947 39.3308 59.8954 39.8609 61.8301C40.3074 63.4501 40.2209 65.2274 39.5973 66.7893C38.9354 68.4773 37.6641 69.9103 36.0681 70.7706C34.6452 71.543 32.9713 71.8633 31.3655 71.6422C29.1289 71.3843 27.0653 70.0832 25.8379 68.201C25.0527 67.0217 24.6389 65.6455 24.5467 64.2367C24.5028 62.458 25.03 60.6778 26.1044 59.252C27.3885 57.5186 29.3996 56.3819 31.5455 56.1636Z" fill="black"/>
<path d="M31.1217 57.0421C32.7162 56.753 34.3674 57.0393 35.7776 57.8358C38.2905 59.2262 39.7702 62.2324 39.2387 65.0684C38.9921 66.534 38.2778 67.9017 37.2034 68.9306C36.0554 70.0574 34.5247 70.7377 32.9274 70.8823C30.0715 71.1445 27.234 69.4877 26.0335 66.8883C24.9351 64.5951 25.2185 61.7845 26.7478 59.7549C27.7938 58.3319 29.3855 57.3554 31.1217 57.0421Z" fill="white"/>
<path d="M52.1279 59.0547C53.8315 58.6493 55.6556 59.6556 56.2892 61.2728C56.6024 62.1232 56.618 63.0728 56.2778 63.9175C55.8314 65.0981 54.733 65.9896 53.4857 66.181C52.3363 66.3808 51.1131 65.9755 50.301 65.1392C49.3103 64.1344 48.9956 62.5739 49.5271 61.2643C49.9608 60.1375 50.953 59.3126 52.1279 59.0547ZM33.9564 60.5939C35.6955 60.231 37.4643 61.4173 37.8002 63.1564C37.8938 63.9544 37.8782 64.7651 37.4204 65.4553C36.7415 66.5906 35.3851 67.2638 34.0712 67.0342C32.5604 66.7918 31.3797 65.4794 31.3315 63.9459C31.2423 62.3499 32.3875 60.8944 33.9564 60.5939Z" fill="black"/>
<path d="M41.5772 48.9011C41.6708 49.5587 41.3632 50.2263 40.9806 50.7436C40.4703 51.3757 39.8736 51.9285 39.1593 52.3211C38.0736 52.9376 36.8972 53.4138 35.7308 53.8532C32.359 55.099 28.8483 55.9934 25.3106 56.6141C24.8358 56.6907 24.3228 56.8267 23.8423 56.7715C23.5702 56.6411 23.5588 56.3718 23.685 56.1308C24.0166 55.8757 24.4631 55.7453 24.8457 55.5795C29.9396 53.4932 35.0335 51.4055 40.1245 49.3149C40.6007 49.1378 41.0585 48.8359 41.5772 48.9011ZM45.3955 48.9223C52.3857 50.0009 59.3817 51.0696 66.3733 52.1467C66.739 52.2063 67.1287 52.229 67.4802 52.3466C67.8261 52.5082 67.7212 53.0609 67.3442 53.0921C65.985 53.2267 64.6258 53.3501 63.258 53.3685C61.0768 53.3827 58.9154 53.4138 56.7412 53.2012C53.7776 52.9688 50.7544 52.5507 47.9183 51.6337C46.9305 51.2921 45.8094 50.8598 45.0454 50.1256C44.7917 49.8564 44.4657 49.519 44.5961 49.1151C44.7691 48.8132 45.1064 48.8897 45.3955 48.9223Z" fill="black"/>
<path d="M51.378 73.1937C51.5977 73.1399 51.85 73.052 52.0768 73.0888C52.3602 73.1994 52.3645 73.5155 52.2242 73.7465C51.6402 74.1178 50.8069 74.1447 50.2031 74.4395C50.6878 76.3473 50.736 78.3358 50.2045 80.2407C49.741 81.9684 48.756 83.6451 47.2678 84.6769C46.2686 85.3827 45.0568 85.7271 43.8365 85.6038C42.2037 85.4479 40.7609 84.443 39.7928 83.1547C38.4464 81.3688 37.9007 79.1975 37.8823 76.9851C37.9305 76.1885 38.0212 75.3962 38.1813 74.6139C37.8412 74.5033 37.3891 74.4537 37.1184 74.2114C37.039 74.037 37.09 73.8074 37.0829 73.6189C37.7236 73.6161 38.2593 73.8542 38.8773 73.9818C43.0654 74.8251 47.3089 74.4126 51.378 73.1937Z" fill="black"/>
<path d="M49.3597 74.5913C50.1009 77.1014 49.8231 80.0381 48.4115 82.269C47.8261 83.1874 47.0395 83.9641 46.0403 84.419C44.9079 84.9477 43.5515 84.9052 42.4403 84.3397C41.2979 83.7713 40.3753 82.7225 39.7899 81.6028C38.7156 79.5236 38.452 77.066 39.0075 74.7954C40.4901 75.1483 41.9938 75.2277 43.5104 75.2589C43.3686 76.2141 43.3743 77.1567 43.3431 78.119C43.3446 78.3897 43.3205 78.6987 43.4126 78.9581C43.5685 79.2004 44.0731 79.1282 44.0872 78.8078C44.1694 77.6159 44.0688 76.4338 44.3012 75.2461C45.9992 75.2107 47.7 74.9329 49.3597 74.5913Z" fill="#EA869E"/>
<path d="M58.3116 17.0495C58.6943 16.8936 59.0004 17.1246 59.1294 17.479C59.4866 18.5618 59.2626 19.8076 58.8941 20.8607C59.8125 20.3519 60.7919 19.9834 61.8422 19.8785C64.1623 19.605 66.4485 20.2102 68.4851 21.3043C70.1491 22.2001 71.5281 23.3977 72.8576 24.7257C74.2182 26.0949 75.8722 27.4484 77.7218 28.0749C78.7905 28.4576 79.9626 28.4845 81.0483 28.1599C81.3374 28.1018 81.7839 27.9232 82.0163 28.1783C82.27 28.3895 82.1283 28.7765 82.0744 29.0514C81.5869 30.6842 80.8527 32.1922 79.434 33.2113C81.2977 33.9865 82.8455 35.3968 83.7809 37.1869C84.7688 39.0804 85.2422 41.2617 85.177 43.3947C85.2025 44.9013 84.9062 46.3739 84.4442 47.8012C85.5639 48.9761 86.2003 50.5791 86.3675 52.1793C86.5674 54.1182 86.1507 56.1861 85.2634 57.918C85.1458 58.176 84.8935 58.0853 84.6639 58.0881C84.0488 58.0215 83.4351 57.979 82.8143 58.0102C81.9979 58.0357 81.1872 58.2908 80.4332 58.5913C80.1384 58.6961 79.879 58.8237 79.5559 58.7585C78.5042 58.5672 77.6354 57.979 76.6078 57.6445C77.0557 58.2596 77.5064 58.8889 77.8692 59.5593C77.9755 59.7719 78.1059 60.0199 78.1116 60.2609C78.0833 60.5954 77.6184 60.7144 77.4455 60.3955C76.8856 59.3708 76.2804 58.39 75.5222 57.4957C75.1508 57.1343 75.5774 56.6113 76.0125 56.6949C76.6135 56.7898 77.1903 57.0719 77.7672 57.2618C77.2669 56.5432 76.7524 55.7991 76.1444 55.167C75.8467 54.8538 75.4655 54.6199 75.1848 54.2925C75.1551 54.0941 75.2132 53.8971 75.2642 53.7072C75.9389 51.6932 75.8864 49.4354 75.3833 47.3887C74.9552 45.6823 74.2366 44.0708 73.0815 42.73C72.3459 42.4168 71.6203 42.0922 70.9428 41.6628C69.3398 40.7004 68.0033 39.3823 66.4343 38.3902C64.3862 37.0607 61.5998 36.9658 59.4185 38.0217C59.2017 38.1039 58.9707 38.0826 58.9097 37.8247C58.7141 37.442 58.9806 37.1982 59.1677 36.8906C59.848 35.9439 60.5552 35.0155 61.2752 34.0985C60.2548 34.6768 59.3278 35.401 58.4888 36.2188C58.1089 36.5817 57.8269 37.0139 57.5689 37.4689C57.3322 37.5001 57.0984 37.5341 56.8588 37.544C56.5244 37.1372 56.4365 36.6752 55.9532 36.3832C55.0603 35.7936 53.7747 35.8588 52.7684 36.0417C50.0954 36.576 47.4677 37.4746 44.6911 37.5554C43.091 37.5894 41.5291 37.2393 40.1954 36.3294C39.1466 37.0395 38.0382 37.5936 36.781 37.8204C34.767 38.1946 32.6113 37.9763 30.644 37.4448C29.5669 38.3065 28.8299 39.3624 27.9667 40.4198C27.1007 41.5409 26.2404 42.7229 25.5885 43.9829C25.4552 44.2083 25.3333 44.5059 25.1179 44.6618C24.5212 45.0275 23.8437 45.216 23.1478 45.2599C21.9559 45.3492 20.6718 45.1664 19.681 44.452C18.8094 43.8341 18.302 42.876 18.1135 41.8385C17.8555 40.4509 18.054 38.9684 18.5401 37.6503C18.6421 37.33 19.0447 37.2053 19.2318 37.5157C19.5492 38.1521 19.6867 38.7558 20.4237 39.0421C21.0842 39.2476 21.8949 38.8848 22.51 38.641C21.1296 37.3895 20.547 35.5116 20.7596 33.6832C21.0743 30.8231 22.6546 28.0749 24.6303 26.0297C26.2433 24.3246 28.2998 23.1327 30.5859 22.5955C31.4788 22.3957 32.4412 22.1476 33.3582 22.2015C33.6927 22.2029 33.7962 22.6933 33.5354 22.8818C32.2995 23.9902 31.8814 25.8525 32.2711 27.4357C32.7403 26.6349 33.1881 25.8341 33.7905 25.1226C35.9675 22.4793 39.3507 20.9585 42.7055 20.5659C44.025 20.3646 45.3431 20.3944 46.6711 20.2909C49.9763 20.2087 53.2985 19.7637 56.2976 18.2925C57.019 17.9566 57.5973 17.3812 58.3116 17.0495Z" fill="black"/>
<path d="M58.4166 17.9126C58.6278 18.9161 58.3939 20.0145 57.9616 20.9315C57.8355 21.2391 57.4698 21.6047 57.6399 21.9435C57.7334 22.0838 57.9928 22.2553 58.1572 22.1504C58.7171 21.8641 59.2273 21.4928 59.8126 21.2476C61.0712 20.6565 62.4517 20.512 63.8265 20.6594C66.2941 20.9357 68.5263 22.037 70.427 23.606C71.5906 24.5272 72.5345 25.6568 73.6755 26.5994C74.876 27.5986 76.2139 28.4844 77.7234 28.9337C78.8898 29.3065 80.0832 29.2909 81.2582 28.962C80.8755 30.0803 80.3652 31.2935 79.4837 32.1142C79.1067 32.4813 78.646 32.6967 78.2138 32.9844C77.9898 33.1828 77.9473 33.3798 78.1032 33.6435C78.5766 33.7951 79.0599 33.8532 79.5134 34.0786C80.6657 34.6455 81.689 35.4973 82.4331 36.5461C83.5145 38.0797 84.1126 39.9817 84.3167 41.8356C84.4528 43.5704 84.355 45.2953 83.8419 46.9663C83.7498 47.2852 83.5868 47.5913 83.5287 47.9173C83.8703 48.3865 84.3408 48.7323 84.6172 49.2624C85.9977 51.6265 85.8248 54.4115 84.8454 56.8876C84.7674 57.0109 84.7249 57.3369 84.5237 57.2632C83.1772 57.0746 81.8421 57.2433 80.575 57.7309C80.293 57.8287 80.0024 57.9888 79.7034 58.0158C79.4837 57.9746 79.2753 57.9052 79.0627 57.8372C78.2308 56.4652 77.2641 55.0876 76.0297 54.0472C77.2117 50.3863 76.4308 46.1598 74.2722 43.012C75.861 43.2813 77.3619 42.8787 78.7906 42.2041C79.2527 41.9745 79.7686 41.7831 80.1796 41.4685C80.4574 41.1595 80.198 40.774 79.8238 40.7613C78.3456 40.7244 77.0416 39.6813 76.1274 38.5998C75.4174 37.7112 74.6931 36.7332 74.815 35.5328L74.4578 35.4137C74.3345 35.4619 74.2126 35.5087 74.0908 35.5569C73.8583 36.3279 74.146 36.9912 74.4933 37.6672C75.4216 39.3156 76.7936 40.6876 78.5709 41.3962C77.4952 41.9291 76.2366 42.3572 75.0219 42.282C73.8569 42.2154 72.706 41.7406 71.704 41.1638C70.0471 40.217 68.7474 38.957 67.1898 37.9011C66.2572 37.2704 65.2325 36.8083 64.1128 36.6411C62.8089 36.4654 61.4341 36.505 60.1741 36.9132C60.8813 35.9296 61.6126 34.9573 62.4035 34.0389C62.6005 33.8065 62.8074 33.5698 62.9719 33.3118C63.1235 33.1219 63.03 32.7931 63.0271 32.5677C62.7267 32.5564 62.4645 32.5408 62.1937 32.6924C60.3257 33.608 58.4421 34.9049 57.1991 36.5943C56.798 36.0458 56.3204 35.6107 55.667 35.391C54.39 34.9545 52.9216 35.1557 51.6361 35.4548C49.0537 36.009 46.3566 36.9076 43.7005 36.6964C41.9856 36.5972 40.3202 35.7071 39.2884 34.3351C37.9972 32.5365 37.8073 29.9953 38.815 28.0224C39.6016 26.3981 40.9282 25.1282 42.5326 24.3175C42.4589 24.9907 42.4193 25.6285 42.6857 26.2705C43.0726 27.2981 43.9344 28.0592 44.9719 28.3894C46.2815 28.809 47.703 28.8756 49.0126 29.315C49.2578 29.3872 49.5371 29.5134 49.795 29.4879C49.9892 29.4709 50.0657 29.2072 50.172 29.0754C49.9552 28.8671 49.7383 28.6814 49.4463 28.5879C48.2926 28.191 47.0171 28.0479 45.8265 27.7857C45.3361 27.6652 44.8372 27.5079 44.4191 27.2173C43.5843 26.6532 43.1137 25.5633 43.3419 24.5726C43.5177 23.949 44.0775 23.8157 44.4772 23.3069C44.4191 23.1666 44.361 23.0263 44.3029 22.8846C43.6438 22.8038 42.9848 23.2375 42.3867 23.4912C40.2465 24.4748 38.5188 26.2762 37.7293 28.5071C36.8322 31.0186 37.5422 34.0899 39.5761 35.8502C39.0531 36.162 38.5287 36.4597 37.9589 36.6794C36.6011 37.2265 35.0761 37.2364 33.6361 37.14C31.0991 36.9699 28.6571 36.1167 26.7323 34.4244C26.4432 34.1537 26.2759 33.7965 25.9982 33.5216C25.6991 33.4819 25.5262 33.591 25.5092 33.8986C25.5219 34.4258 25.9996 34.8879 26.3766 35.2068C27.3985 36.0317 28.5493 36.7049 29.7739 37.1783C29.2807 37.663 28.7988 38.1548 28.3651 38.6934C27.1533 40.1617 25.8777 41.7024 24.9791 43.3847C24.7552 43.8014 24.5582 44.1756 24.0734 44.3287C23.0515 44.6348 21.7972 44.5795 20.8079 44.1742C20.0582 43.8765 19.4771 43.277 19.1709 42.5343C18.6975 41.4387 18.7755 40.1135 18.9824 38.9641C19.3892 39.3255 19.7463 39.7479 20.3133 39.8513C21.2473 40.0271 22.1005 39.7209 22.9396 39.3454C23.2301 39.2107 23.4739 39.0335 23.5504 38.7047C23.5519 38.4298 23.2415 38.2682 23.0643 38.0939C22.2593 37.4306 21.7873 36.4767 21.603 35.4619C21.4004 34.1211 21.6399 32.82 22.0878 31.5557C22.8715 29.3688 24.2704 27.3846 26.0024 25.8439C27.7358 24.3061 29.9114 23.4274 32.1933 23.1142C31.6022 24.2324 31.2011 25.3847 31.3301 26.6717C31.4038 27.2287 31.4874 27.8863 31.795 28.3696C32.0232 28.5865 32.3322 28.9195 32.6624 28.6828C33.0933 27.2669 33.9309 26.065 34.9514 25.0091C36.9484 23.049 39.5393 21.8754 42.2889 21.4431C43.9032 21.2107 45.4793 21.1455 47.1049 21.1016C50.42 20.9613 53.6076 20.5134 56.6208 19.045C57.2643 18.7304 57.8185 18.2981 58.4166 17.9126Z" fill="black"/>
<path d="M76.6871 59.7208C77.0117 60.2183 77.2356 60.7866 77.4893 61.3238C77.6083 61.6413 77.8139 61.9531 77.6027 62.2805C77.4369 62.3485 77.2852 62.3712 77.1208 62.2848C76.8515 61.9163 76.7169 61.44 76.5156 61.0304C76.3087 60.5287 75.9841 60.1772 76.0578 59.6018C76.269 59.6004 76.5539 59.4955 76.6871 59.7208Z" fill="black"/>
</svg>
