<svg width="120" height="120" viewBox="0 0 120 120" fill="none" xmlns="http://www.w3.org/2000/svg">
<circle cx="60" cy="60" r="60" fill="#FFC4C4"/>
<path d="M60.2805 26.7824C65.9399 27.5783 71.3854 29.9726 75.9629 33.6679C76.8832 34.4541 77.8304 35.1834 78.6595 36.0914C82.2164 39.6616 85.0536 44.0537 86.9092 48.9153C88.3083 52.5391 89.1119 56.3936 89.3992 60.3082C90.3899 60.4398 91.3521 60.6558 92.2604 61.1204C94.5858 62.246 96.3127 64.5217 97.016 67.1645C97.4096 68.7173 97.5487 70.3725 97.2734 71.9643C96.8304 75.0115 95.2203 77.8329 92.8784 79.5856C91.2413 80.8282 89.2137 81.5396 87.213 81.4828C86.4453 81.4747 85.7106 81.2229 84.9489 81.192C84.6721 81.5445 84.4655 81.9782 84.2366 82.3697C81.4443 87.1809 77.5671 91.2238 73.0673 94.1297C68.8624 96.8471 64.1038 98.5413 59.2315 99.0546C57.5735 99.1683 55.9588 99.3876 54.2963 99.1748C46.5613 98.8012 39.0224 95.3674 33.324 89.6839C28.9799 85.3714 25.7162 79.8032 23.9654 73.7023C22.9045 69.9908 22.3762 66.1038 22.4585 62.2168C22.5364 55.6643 24.3336 49.1281 27.5374 43.5762C30.3955 38.5717 34.4074 34.3858 39.0897 31.4215C43.5236 28.6146 48.5695 26.9254 53.6932 26.5696C55.887 26.3309 58.0987 26.5095 60.2805 26.7824Z" fill="black"/>
<path d="M55.3402 27.4666C62.5933 27.2409 69.9033 29.8544 75.663 34.6331C76.6432 35.2926 77.4168 36.1746 78.2608 37.0111C81.9016 40.6869 84.7253 45.287 86.4806 50.3337C87.5925 53.519 88.2554 56.8634 88.5098 60.2566C87.1794 60.3768 85.915 60.6367 84.7119 61.2929C84.3842 61.4603 84.429 62.097 84.8136 62.1425C85.1653 62.1798 85.5588 61.8972 85.897 61.7851C88.0848 60.9129 90.5838 61.0785 92.598 62.3829C94.3473 63.4841 95.6043 65.3326 96.1729 67.428C96.562 68.768 96.574 70.2559 96.4363 71.6431C96.0622 74.4613 94.5882 77.1219 92.4364 78.7592C90.0855 80.5995 86.8742 81.1372 84.2165 79.7663C83.7422 79.534 83.3277 79.1848 82.8578 78.946C82.4164 78.7689 82.1276 79.3992 82.4538 79.7175C82.9281 80.1658 83.5521 80.4517 84.0998 80.7831C81.086 86.3301 76.7001 90.9675 71.4686 94.0164C66.9494 96.6656 61.8257 98.1632 56.687 98.2639C52.5524 98.3809 48.4073 97.6077 44.5346 96.0354C39.9974 94.2096 35.8793 91.255 32.5079 87.4915C29.1155 83.6955 26.5342 79.0646 24.9959 74.0471C22.7572 66.7961 22.7647 58.7769 25.0363 51.5357C26.6898 46.1657 29.5674 41.2684 33.3219 37.3408C37.7618 32.6742 43.4452 29.4564 49.5027 28.1358C51.4181 27.7265 53.3844 27.4471 55.3402 27.4666Z" fill="#FDD5B0"/>
<path d="M91.5589 65.6942C91.9525 65.6779 92.0737 66.3114 91.7624 66.5031C91.2103 66.8003 90.5922 66.953 90.0206 67.2096C89.1497 67.541 88.3327 67.9828 87.5246 68.4636C88.1666 68.8437 88.8504 69.2335 89.4265 69.7241C89.8126 70.0636 90.1523 70.4307 90.2241 70.991C90.1852 71.5742 89.8156 72.055 89.4086 72.4026C88.5317 73.1595 87.3256 73.5688 86.2975 74.0691C86.0357 74.1698 85.6346 74.3924 85.461 74.0269C85.3084 73.7443 85.4521 73.5217 85.696 73.3983C86.6911 72.8622 87.9196 72.4854 88.807 71.748C89.012 71.5628 89.3143 71.3029 89.3472 70.9975C88.7382 70.083 87.4887 69.6023 86.6193 69.0337C86.2691 68.7544 86.2766 68.345 86.5953 68.038C87.6832 67.1219 89.1362 66.5339 90.4217 66.0271C90.7838 65.8923 91.1744 65.7104 91.5589 65.6942Z" fill="black"/>
<path d="M59.2712 55.4558C61.0265 55.2658 62.8327 55.5988 64.4279 56.4174C66.1143 57.2783 67.5673 58.6768 68.546 60.4002C69.8209 62.5963 70.3133 65.3495 69.8599 67.9013C69.4678 70.3784 68.2063 72.6492 66.4136 74.2313C63.9475 76.4403 60.5207 77.1615 57.4635 76.1642C55.0483 75.3845 52.9488 73.5637 51.7308 71.1678C50.6204 69.0627 50.2792 66.5824 50.6339 64.1995C50.9751 62.0343 51.9418 60.012 53.3873 58.4722C54.969 56.7699 57.052 55.6962 59.2712 55.4558Z" fill="black"/>
<path d="M59.1153 56.4123C60.51 56.2531 61.9151 56.3554 63.238 56.8866C65.3629 57.7069 67.166 59.3994 68.1881 61.5857C69.0695 63.4212 69.3493 65.5328 69.0575 67.5729C68.7298 69.6163 67.826 71.533 66.4403 72.9673C65.0217 74.486 63.0703 75.42 61.0966 75.6425C58.7981 75.8797 56.4442 75.1049 54.653 73.526C53.2374 72.3078 52.2707 70.6396 51.6901 68.7977C50.903 65.8707 51.4447 62.5977 53.1476 60.1677C54.5647 58.1064 56.7674 56.7323 59.1153 56.4123Z" fill="white"/>
<path d="M54.9257 62.4237C56.0196 62.1168 57.2482 62.4676 58.0488 63.3366C58.9601 64.2657 59.3087 65.7828 58.8867 67.0644C58.3645 68.882 56.4132 69.9817 54.7507 69.3514C53.0373 68.8073 52.0317 66.7379 52.5659 64.8878C52.9026 63.6631 53.7959 62.7584 54.9257 62.4237ZM26.7542 64.2397C28.9135 64.3615 31.0609 64.4882 33.1963 64.8748C36.3582 65.4303 39.6099 66.3318 42.492 67.8749C42.9185 68.1348 42.8586 68.4093 42.7314 68.8593C42.3693 68.8674 42.0715 68.8203 41.7273 68.6952C40.0588 68.1462 38.3514 67.8425 36.635 67.5322C35.0713 67.2983 33.5584 67.0141 31.9961 66.928C30.3546 66.7493 28.7205 66.811 27.061 66.8208C26.7662 66.8045 26.3098 66.9215 26.0733 66.6989C25.9596 66.3513 26.19 65.9371 26.2709 65.5977C26.1302 65.3426 25.81 65.0373 25.9117 64.7157C26.0419 64.3258 26.413 64.2397 26.7542 64.2397Z" fill="black"/>
<path d="M58.4879 48.0073C62.1841 48.16 65.6767 49.4643 68.8805 51.4168C69.2187 51.6312 69.6168 51.8212 69.8966 52.1201C70.0911 52.5083 69.8397 52.9534 69.4177 52.8007C66.9367 51.792 64.3958 51.2365 61.777 50.8482C58.7393 50.4682 55.8034 50.2505 52.7686 50.8271C52.2898 50.8986 51.7406 51.178 51.2602 51.0854C50.8622 50.8109 51.0807 50.0946 51.4533 49.8883C53.4929 48.3728 56.0607 47.9229 58.4879 48.0073ZM37.981 50.9993C38.5063 51.1033 38.9687 51.3112 39.4221 51.6133C39.3996 51.8082 39.3832 52.0031 39.3727 52.2013C38.9687 52.3215 38.5557 52.3832 38.1396 52.419C36.1689 52.6058 34.1816 53.249 32.3321 53.9929C30.5019 54.7645 28.6239 55.7212 27.0662 57.032C26.6442 57.3617 26.4481 57.8149 25.8571 57.7581C25.7822 57.6119 25.7074 57.4673 25.6311 57.3244C25.7643 57.0661 25.8825 56.8095 26.0441 56.5707C27.4732 54.4315 29.5816 52.799 31.8218 51.8033C33.7222 50.9668 35.9534 50.4958 37.981 50.9993Z" fill="black"/>
<path d="M55.4942 78.0811C55.5555 78.2078 55.6139 78.3361 55.6648 78.466C55.7351 78.8981 55.373 79.0037 55.0946 79.171C54.4991 79.4585 53.89 79.7232 53.281 79.9799C50.6383 81.0064 47.9852 81.7845 45.1644 81.9193C44.1917 82.0005 43.228 82.02 42.2554 81.9258C41.5221 81.8332 40.7365 81.8235 40.0302 81.5961C39.6785 81.4531 39.6217 80.9577 39.9703 80.7725C40.3714 80.7531 40.7904 80.9074 41.1944 80.9382C42.2718 81.0828 43.3343 81.0373 44.4177 81.0373C47.7831 80.9139 51.1546 79.9344 54.2492 78.5229C54.6622 78.3296 55.0303 78.1022 55.4942 78.0811Z" fill="black"/>
<path d="M59.209 17.4409C63.4169 18.4999 67.0083 21.0956 69.9293 24.4937C70.9289 24.5586 71.8732 24.5798 72.8473 24.8396C74.2869 25.1759 75.6501 25.7899 76.9221 26.5906C79.7458 28.3953 81.9441 31.0786 83.5198 34.1746C85.2915 34.9786 86.8149 36.5217 88.0539 38.0827C89.9634 40.5061 91.4762 43.3438 92.6225 46.2708C94.0142 49.8524 94.9524 53.7654 94.9764 57.6686C94.924 59.2946 94.7609 61.1885 94.0411 62.6439C93.86 63.0435 93.5817 63.0191 93.2749 62.7836C91.8758 61.606 89.8975 61.0196 88.1452 61.2096C88.3891 63.789 87.9058 66.3587 86.9092 68.701C85.534 71.9967 83.2145 75.0065 80.289 76.7884C79.6875 77.1425 79.047 77.4901 78.3796 77.6623C78.1162 77.7143 77.9352 77.6168 77.8723 77.3244C77.8648 76.998 78.1327 76.6747 78.2853 76.4067C78.7896 75.6189 79.1652 74.706 79.4899 73.8159C80.1723 71.8911 80.6212 69.8607 80.9175 67.8271C81.3066 64.8822 81.4922 61.7635 80.8113 58.8528C80.1873 59.3319 79.5543 59.9394 78.839 60.2415C78.4365 60.2448 78.2793 59.8273 78.3856 59.457C78.5427 58.9421 78.8061 58.4775 78.9437 57.9513C79.6141 55.4661 79.3104 52.9191 78.4784 50.5298C78.1132 52.0323 77.6778 53.7443 76.7635 54.969C76.7784 55.8299 76.8577 56.7671 76.6812 57.6118C76.5181 58.0552 76.2113 57.974 75.8941 57.7726C72.3221 55.4108 68.6005 53.7086 64.7308 52.0306C60.7473 50.3089 56.906 48.2297 53.2129 45.868C51.8017 44.973 50.4654 43.9594 49.1561 42.9004C49.834 44.2957 50.6705 45.5821 51.6297 46.7646C52.5993 47.9487 53.6049 49.0614 54.808 49.9678C55.1043 50.1919 55.4485 50.395 55.7014 50.6743C55.7672 51.0967 55.4695 51.532 55.0774 51.5953C54.3382 51.8 53.5526 51.8357 52.7954 51.9332C51.8032 52.0599 50.8201 51.9835 49.8325 51.8617C47.8707 51.6944 45.9253 51.1421 44.0907 50.382C40.1297 48.7284 36.447 45.8209 34.0333 42.0021C32.3468 43.7726 30.9537 46.2789 31.2245 48.9136C31.2305 49.2677 31.0809 49.7858 30.6589 49.6705C29.0876 49.2547 27.8052 48.2915 26.6664 47.0749C25.9766 48.2996 25.4992 49.6234 25.0787 50.9781C24.2168 53.8856 23.6152 56.902 23.3728 59.9459C23.28 60.9709 23.4177 61.9633 23.2516 62.9834C22.9239 62.9688 22.6411 63.011 22.3762 62.7576C21.0489 61.619 20.2603 59.7949 19.9296 58.026C19.4073 55.1851 19.7919 52.2093 20.7496 49.5243C21.6205 47.1236 22.9478 44.934 24.8019 43.2951C24.2767 40.8375 24.5954 38.2776 25.7162 36.0685C27.0331 33.4144 29.3151 31.4295 31.9533 30.5101C32.7943 27.8154 34.6304 25.6632 36.9603 24.3946C39.1256 23.217 41.68 22.6192 44.0967 22.8239C45.8101 20.4881 48.149 18.8865 50.7288 17.9087C53.4119 16.8204 56.4332 16.7684 59.209 17.4409Z" fill="black"/>
<path d="M63.341 20.1012C66.9234 22.1446 69.9626 25.4907 72.2372 29.0902C74.4354 32.4996 75.9288 36.2323 77.1484 40.1599C77.2861 40.5205 77.3983 40.7479 77.8083 40.6455C78.1361 40.2671 77.946 39.8756 77.8413 39.4435C77.3055 37.7364 76.686 36.0585 76.0052 34.4147C74.6569 31.1807 72.8776 28.1562 70.7497 25.4615C71.667 25.5654 72.5664 25.684 73.4538 25.9731C75.9438 26.7544 78.1181 28.3365 79.9018 30.3571C82.4472 33.2565 84.1427 37.0249 84.8595 40.9428C85.5882 44.9792 85.3278 49.1553 83.7775 52.9351C82.8483 55.1994 81.4656 57.1469 79.6459 58.6494C79.8973 57.7999 80.0993 56.9406 80.1233 56.044C80.2804 53.6189 79.845 51.0639 78.6718 48.9718C78.7436 47.9761 78.7406 46.9592 78.6418 45.9652C78.6089 45.7004 78.5625 45.3528 78.3635 45.1676C78.142 44.9337 77.7051 45.1384 77.7305 45.486C77.735 45.8109 77.7874 46.1422 77.8218 46.4655C78.0822 48.9506 77.5884 51.3693 76.6606 53.6352C76.2236 50.1283 75.3063 46.6311 73.7845 43.4897C72.8911 41.6494 71.7299 40.038 70.4998 38.4527C70.3128 38.2237 70.1183 37.9784 69.8863 37.8046C69.7052 37.7591 69.5062 37.7673 69.3207 37.7591C69.3087 38.0872 69.2159 38.3374 69.4553 38.5973C70.2859 39.606 71.0685 40.6553 71.7912 41.7566C73.4508 44.3067 74.5417 47.3426 75.218 50.3638C75.7433 52.4445 76.0306 54.5708 76.0111 56.7311C72.8866 54.7511 69.5975 53.1349 66.241 51.6795C63.8124 50.6269 61.4016 49.537 59.0672 48.2506C55.2229 46.1325 51.5013 43.9429 48.2317 40.8551C47.1198 39.7635 46.0005 38.4267 45.4229 36.908C45.2224 36.411 45.4244 35.9984 45.396 35.4965C45.1326 35.1992 44.6567 35.3405 44.5684 35.7401C44.4008 36.4451 44.6492 37.2637 44.9545 37.8907C45.7057 39.4403 46.7607 40.6634 47.9473 41.8264C48.0401 42.3332 48.1643 42.8286 48.3783 43.2915C49.3106 45.2976 50.587 46.995 52.0475 48.5722C52.7808 49.399 53.6083 50.0925 54.4538 50.7764C52.3812 51.1565 50.2174 51.0915 48.1539 50.6675C43.9654 49.8067 39.9984 47.57 36.9547 44.3262C34.8522 42.0603 33.2181 39.312 32.5777 36.1397C32.3876 34.9621 32.2215 33.8185 32.4235 32.6263C32.6779 30.0485 33.9948 27.7095 35.9191 26.194C38.1728 24.4057 40.8094 23.7706 43.5599 23.6601C43.0346 24.7744 42.451 25.939 42.4001 27.2108C42.644 27.4334 42.9538 27.742 43.1424 27.2628C43.5284 24.8897 44.8243 22.9568 46.5272 21.4673C48.5265 19.7114 51.021 18.5581 53.5484 18.0822C56.9573 17.5494 60.3078 18.4054 63.341 20.1012ZM31.6963 31.59C31.0663 34.9994 31.9402 38.2919 33.5503 41.2173C31.6798 43.1064 30.2163 45.7524 30.3211 48.6063C29.5699 48.2701 28.8501 47.8721 28.2111 47.3198C26.8344 46.1568 25.8647 44.4302 25.549 42.5671C25.2288 40.9899 25.4397 39.2779 25.9455 37.7738C26.9227 34.9052 29.0865 32.6848 31.6963 31.59Z" fill="#85C2C6"/>
<path d="M84.1568 35.563C86.1695 36.9696 87.7796 38.9968 89.1085 41.1376C91.3965 44.8963 93.0141 49.178 93.7698 53.6091C94.1918 56.3152 94.3639 59.1285 93.4885 61.7567C91.8813 60.644 89.8731 60.0495 87.9712 60.2932C87.8305 59.9082 87.7557 59.2568 87.3801 59.0619C87.0434 59.0148 86.8414 59.2633 86.8938 59.6109C87.0569 60.3744 87.2843 61.1021 87.3262 61.8915C87.4893 64.2743 86.8354 66.7677 85.8717 68.8923C84.4785 71.9086 82.2309 74.6992 79.4237 76.2228C80.7255 73.5459 81.4438 70.4646 81.8314 67.4807C82.0259 66.1179 82.0663 64.7291 82.1411 63.3534C82.0843 61.5617 82.0095 59.853 81.5246 58.1279C84.6147 54.842 86.1216 49.9544 86.0827 45.3235C86.1575 41.9806 85.4243 38.6005 84.1568 35.563ZM25.077 44.2482C25.3658 44.9596 25.6875 45.6386 26.0945 46.2786C25.5229 47.2272 25.0934 48.2505 24.7148 49.3031C23.8499 51.7931 23.2543 54.3644 22.8473 56.986C22.6213 58.5162 22.4492 60.0495 22.4582 61.6007C21.7594 60.7415 21.2925 59.8237 20.9843 58.7273C20.3722 56.5767 20.4665 54.1516 20.9409 51.9799C21.5903 49.0675 22.9924 46.2445 25.077 44.2482Z" fill="#85C2C6"/>
<path d="M100.953 63.0503C103.56 63.3687 105.918 64.7721 107.928 66.5426C108.275 66.8675 108.692 67.168 108.96 67.5741C109.013 68.0402 108.799 68.2709 108.378 68.1507C106.889 67.6715 105.346 67.6715 103.819 67.9005C102.33 68.1442 100.878 68.5405 99.5298 69.2845C101.053 69.6629 102.505 70.4117 103.811 71.3327C105.613 72.6094 107.111 74.3426 108.071 76.4412C108.233 76.8034 108.387 77.1543 108.662 77.4336C110.883 79.7174 112.112 83.1106 111.992 86.4193C111.94 89.1985 110.921 91.9501 109.026 93.8522C108.815 94.0471 108.613 94.2193 108.326 94.0682C108.166 93.9756 107.805 93.8311 107.874 93.5761C108.041 91.1656 107.738 88.773 106.651 86.637C106.606 87.8292 106.523 89.0004 106.223 90.1536C104.847 95.7997 100.456 100.492 95.1767 101.733C93.4843 102.102 91.6377 102.118 89.9722 101.592C89.5996 101.521 89.3587 100.926 89.7013 100.674C90.2655 100.406 90.8551 100.218 91.4013 99.8963C91.7215 99.6997 92.1764 99.5146 92.3335 99.1328C92.6687 98.4133 92.8872 97.6238 93.0608 96.8442C93.3167 95.3401 93.5112 93.9399 93.0039 92.465C92.4233 92.171 91.8173 91.9972 91.289 91.5814C88.8813 89.8093 87.4717 86.5233 87.6333 83.3867C85.9603 85.2921 83.6349 86.7751 81.2002 87.0691C80.9353 87.1048 80.5822 87.0626 80.5238 86.7182C80.4625 86.4794 80.5253 86.3235 80.6615 86.14C82.0651 84.3321 83.2144 82.378 84.3187 80.346C84.4399 80.0634 84.9008 80.1998 85.1223 80.2323C86.5738 80.6027 88.0867 80.6075 89.5322 80.1933C92.1121 79.4738 94.2864 77.4791 95.4955 74.9208C96.944 71.8915 97.0008 68.0662 95.274 65.1538C95.054 64.7932 94.9986 64.6081 95.0346 64.1695C95.3383 64.0282 95.6376 63.8771 95.9339 63.7212C97.4288 62.8928 99.3203 62.8311 100.953 63.0503Z" fill="black"/>
<path d="M101.049 63.9833C103.265 64.3553 105.195 65.4712 106.981 66.9006C106.327 66.8129 105.679 66.7593 105.022 66.8373C102.84 67.0127 100.42 67.5308 98.5647 68.8498C98.2729 69.0674 97.9407 69.3371 98.0709 69.7724C98.1263 70.1086 98.6575 70.0567 98.8849 70.107C99.9758 70.185 100.902 70.643 101.864 71.1579C103.799 72.2397 105.656 73.8527 106.786 75.8977C105.676 75.2772 104.338 74.7168 103.075 74.7558C102.695 74.798 102.571 75.3665 102.936 75.5598C103.407 75.7434 103.935 75.7336 104.422 75.8749C106.532 76.4532 108.305 78.0012 109.48 79.9601C110.603 81.8167 111.175 84.0404 111.144 86.2575C111.118 88.7038 110.28 91.111 108.721 92.8896C108.674 91.7753 108.712 90.5863 108.484 89.5013C108.208 88.0605 107.774 86.6441 106.963 85.4486C106.776 85.1595 106.521 84.9695 106.475 84.6284C106.294 83.7366 106.117 82.8887 105.739 82.0603C105.646 81.8735 105.469 81.7257 105.333 81.5795C105.188 81.6851 105.05 81.8004 104.918 81.9239C104.811 82.1415 104.974 82.4404 105.038 82.6565C105.74 84.4383 105.926 86.42 105.676 88.3334C105.101 92.8734 102.364 96.9666 98.7368 99.2423C96.4577 100.667 93.8136 101.354 91.1904 100.974C93.441 99.8774 95.4103 98.2239 96.7331 95.9401C97.4948 94.691 97.7866 93.2421 97.8764 91.7672C97.9197 91.2085 97.2314 91.0249 97.0698 91.5788C96.9037 92.5842 96.8633 93.567 96.4593 94.5156C95.7948 96.0749 94.6441 97.4458 93.4305 98.5309C93.8944 97.2087 94.1278 95.7906 94.1548 94.3791C94.1503 93.4484 94.0186 92.3974 93.5532 91.595C92.6943 91.3774 91.8892 90.9924 91.2218 90.3541C89.5264 88.7833 88.5297 86.394 88.4744 83.9835C88.5088 82.9732 88.7168 82.122 89.1837 81.2498C91.5959 80.7251 93.7552 79.2178 95.2412 77.0997C96.5221 75.2999 97.2763 73.0925 97.4289 70.8266C97.5501 68.6403 97.0683 66.4929 96.0103 64.6266C97.604 63.717 99.3069 63.7511 101.049 63.9833Z" fill="#85C2C6"/>
<path d="M21.2223 65.6031C21.8912 65.5998 22.6259 65.7135 23.2215 66.0644C23.5297 66.2187 23.4714 66.6248 23.5208 66.9269C23.6614 68.9346 24.0729 70.8837 24.6102 72.8069C25.5095 75.9516 26.7545 78.9777 28.3302 81.791C29.1084 83.1424 29.9329 84.4516 30.931 85.6244C31.2318 85.998 31.4892 86.3699 31.2333 86.8751C30.3833 88.5936 29.0126 90.0555 27.5716 91.1974C26.4762 92.0485 25.282 92.7616 23.9353 92.9874C23.621 94.1731 23.3936 95.432 23.6225 96.66C23.5836 96.7931 23.5432 96.9263 23.5028 97.0612C23.214 97.1131 22.9671 97.1635 22.6902 97.0222C20.9574 96.2506 19.2455 95.1867 17.8867 93.7752C16.5534 92.401 15.5972 90.6532 15.2501 88.683C14.5512 88.3435 14.1682 87.7392 13.6848 87.1317C12.6621 85.7822 12.0754 84.1057 12.0148 82.3595C11.8981 80.667 12.4907 78.9793 13.1132 77.4573C13.8898 75.6901 14.8849 73.879 16.2078 72.5275C16.7046 72.0029 17.2612 71.5789 17.8149 71.129C16.7599 71.4441 15.7618 71.8193 14.9029 72.5828C14.7128 72.7111 14.3986 73.0652 14.1771 72.8605C13.7716 72.6721 13.9123 72.1198 13.9931 71.7609C14.5258 69.9286 15.687 68.2995 17.1236 67.1917C18.3372 66.2609 19.7199 65.6323 21.2223 65.6031Z" fill="black"/>
<path d="M20.0569 66.7087C20.9533 66.4358 21.7703 66.478 22.6502 66.7818C22.6921 67.7515 22.8357 68.7034 22.9929 69.6568C23.581 72.873 24.5851 75.9527 25.8989 78.9008C27.105 81.6101 28.6134 84.2448 30.4585 86.4993C29.3646 88.494 27.7066 90.1378 25.8495 91.2732C25.1313 91.7053 24.4264 91.9716 23.6109 92.0886C23.2922 92.1162 23.2547 92.2965 23.156 92.5808C22.7998 93.6853 22.6681 94.8321 22.6711 95.9983C20.4071 94.9198 18.1565 93.3198 16.9159 90.9272C15.9492 89.1064 15.7757 86.9411 16.241 84.9173C16.7483 82.666 17.8901 80.6632 19.2234 78.8781C19.4568 78.5954 19.5496 78.0821 19.1306 77.9457C18.8298 77.858 18.6428 78.1747 18.4647 78.3794C16.5388 81.0027 15.0708 84.0239 15.1157 87.4642C14.2149 86.4782 13.4787 85.3656 13.124 84.0158C12.8292 82.7894 12.7529 81.5224 13.0716 80.2912C13.5984 78.2332 14.5351 76.2873 15.6784 74.5558C16.7902 72.8681 18.3166 71.7083 20.006 70.7874C20.3726 70.5258 20.1706 69.9703 19.7382 69.9947C18.1071 69.9671 16.4371 70.5226 15.0274 71.403C15.9403 69.1484 17.8482 67.3178 20.0569 66.7087ZM84.9116 81.1456C85.9396 81.3876 86.9781 81.4087 88.0256 81.4217C86.4978 83.7185 84.2891 85.3997 81.7407 86.0608C82.9288 84.5112 83.8955 82.8251 84.9116 81.1456Z" fill="#85C2C6"/>
</svg>
