<svg width="9" height="14" viewBox="0 0 9 14" fill="none" xmlns="http://www.w3.org/2000/svg">
<path d="M7.09745 1.14225L1.16257 6.63816C1.05834 6.73469 1 6.86416 1 6.99897C1 7.13377 1.05834 7.26324 1.16257 7.35978L7.09745 12.8578C7.14601 12.9028 7.20406 12.9386 7.26819 12.963C7.33231 12.9874 7.40121 13 7.47082 13C7.54042 13 7.60932 12.9874 7.67344 12.963C7.73757 12.9386 7.79562 12.9028 7.84418 12.8578C7.94408 12.7654 8 12.6415 8 12.5125C8 12.3834 7.94408 12.2595 7.84418 12.1671L2.2632 6.99897L7.84418 1.83182C7.94373 1.73955 7.99944 1.61584 7.99944 1.48703C7.99944 1.35823 7.94373 1.23452 7.84418 1.14225C7.79562 1.09723 7.73757 1.06145 7.67344 1.03702C7.60932 1.01259 7.54042 1 7.47082 1C7.40121 1 7.33231 1.01259 7.26819 1.03702C7.20406 1.06145 7.14601 1.09723 7.09745 1.14225Z" fill="#7E7E7E" stroke="#A2A2A2" stroke-width="1.5"/>
</svg>
