<svg width="108" height="108" viewBox="0 0 108 108" fill="none" xmlns="http://www.w3.org/2000/svg">
<circle cx="54" cy="54" r="54" fill="#E27158" fill-opacity="0.7"/>
<path d="M56.205 26.7674C61.5653 27.4619 66.723 29.5511 71.0586 32.7755C71.9302 33.4615 72.8274 34.0978 73.6126 34.8901C76.9815 38.0054 79.6688 41.8378 81.4263 46.0799C82.7515 49.2419 83.5126 52.6052 83.7847 56.021C84.723 56.1358 85.6343 56.3243 86.4946 56.7297C88.6971 57.7119 90.3327 59.6975 90.9989 62.0035C91.3716 63.3585 91.5034 64.8027 91.2426 66.1917C90.8231 68.8506 89.2981 71.3125 87.08 72.8418C85.5294 73.926 83.6089 74.5468 81.714 74.4972C80.9869 74.4901 80.291 74.2704 79.5696 74.2435C79.3074 74.5511 79.1118 74.9295 78.8949 75.2711C76.2502 79.4692 72.5779 82.9969 68.316 85.5325C64.3334 87.9037 59.8263 89.3819 55.2115 89.8298C53.6411 89.929 52.1118 90.1204 50.5371 89.9347C43.211 89.6087 36.0705 86.6125 30.6734 81.6533C26.5589 77.8903 23.4677 73.0317 21.8094 67.7082C20.8045 64.4697 20.3042 61.078 20.3822 57.6863C20.4559 51.9689 22.1581 46.2656 25.1926 41.4211C27.8997 37.0544 31.6995 33.4019 36.1343 30.8153C40.3338 28.3662 45.113 26.8922 49.966 26.5818C52.0437 26.3734 54.1386 26.5293 56.205 26.7674Z" fill="black"/>
<path d="M51.5264 27.3643C58.3962 27.1673 65.3198 29.4478 70.7751 33.6176C71.7034 34.193 72.4362 34.9626 73.2356 35.6925C76.6839 38.8999 79.3584 42.9138 81.0209 47.3174C82.074 50.0968 82.7019 53.015 82.9428 55.9758C81.6828 56.0807 80.4852 56.3075 79.3457 56.8801C79.0353 57.0261 79.0778 57.5817 79.442 57.6213C79.7751 57.6539 80.1479 57.4073 80.4682 57.3095C82.5403 56.5484 84.9072 56.693 86.8149 57.8311C88.4718 58.792 89.6623 60.405 90.2009 62.2333C90.5694 63.4026 90.5808 64.7009 90.4504 65.9113C90.096 68.3703 88.7 70.6919 86.6619 72.1205C84.4353 73.7264 81.3937 74.1955 78.8765 72.9993C78.4272 72.7966 78.0346 72.4919 77.5896 72.2835C77.1715 72.1291 76.8979 72.679 77.2069 72.9568C77.6562 73.3479 78.2472 73.5974 78.766 73.8865C75.9115 78.7267 71.7573 82.7732 66.8023 85.4335C62.522 87.7451 57.6691 89.0519 52.802 89.1398C48.886 89.2418 44.96 88.5672 41.292 87.1952C36.9946 85.6021 33.0942 83.024 29.9009 79.7401C26.6879 76.4278 24.243 72.387 22.786 68.0089C20.6657 61.682 20.6727 54.6846 22.8242 48.3662C24.3904 43.6805 27.1159 39.4073 30.6719 35.9802C34.8771 31.9083 40.2601 29.1005 45.9975 27.9483C47.8116 27.5911 49.674 27.3473 51.5264 27.3643Z" fill="#F2D3B1"/>
<path d="M85.8297 60.7195C86.2025 60.7053 86.3173 61.2581 86.0225 61.4253C85.4995 61.6847 84.9141 61.8179 84.3727 62.0419C83.5478 62.331 82.774 62.7165 82.0086 63.136C82.6167 63.4677 83.2644 63.8079 83.8101 64.2359C84.1757 64.5321 84.4975 64.8524 84.5655 65.3414C84.5286 65.8502 84.1786 66.2697 83.793 66.5731C82.9625 67.2335 81.8201 67.5907 80.8464 68.0272C80.5984 68.1151 80.2186 68.3093 80.0542 67.9904C79.9096 67.7438 80.0456 67.5496 80.2767 67.4419C81.2192 66.9742 82.3828 66.6453 83.2233 66.0019C83.4175 65.8403 83.7038 65.6135 83.7349 65.3471C83.1581 64.5491 81.9746 64.1296 81.1512 63.6335C80.8195 63.3897 80.8266 63.0326 81.1285 62.7647C82.1589 61.9653 83.5351 61.4523 84.7526 61.0101C85.0956 60.8924 85.4655 60.7337 85.8297 60.7195Z" fill="black"/>
<path d="M65.0433 58.0604C65.5918 58.4275 66.1928 58.8074 66.625 59.3105C66.6661 59.5458 66.635 59.7967 66.6307 60.0362C66.3572 60.1212 66.1474 60.1836 65.8668 60.073C61.7409 58.5919 57.0638 58.6982 52.9224 60.0631C51.1436 60.6669 49.3776 61.5329 47.9192 62.7277C47.7321 62.8765 47.3679 63.1401 47.1694 62.8878C46.9271 62.6667 47.0787 62.3875 47.1964 62.1466C48.2069 60.3381 49.7461 58.8683 51.5419 57.8464C55.655 55.4965 61.0209 55.5192 65.0433 58.0604ZM34.7296 59.7258C36.3794 60.0886 38.0674 60.9489 39.1531 62.2685C39.5485 62.8212 40.0687 63.4108 39.985 64.1365C39.7611 64.1323 39.5216 64.2343 39.343 64.0656C38.7321 63.5724 38.1028 63.2011 37.3701 62.9176C35.2157 62.0771 32.7624 61.9028 30.4819 62.2033C28.7201 62.4556 26.7883 63.0111 25.3809 64.1436C25.1102 64.3264 24.9302 64.5404 24.5759 64.4001C24.4058 64.1351 24.4313 63.7723 24.6227 63.5256C26.8918 60.4401 31.0077 59.0157 34.7296 59.7258Z" fill="black"/>
<path d="M48.4069 46.2007C49.8115 46.2177 51.2231 46.6585 52.493 47.2367C52.9693 47.5032 53.4922 47.8051 53.5291 48.4117C52.8006 48.2898 52.0919 48.1197 51.3493 48.0886C49.7052 47.9922 48.071 48.2813 46.6367 49.1133C46.2767 49.3131 45.9351 49.5753 45.5538 49.7298C45.2987 49.7681 44.9982 49.4478 44.9954 49.2012C44.9699 48.3777 45.2718 47.5117 45.9209 46.976C46.6338 46.3764 47.5012 46.2248 48.4069 46.2007ZM35.9401 48.7023C36.7636 48.7235 37.4893 49.4534 37.7132 50.2103C37.8266 50.583 37.648 51.021 37.2129 51.0054C35.9628 51.0352 34.6319 51.0097 33.413 51.3257C32.3472 51.6106 31.3239 52.2767 30.3856 52.8479C30.2127 52.9627 30.0214 52.984 29.8215 53.0208C29.8683 52.7473 29.9122 52.5021 30.0965 52.2824C30.5614 51.6687 31.0574 51.0664 31.6187 50.5391C32.4521 49.8064 33.4626 49.2692 34.4987 48.8865C34.9565 48.7292 35.4568 48.6626 35.9401 48.7023Z" fill="black"/>
<path d="M50.2478 72.6818C51.6566 72.5698 53.1307 72.5868 54.4304 73.2062C55.1036 73.5293 55.6719 74.0693 55.8094 74.829C55.9327 75.5717 55.645 76.2364 55.2297 76.8331C54.5069 77.8394 53.383 78.5835 52.3072 79.1689C49.9686 80.4104 47.477 80.8767 44.8663 81.1191C41.9962 81.5556 38.9645 80.8895 36.487 79.3942C35.6069 78.8414 34.67 78.0818 34.2151 77.1265C33.8522 76.381 33.8962 75.4243 34.4886 74.8063C35.1647 74.0693 36.2503 73.7929 37.2099 73.6895C39.4209 73.5095 41.5426 74.0169 43.5581 74.8942C45.5948 73.6994 47.8965 72.9241 50.2478 72.6818Z" fill="black"/>
<path d="M53.8521 73.8439C53.3192 74.2988 52.7339 74.6645 52.1329 75.0203C51.7545 75.2371 51.6014 75.6056 51.3619 75.9557C51.1408 76.3171 50.8616 76.6247 50.5469 76.9067C50.1189 76.7508 49.7022 76.5028 49.2558 76.4107C48.8263 76.4744 48.4195 76.6757 48 76.7877C46.5798 77.193 45.0704 77.4977 43.5893 77.485C43.1712 77.4793 42.7715 77.5119 42.3619 77.5998C42.3987 77.9499 42.291 78.2617 42.7616 78.3099C44.8408 78.4318 46.9767 78.025 48.9454 77.3659C49.6172 77.0725 50.0353 77.8025 50.7652 77.6097C51.3817 77.4297 51.8098 76.6743 52.1712 76.1839C52.4235 75.787 52.7991 75.5999 53.1832 75.359C53.7019 75.0415 54.171 74.6716 54.6501 74.3003C54.8542 74.6631 55.0994 74.9636 54.9931 75.4086C54.7947 76.3143 54.0591 76.9691 53.366 77.5233C51.5915 78.8697 49.2614 79.6152 47.0957 80.0262C45.042 80.3069 43.1287 80.6201 41.0565 80.2346C39.2466 79.8859 37.3474 79.1702 35.9343 77.9541C35.4 77.4708 34.748 76.7451 34.8274 75.9685C34.8742 75.4384 35.383 75.0741 35.8323 74.8757C36.9591 74.4009 38.2035 74.4392 39.3969 74.561C40.6313 74.7354 41.8616 75.0599 42.994 75.59C43.2137 75.6793 43.4717 75.8225 43.714 75.8055C44.1534 75.6283 44.529 75.3023 44.9542 75.0883C46.2071 74.4321 47.5663 73.9729 48.9553 73.7092C50.5781 73.4229 52.2676 73.2911 53.8521 73.8439Z" fill="white"/>
<path d="M59.0382 18C60.8183 18.0737 62.5701 18.4124 64.2383 19.0403C66.9794 20.1061 69.4711 21.8452 71.4837 23.9825C72.9024 25.4381 74.0986 27.1332 75.4777 28.6328C76.2402 29.4321 77.0934 30.1677 78.026 30.763C79.3498 31.612 80.923 31.9578 82.407 32.4567C84.0298 32.9556 85.5945 33.5835 87.0104 34.5345C89.2895 36.0368 90.9747 38.4576 91.8293 41.0315C92.4331 42.9194 92.7619 45.0652 92.2985 47.0183C92.2361 47.3102 91.7316 47.3513 91.6139 47.0778C91.3942 46.6271 91.2525 46.1452 90.9974 45.7087C90.3 44.4572 89.3334 43.3403 88.2889 42.3638C89.478 44.0263 89.77 46.1792 89.1889 48.1238C88.8799 49.1216 88.2095 49.8557 87.5093 50.5998C87.661 51.3085 87.8523 51.9987 87.9034 52.7258C88.021 53.7803 87.8013 54.8306 87.335 55.7802C87.0756 56.3046 86.7936 56.9565 86.3259 57.325C85.9786 57.4611 85.5237 57.1209 85.1849 57.0359C84.5868 56.8715 83.8938 56.6957 83.2758 56.812C83.1454 56.975 83.0434 57.172 82.947 57.3576C82.0583 59.1392 80.9698 60.8287 79.8331 62.46C78.6383 64.0913 77.2267 65.6787 75.5698 66.8509C75.0908 67.1712 74.4303 67.5709 73.8605 67.2378C73.3475 66.8821 73.3786 66.0954 73.4339 65.5469C73.7358 63.2424 73.5997 60.8471 73.6196 58.4972C71.6764 58.4872 69.7659 57.9543 68.0708 57.0132C64.2426 54.917 61.4547 50.7515 61.3867 46.338C59.907 47.5214 58.1608 48.1705 56.3226 48.5603C55.8889 48.6312 55.295 48.7545 54.901 48.5036C54.7054 48.1847 54.8089 47.9877 55.0527 47.751C56.7818 46.1027 58.1495 44.151 58.7462 41.8096C59.2054 39.9515 59.0013 37.9474 57.7512 36.4351C56.8456 35.3282 55.4878 34.6422 54.1045 34.3531C52.5525 34.0101 50.9438 34.1107 49.4046 34.4679C49.1523 34.509 48.9341 34.6068 48.6931 34.4693C48.4068 34.1717 48.5075 33.8528 48.5216 33.4814C47.0292 33.9661 45.5736 34.6535 44.298 35.5691C44.0585 35.7321 43.8799 35.8554 43.578 35.752C43.1528 35.5578 42.8325 35.1482 42.4356 34.8973C41.0793 33.9761 39.387 33.4672 37.7854 33.188C38.2234 33.582 38.7152 33.9548 39.0837 34.4154C39.2722 34.655 39.3204 34.9654 39.0922 35.1978C38.8356 35.3268 38.4856 35.2913 38.2035 35.3041C36.4857 35.2871 34.6673 35.3594 33.0331 35.9419C32.6221 36.2438 32.3684 36.8376 32.0963 37.2657C30.2396 40.4065 29.3594 44.1312 29.4303 47.7666C29.4161 47.9806 29.4317 48.1819 29.3027 48.3647C28.9597 48.5575 28.7174 48.3562 28.4183 48.1975C27.5027 47.6306 26.607 46.9431 25.9139 46.1126C25.2123 47.5668 23.9509 48.7247 22.4457 49.3058C22.0304 50.4751 21.866 51.7805 21.6109 53.0093C21.472 53.6783 21.4309 54.3657 21.2849 55.0304C21.1971 55.372 20.7917 55.4443 20.5919 55.1551C19.3375 53.4855 19.0824 51.5339 18.7947 49.5312C18.1682 49.3809 17.5715 49.1868 17.0486 48.7984C16.7183 48.5546 16.303 48.2074 16.2917 47.7638C16.2662 47.5313 16.5567 47.3769 16.7098 47.2422C17.2371 46.8609 17.7076 46.4187 18.1881 45.9836C16.9068 45.5556 15.8793 44.6159 15.3832 43.3545C14.727 41.6934 14.9835 39.8537 15.6256 38.2323C16.6517 35.752 18.5878 33.6444 20.915 32.322C22.2416 31.551 23.6448 31.14 25.1698 31.0025C25.5199 29.2635 26.0812 27.5839 26.9684 26.0405C28.1462 23.9783 29.83 22.225 31.8922 21.0359C34.4462 19.5506 37.5601 18.985 40.4755 19.4457C43.2549 19.8468 45.7904 21.0458 48.0128 22.7381C48.9128 21.909 49.8553 21.1365 50.8956 20.4888C53.3264 18.9269 56.1412 18.0198 59.0382 18Z" fill="black"/>
<path d="M58.6129 18.8265C60.5518 18.8039 62.5092 19.2376 64.3077 19.9491C66.7356 20.9709 68.9495 22.5102 70.7594 24.4235C72.344 25.9939 73.6181 27.9102 75.1786 29.4976C76.3295 30.63 77.6107 31.6491 79.1301 32.2372C81.2363 33.0479 83.4175 33.459 85.4344 34.5517C86.8885 35.3072 88.1386 36.3446 89.1322 37.6486C90.7734 39.8142 91.6975 42.5072 91.6961 45.227C90.4092 43.1832 88.6191 41.1324 86.3896 40.1076C86.0608 39.9418 85.6937 40.1686 85.7674 40.5498C85.9432 40.8772 86.2479 41.1508 86.4974 41.4229C87.1125 42.0805 87.7347 42.8062 88.1216 43.6226C88.7778 44.9861 88.8444 46.5976 88.3555 48.0248C88.0904 48.7561 87.5915 49.3032 87.0685 49.8588C86.8815 50.0927 86.6235 50.2542 86.727 50.5916C87.0274 51.8303 87.3123 52.9741 87.0473 54.2596C86.8304 55.0604 86.452 55.8286 85.9928 56.516C85.2303 56.2212 84.489 56.0568 83.674 55.993C83.7151 55.7662 83.8257 55.4941 83.7322 55.273C83.5748 55.1185 83.3722 55.0165 83.1766 55.1809C83.0277 55.3212 82.9399 55.5324 82.8477 55.7138C81.772 58.0339 80.4383 60.2152 78.943 62.2887C78.1933 63.2709 77.384 64.222 76.474 65.061C75.798 65.6648 75.1488 66.2445 74.3027 66.6017C74.1539 65.9327 74.2914 65.3317 74.3367 64.6613C74.4175 63.4226 74.4827 62.1867 74.4147 60.9451C74.3637 60.116 74.3679 59.2868 74.3722 58.4563C76.4315 58.2805 78.5136 57.4103 79.9252 55.8768C80.1718 55.6018 80.0854 55.2475 79.7126 55.1681C78.9643 54.9711 78.3378 54.6933 77.7199 54.2242C78.9345 54.2667 80.1208 54.1519 81.2533 53.6856C82.7159 53.1172 84.01 52.0188 84.6945 50.5944C85.2147 49.5725 85.287 48.3111 85.107 47.1957C85.0602 46.8002 84.5315 46.6004 84.3785 47.044C84.4607 48.1538 84.5429 49.1813 84.0142 50.2061C82.8775 52.5673 79.9635 53.7026 77.4619 53.3596C77.1487 53.3242 76.7292 53.0761 76.4414 53.2533C76.3692 53.3454 76.3196 53.4531 76.2926 53.5793C76.81 54.6976 77.7978 55.2829 78.8892 55.7464C77.0835 57.3366 74.6003 57.922 72.2448 57.5747C68.0637 56.9851 64.4353 53.8698 62.9287 49.968C62.3844 48.5776 62.1846 47.1205 62.1733 45.6352C62.1577 45.2369 61.714 45.0413 61.4221 45.3347C59.9495 46.65 58.1381 47.3672 56.2205 47.7513C57.4238 46.4714 58.4273 45.0343 59.0977 43.4043C59.6603 41.9941 59.9155 40.4875 59.7128 38.9752C59.5342 37.6642 58.9361 36.4212 57.9936 35.4886C56.7619 34.23 54.9605 33.5454 53.2271 33.4009C51.9657 33.245 50.6603 33.3768 49.4188 33.6291C49.4896 33.3073 49.6781 33.0068 49.4372 32.712C49.2459 32.4513 48.8419 32.5972 48.5755 32.6468C46.8789 33.1131 45.2575 33.9692 43.8189 34.9755C42.0303 33.235 39.2013 32.498 36.789 32.2216C34.3441 31.9424 31.8114 32.1253 29.4402 32.7942C28.7542 33.0012 28.0555 33.235 27.4191 33.5695C27.1044 33.7226 27.1144 34.1846 27.446 34.3037C27.6118 34.4043 27.8556 34.247 28.0243 34.1931C30.2339 33.1798 32.8191 32.8651 35.2285 32.9176C35.6835 32.9431 36.2405 32.9204 36.6104 33.2152C37.1589 33.6078 37.6436 34.0939 38.1539 34.5347C36.3525 34.505 34.6248 34.5248 32.8999 35.1215C32.3726 35.3483 32.0551 35.8911 31.7533 36.3531C31.0389 37.5182 30.3671 38.7527 29.898 40.0382C29.0079 42.3824 28.6351 44.9152 28.5955 47.4139C27.6104 46.7535 26.6183 45.9598 26.0471 44.901C25.8203 44.5212 25.6885 44.1087 25.5298 43.7005C25.3781 43.3944 24.9019 43.4171 24.8438 43.7927C24.7772 44.3242 25.1542 44.9223 25.4022 45.373C24.9926 46.4998 24.1791 47.4083 23.1841 48.0574C22.1934 48.6796 21.0751 48.8497 19.92 48.8072C18.9081 48.8213 17.9613 48.5322 17.1832 47.8774C17.8167 47.2949 18.5452 46.7605 19.1277 46.1284C19.3418 45.9413 19.3233 45.6139 19.098 45.4439C18.8159 45.2965 18.4928 45.2213 18.1951 45.1037C17.2966 44.7565 16.5723 44.0379 16.1911 43.1549C15.746 42.1698 15.7474 40.9892 15.9544 39.9461C16.4122 37.9221 17.5588 36.1292 19.0583 34.7133C20.6755 33.1755 22.9049 31.9538 25.1698 31.8574C25.398 31.8319 25.6106 31.8205 25.8033 31.6802C26.006 31.3599 26.0259 30.9078 26.1123 30.5435C26.5262 28.6826 27.2859 26.8954 28.3899 25.3391C29.9221 23.1692 32.1288 21.4996 34.6687 20.696C36.5211 20.0908 38.4685 20.0086 40.3918 20.2623C42.9643 20.6365 45.317 21.7448 47.3892 23.2911C47.1879 23.5278 46.5969 23.841 46.7599 24.2081C46.801 24.4278 47.1029 24.493 47.2559 24.3711C48.051 23.8226 48.7172 23.0799 49.4783 22.4818C52.0692 20.3842 55.2511 18.9498 58.6129 18.8265Z" fill="#6A4E35"/>
<path d="M19.5742 49.6405C20.2489 49.6249 20.9079 49.649 21.5741 49.5044C21.1999 50.8962 20.9632 52.3263 20.6684 53.7365C19.9852 52.4368 19.7826 51.0776 19.5742 49.6405Z" fill="#6A4E35"/>
</svg>
