<svg width="29" height="28" viewBox="0 0 29 28" fill="none" xmlns="http://www.w3.org/2000/svg">
<path d="M12.6737 19.0332C14.0712 19.0332 15.3807 18.6113 16.4706 17.8906L20.3202 21.749C20.5751 21.9951 20.9003 22.1182 21.2518 22.1182C21.9813 22.1182 22.5175 21.5469 22.5175 20.8262C22.5175 20.4922 22.4032 20.167 22.1571 19.9209L18.3339 16.0801C19.1249 14.9551 19.5907 13.5928 19.5907 12.1162C19.5907 8.31055 16.4794 5.19922 12.6737 5.19922C8.87683 5.19922 5.75671 8.31055 5.75671 12.1162C5.75671 15.9219 8.86804 19.0332 12.6737 19.0332ZM12.6737 17.1875C9.88757 17.1875 7.60242 14.9023 7.60242 12.1162C7.60242 9.33008 9.88757 7.04492 12.6737 7.04492C15.4598 7.04492 17.745 9.33008 17.745 12.1162C17.745 14.9023 15.4598 17.1875 12.6737 17.1875Z" fill="#3C3C43" fill-opacity="0.6"/>
</svg>
