<svg width="108" height="108" viewBox="0 0 108 108" fill="none" xmlns="http://www.w3.org/2000/svg">
<circle cx="54" cy="54" r="54" fill="#69B955" fill-opacity="0.31"/>
<path d="M55.4523 25.9244C60.4286 26.5692 65.2168 28.5086 69.2417 31.502C70.051 32.1389 70.8839 32.7297 71.6128 33.4652C74.7404 36.3573 77.2351 39.9152 78.8667 43.8533C80.097 46.7888 80.8036 49.9112 81.0562 53.0822C81.9272 53.1888 82.7733 53.3638 83.572 53.7401C85.6167 54.652 87.1351 56.4954 87.7535 58.6362C88.0996 59.8941 88.222 61.2349 87.9799 62.5243C87.5904 64.9927 86.1746 67.2783 84.1154 68.698C82.6759 69.7046 80.893 70.2809 79.1338 70.2348C78.4588 70.2282 77.8128 70.0243 77.143 69.9993C76.8996 70.2848 76.718 70.6361 76.5167 70.9532C74.0615 74.8506 70.6523 78.1256 66.6957 80.4795C62.9983 82.6808 58.8141 84.0532 54.5299 84.469C53.0721 84.5611 51.6523 84.7387 50.1905 84.5664C43.3892 84.2637 36.7603 81.4822 31.7497 76.8782C27.93 73.3848 25.0603 68.8743 23.5208 63.9322C22.5879 60.9256 22.1234 57.777 22.1958 54.6283C22.2642 49.3204 23.8445 44.0257 26.6616 39.5283C29.1747 35.4744 32.7024 32.0836 36.8195 29.6823C40.7181 27.4086 45.155 26.0402 49.6602 25.752C51.5892 25.5586 53.5339 25.7034 55.4523 25.9244Z" fill="black"/>
<path d="M51.1087 26.4777C57.4863 26.2948 63.9139 28.4119 68.9784 32.283C69.8403 32.8172 70.5205 33.5317 71.2626 34.2093C74.4639 37.1869 76.9468 40.9132 78.4902 45.0014C79.4679 47.5816 80.0507 50.2908 80.2744 53.0395C79.1047 53.1369 77.9929 53.3474 76.935 53.879C76.6468 54.0145 76.6863 54.5303 77.0244 54.5671C77.3337 54.5974 77.6797 54.3685 77.9771 54.2777C79.9008 53.5711 82.0981 53.7053 83.8692 54.7619C85.4073 55.654 86.5126 57.1513 87.0126 58.8487C87.3547 59.9342 87.3652 61.1395 87.2442 62.2632C86.9152 64.5461 85.6192 66.7013 83.7271 68.0276C81.66 69.5184 78.8363 69.9539 76.4994 68.8434C76.0823 68.6553 75.7179 68.3724 75.3047 68.1789C74.9166 68.0355 74.6626 68.5461 74.9494 68.8039C75.3666 69.1671 75.9152 69.3987 76.3968 69.6671C73.7468 74.1605 69.8903 77.9171 65.2903 80.3868C61.3166 82.5329 56.8113 83.746 52.2929 83.8276C48.6574 83.9223 45.0127 83.296 41.6074 82.0223C37.618 80.5434 33.9969 78.15 31.0325 75.1013C28.0496 72.0263 25.7798 68.275 24.4272 64.2105C22.4588 58.3369 22.4654 51.8408 24.4627 45.9751C25.9167 41.6251 28.4469 37.658 31.7482 34.4764C35.6522 30.6962 40.6495 28.0896 45.9758 27.0198C47.66 26.6883 49.389 26.4619 51.1087 26.4777Z" fill="#FDD5B0"/>
<path d="M82.9552 57.4436C83.3012 57.4304 83.4078 57.9436 83.1341 58.0989C82.6486 58.3397 82.1052 58.4633 81.6025 58.6712C80.8368 58.9397 80.1183 59.2976 79.4078 59.687C79.9723 59.9949 80.5736 60.3107 81.0802 60.7081C81.4196 60.9831 81.7183 61.2804 81.7815 61.7344C81.7473 62.2068 81.4223 62.5962 81.0644 62.8778C80.2933 63.491 79.2328 63.8225 78.3289 64.2278C78.0986 64.3094 77.746 64.4896 77.5933 64.1936C77.4591 63.9646 77.5854 63.7844 77.7999 63.6844C78.6749 63.2502 79.7552 62.9449 80.5354 62.3475C80.7157 62.1975 80.9815 61.987 81.0104 61.7396C80.4749 60.9989 79.3762 60.6094 78.6118 60.1489C78.3039 59.9225 78.3104 59.591 78.5907 59.3423C79.5473 58.6002 80.8249 58.1239 81.9552 57.7133C82.2736 57.6041 82.617 57.4568 82.9552 57.4436Z" fill="black"/>
<path d="M54.5654 49.1515C56.1088 48.9976 57.697 49.2673 59.0996 49.9305C60.5825 50.6278 61.8601 51.7607 62.7207 53.1568C63.8417 54.9357 64.2746 57.166 63.8759 59.2331C63.5312 61.2396 62.422 63.0791 60.8457 64.3607C58.6772 66.1501 55.6641 66.7344 52.9759 65.9265C50.8523 65.2949 49.0062 63.8199 47.9352 61.8791C46.9589 60.1738 46.6589 58.1646 46.9707 56.2344C47.2707 54.4804 48.1207 52.8423 49.3917 51.5949C50.7825 50.216 52.6141 49.3462 54.5654 49.1515Z" fill="black"/>
<path d="M54.429 49.9271C55.6553 49.7982 56.8908 49.881 58.054 50.3113C59.9224 50.9758 61.5079 52.3468 62.4066 54.1179C63.1816 55.6047 63.4276 57.3152 63.171 58.9679C62.8829 60.6231 62.0882 62.1758 60.8697 63.3376C59.6224 64.5679 57.9066 65.3244 56.1711 65.5047C54.15 65.6968 52.0803 65.0692 50.5053 63.7902C49.2606 62.8034 48.4106 61.4521 47.9 59.96C47.2079 57.5889 47.6842 54.9376 49.1816 52.9692C50.4277 51.2995 52.3645 50.1863 54.429 49.9271Z" fill="white"/>
<path d="M50.7444 54.7961C51.7062 54.5474 52.7865 54.8316 53.4904 55.5355C54.2917 56.2882 54.5983 57.5171 54.2273 58.5553C53.768 60.0276 52.0523 60.9184 50.5904 60.4079C49.0838 59.9671 48.1996 58.2908 48.6694 56.7921C48.9654 55.8 49.7509 55.0671 50.7444 54.7961ZM25.9734 56.2671C27.8721 56.3658 29.7602 56.4684 31.6378 56.7816C34.4181 57.2316 37.2773 57.9618 39.8115 59.2118C40.1865 59.4224 40.1339 59.6447 40.022 60.0092C39.7036 60.0158 39.4418 59.9776 39.1391 59.8763C37.672 59.4316 36.1707 59.1855 34.6615 58.9342C33.2865 58.7447 31.9563 58.5145 30.5826 58.4447C29.1392 58.3 27.7023 58.35 26.2431 58.3579C25.9839 58.3447 25.5826 58.4395 25.3747 58.2592C25.2747 57.9776 25.4773 57.6421 25.5484 57.3671C25.4247 57.1605 25.1431 56.9132 25.2326 56.6526C25.3471 56.3368 25.6734 56.2671 25.9734 56.2671Z" fill="black"/>
<path d="M53.8758 43.1153C57.1258 43.239 60.1969 44.2956 63.014 45.8772C63.3113 46.0508 63.6613 46.2048 63.9074 46.4469C64.0784 46.7614 63.8574 47.1219 63.4863 46.9982C61.3048 46.1811 59.0705 45.7311 56.7679 45.4166C54.0969 45.1087 51.5153 44.9324 48.8469 45.3995C48.4258 45.4574 47.9429 45.6837 47.5206 45.6087C47.1706 45.3864 47.3627 44.8061 47.6903 44.639C49.4837 43.4114 51.7416 43.0469 53.8758 43.1153ZM35.8443 45.539C36.3061 45.6232 36.7127 45.7916 37.1114 46.0364C37.0917 46.1943 37.0772 46.3522 37.068 46.5127C36.7127 46.6101 36.3496 46.6601 35.9838 46.689C34.2509 46.8403 32.5035 47.3614 30.8772 47.964C29.268 48.589 27.6167 49.364 26.2469 50.4258C25.8759 50.6929 25.7035 51.06 25.1838 51.014C25.118 50.8956 25.0522 50.7785 24.9851 50.6627C25.1022 50.4535 25.2062 50.2456 25.3483 50.0522C26.6048 48.3193 28.4588 46.9969 30.4285 46.1903C32.0996 45.5127 34.0614 45.1311 35.8443 45.539Z" fill="black"/>
<path d="M51.2444 67.479C51.2983 67.5816 51.3496 67.6856 51.3943 67.7908C51.4562 68.1408 51.1378 68.2264 50.893 68.3619C50.3693 68.5948 49.8338 68.8093 49.2983 69.0172C46.9746 69.8487 44.6417 70.479 42.1615 70.5882C41.3062 70.654 40.4589 70.6698 39.6036 70.5935C38.9589 70.5185 38.2681 70.5106 37.647 70.3264C37.3378 70.2106 37.2878 69.8093 37.5944 69.6593C37.947 69.6435 38.3154 69.7685 38.6707 69.7935C39.6181 69.9106 40.5523 69.8737 41.5049 69.8737C44.4641 69.7737 47.4286 68.9803 50.1496 67.8369C50.5128 67.6803 50.8365 67.4961 51.2444 67.479Z" fill="black"/>
<path d="M54.5106 18.3571C58.2106 19.215 61.3685 21.3177 63.9369 24.0703C64.8159 24.1229 65.6461 24.14 66.5027 24.3506C67.7685 24.6229 68.9672 25.1203 70.0856 25.769C72.5685 27.2308 74.5014 29.4045 75.8869 31.9124C77.4448 32.5637 78.7843 33.8137 79.8737 35.0782C81.5527 37.0413 82.8829 39.34 83.8908 41.711C85.1145 44.6123 85.9395 47.7821 85.9606 50.9439C85.9145 52.261 85.7711 53.7952 85.1382 54.9742C84.979 55.2978 84.7342 55.2781 84.4645 55.0873C83.2343 54.1334 81.4948 53.6584 79.954 53.8123C80.1685 55.9018 79.7435 57.9834 78.8672 59.8807C77.658 62.5505 75.6185 64.9886 73.0461 66.432C72.5172 66.7189 71.954 67.0005 71.3672 67.1399C71.1356 67.182 70.9764 67.1031 70.9211 66.8662C70.9146 66.6018 71.1501 66.3399 71.2843 66.1228C71.7277 65.4847 72.058 64.7452 72.3435 64.0241C72.9435 62.4649 73.3382 60.8202 73.5988 59.1728C73.9409 56.7873 74.104 54.261 73.5053 51.9031C72.9567 52.2913 72.4001 52.7834 71.7711 53.0281C71.4172 53.0307 71.279 52.6926 71.3724 52.3926C71.5106 51.9755 71.7422 51.5992 71.8632 51.1729C72.4527 49.1597 72.1856 47.0965 71.454 45.161C71.133 46.3781 70.7501 47.765 69.9461 48.7571C69.9593 49.4544 70.029 50.2136 69.8738 50.8979C69.7303 51.2571 69.4606 51.1913 69.1817 51.0281C66.0409 49.115 62.7685 47.736 59.3659 46.3768C55.8633 44.9821 52.4857 43.2979 49.2383 41.3847C47.9975 40.6597 46.8225 39.8387 45.6712 38.9808C46.2672 40.111 47.0028 41.1531 47.8462 42.111C48.6988 43.0702 49.583 43.9716 50.6409 44.7058C50.9014 44.8873 51.2041 45.0518 51.4264 45.2781C51.4843 45.6202 51.2225 45.9729 50.8778 46.0242C50.2278 46.19 49.537 46.2189 48.8712 46.2979C47.9988 46.4005 47.1343 46.3387 46.2659 46.24C44.5409 46.1044 42.8304 45.6571 41.2173 45.0413C37.7344 43.7018 34.4962 41.3466 32.3739 38.2531C30.891 39.6874 29.666 41.7176 29.9041 43.8518C29.9094 44.1387 29.7778 44.5584 29.4068 44.465C28.0252 44.1281 26.8976 43.3479 25.8962 42.3624C25.2897 43.3545 24.8699 44.4268 24.5002 45.5242C23.7423 47.8794 23.2134 50.3229 23.0002 52.7886C22.9186 53.6189 23.0397 54.4228 22.8936 55.2492C22.6055 55.2373 22.3568 55.2715 22.1239 55.0663C20.9568 54.1439 20.2634 52.6663 19.9726 51.2334C19.5134 48.9321 19.8515 46.5215 20.6936 44.3466C21.4594 42.4018 22.6265 40.6281 24.2568 39.3005C23.7949 37.3097 24.0752 35.2361 25.0607 33.4466C26.2186 31.2966 28.2252 29.6887 30.5449 28.944C31.2844 26.7611 32.8989 25.0177 34.9475 23.99C36.8515 23.0361 39.0975 22.5519 41.2225 22.7177C42.7291 20.8256 44.7857 19.5282 47.0541 18.7361C49.4133 17.8545 52.0699 17.8124 54.5106 18.3571Z" fill="black"/>
<path d="M58.1436 20.5125C61.2936 22.1678 63.966 24.8783 65.966 27.7941C67.8989 30.5559 69.212 33.5796 70.2844 36.7612C70.4054 37.0533 70.5041 37.2375 70.8646 37.1546C71.1528 36.848 70.9857 36.5309 70.8936 36.1809C70.4225 34.798 69.8778 33.4388 69.2791 32.1072C68.0936 29.4875 66.5291 27.0375 64.6581 24.8546C65.4647 24.9388 66.2554 25.0349 67.0357 25.2691C69.2252 25.902 71.137 27.1836 72.7054 28.8204C74.9436 31.1691 76.4344 34.2217 77.0646 37.3954C77.7054 40.6651 77.4765 44.048 76.1133 47.1098C75.2962 48.944 74.0804 50.5217 72.4804 51.7388C72.7015 51.0506 72.8791 50.3546 72.9002 49.6283C73.0383 47.6638 72.6554 45.5941 71.6239 43.8993C71.687 43.0927 71.6844 42.2691 71.5975 41.4638C71.5686 41.2493 71.5278 40.9678 71.3528 40.8178C71.1581 40.6283 70.7739 40.7941 70.7962 41.0756C70.8002 41.3388 70.8462 41.6072 70.8765 41.8691C71.1054 43.8822 70.6712 45.8414 69.8554 47.6769C69.4712 44.8362 68.6646 42.0033 67.3265 39.4585C66.541 37.9678 65.5199 36.6625 64.4383 35.3783C64.2739 35.1928 64.1028 34.9941 63.8989 34.8533C63.7397 34.8164 63.5647 34.823 63.4015 34.8165C63.391 35.0822 63.3094 35.2849 63.5199 35.4954C64.2502 36.3125 64.9383 37.1625 65.5739 38.0546C67.0331 40.1204 67.9923 42.5796 68.587 45.027C69.0489 46.7125 69.3015 48.4348 69.2844 50.1848C66.537 48.5809 63.6449 47.2717 60.6936 46.0927C58.5581 45.2401 56.4384 44.3572 54.3857 43.3151C51.0055 41.5993 47.7331 39.8256 44.8581 37.3243C43.8805 36.4401 42.8963 35.3572 42.3884 34.127C42.2121 33.7243 42.3897 33.3901 42.3647 32.9836C42.1331 32.7428 41.7147 32.8572 41.6371 33.1809C41.4897 33.752 41.7081 34.4151 41.9766 34.923C42.6371 36.1783 43.5647 37.1691 44.6081 38.1112C44.6897 38.5217 44.7989 38.923 44.9871 39.298C45.8068 40.923 46.9292 42.298 48.2134 43.5756C48.8581 44.2454 49.5858 44.8072 50.3292 45.3612C48.5068 45.6691 46.6042 45.6164 44.7897 45.273C41.1068 44.5756 37.6187 42.7638 34.9424 40.1362C33.0937 38.3006 31.6569 36.0743 31.0937 33.5046C30.9266 32.5507 30.7805 31.6244 30.9582 30.6586C31.1819 28.5704 32.3397 26.6757 34.0318 25.4481C36.0134 23.9994 38.3318 23.4849 40.7502 23.3954C40.2884 24.2981 39.7752 25.2415 39.7305 26.2717C39.945 26.452 40.2174 26.702 40.3831 26.3138C40.7226 24.3915 41.8621 22.8257 43.3595 21.6191C45.1173 20.1968 47.3108 19.2625 49.5331 18.877C52.5305 18.4454 55.4765 19.1389 58.1436 20.5125ZM30.3187 29.8191C29.7647 32.5809 30.5332 35.248 31.949 37.6178C30.3042 39.148 29.0174 41.2914 29.1095 43.6033C28.449 43.3309 27.8161 43.0085 27.2542 42.5612C26.0437 41.6191 25.1911 40.2204 24.9134 38.7112C24.6319 37.4335 24.8174 36.0467 25.2621 34.8283C26.1213 32.5046 28.024 30.7059 30.3187 29.8191Z" fill="#85C2C6"/>
<path d="M76.4466 33.0376C78.2163 34.1771 79.6321 35.8192 80.8005 37.5534C82.8123 40.5981 84.2347 44.0665 84.8992 47.656C85.2702 49.8481 85.4215 52.127 84.6518 54.256C83.2386 53.3547 81.4729 52.8731 79.8005 53.0704C79.6768 52.7586 79.611 52.231 79.2808 52.0731C78.9847 52.0349 78.8071 52.2362 78.8531 52.5178C78.9966 53.1362 79.1966 53.7257 79.2334 54.3652C79.3768 56.2954 78.8018 58.3152 77.9544 60.0362C76.7295 62.4796 74.7531 64.7401 72.2847 65.9743C73.4295 63.8059 74.061 61.3099 74.4018 58.8928C74.5729 57.7888 74.6084 56.6638 74.6742 55.5494C74.6242 54.0981 74.5584 52.7139 74.1321 51.3165C76.8492 48.6547 78.1742 44.6955 78.14 40.9442C78.2058 38.2363 77.561 35.4981 76.4466 33.0376ZM24.4981 40.0731C24.7521 40.6494 25.035 41.1994 25.3929 41.7178C24.8902 42.4863 24.5126 43.3152 24.1797 44.1678C23.4192 46.1849 22.8955 48.2678 22.5376 50.3915C22.3389 51.631 22.1876 52.8731 22.1955 54.1296C21.581 53.4336 21.1705 52.6902 20.8995 51.802C20.3613 50.0599 20.4442 48.0955 20.8613 46.3362C21.4324 43.977 22.6653 41.6902 24.4981 40.0731Z" fill="#85C2C6"/>
<path d="M91.2155 55.3032C93.5076 55.5611 95.5813 56.6979 97.3484 58.1321C97.6537 58.3953 98.0208 58.6387 98.2563 58.9677C98.3023 59.3453 98.1142 59.5321 97.7444 59.4348C96.4352 59.0466 95.0787 59.0466 93.7353 59.2321C92.426 59.4295 91.1497 59.7505 89.9642 60.3532C91.3037 60.6598 92.58 61.2663 93.7287 62.0124C95.3129 63.0466 96.63 64.4505 97.4747 66.1505C97.6168 66.4439 97.7523 66.7282 97.9944 66.9545C99.9471 68.8045 101.027 71.5531 100.922 74.2334C100.876 76.4847 99.98 78.7136 98.3142 80.2544C98.1287 80.4123 97.951 80.5518 97.6984 80.4294C97.5576 80.3544 97.2405 80.2373 97.301 80.0308C97.4484 78.0781 97.1813 76.14 96.226 74.4097C96.1866 75.3755 96.1129 76.3242 95.8497 77.2584C94.6392 81.8321 90.7787 85.6334 86.1366 86.6386C84.6484 86.9373 83.0248 86.9505 81.5603 86.5242C81.2326 86.4663 81.0208 85.9847 81.3221 85.7807C81.8182 85.5636 82.3366 85.411 82.8169 85.1505C83.0984 84.9913 83.4984 84.8413 83.6366 84.5321C83.9313 83.9492 84.1234 83.3097 84.2761 82.6781C84.5011 81.4597 84.6721 80.3255 84.2261 79.1307C83.7155 78.8926 83.1826 78.7518 82.7182 78.415C80.6011 76.9794 79.3616 74.3176 79.5037 71.7768C78.0327 73.3202 75.9879 74.5216 73.8471 74.7597C73.6142 74.7887 73.3037 74.7545 73.2524 74.4755C73.1985 74.2821 73.2537 74.1558 73.3735 74.0071C74.6077 72.5426 75.6182 70.9597 76.5892 69.3137C76.6958 69.0847 77.1011 69.1953 77.2958 69.2216C78.5721 69.5216 79.9024 69.5255 81.1734 69.19C83.4419 68.6071 85.3537 66.9913 86.4169 64.919C87.6905 62.465 87.7405 59.3663 86.2221 57.0071C86.0287 56.715 85.98 56.565 86.0116 56.2098C86.2787 56.0953 86.5419 55.9729 86.8024 55.8466C88.1168 55.1756 89.78 55.1256 91.2155 55.3032Z" fill="black"/>
<path d="M91.2997 56.058C93.2484 56.3593 94.9458 57.2633 96.5155 58.4211C95.9405 58.3501 95.3708 58.3067 94.7931 58.3698C92.8747 58.5119 90.7471 58.9317 89.1155 60.0001C88.8589 60.1764 88.5668 60.3948 88.6813 60.7475C88.73 61.0198 89.1971 60.9777 89.3971 61.0185C90.3563 61.0817 91.1708 61.4527 92.0168 61.8698C93.7181 62.7461 95.351 64.0527 96.3444 65.7093C95.3681 65.2067 94.1918 64.7527 93.0813 64.7843C92.7471 64.8185 92.6379 65.279 92.9589 65.4356C93.3734 65.5843 93.8379 65.5764 94.2655 65.6909C96.1208 66.1593 97.68 67.4132 98.7129 69.0001C99.701 70.504 100.204 72.3053 100.176 74.1014C100.154 76.0829 99.4168 78.0329 98.0457 79.4737C98.005 78.5711 98.0379 77.6079 97.8379 76.729C97.5944 75.5619 97.2129 74.4145 96.4997 73.4461C96.3352 73.2119 96.1115 73.058 96.0708 72.7816C95.9115 72.0593 95.7563 71.3724 95.4234 70.7014C95.3418 70.5501 95.1866 70.4303 95.0668 70.3119C94.9392 70.3974 94.8181 70.4909 94.7023 70.5909C94.6076 70.7672 94.751 71.0093 94.8076 71.1843C95.4247 72.6277 95.5879 74.233 95.3681 75.7829C94.8629 79.4606 92.4563 82.7764 89.2668 84.6198C87.2629 85.7737 84.9379 86.3303 82.6313 86.0224C84.6103 85.1342 86.3418 83.7948 87.505 81.9448C88.1747 80.9329 88.4313 79.7592 88.5103 78.5645C88.5484 78.1119 87.9431 77.9632 87.801 78.4119C87.655 79.2264 87.6195 80.0224 87.2642 80.7908C86.68 82.054 85.6681 83.1645 84.601 84.0435C85.0089 82.9724 85.2142 81.8237 85.2379 80.6803C85.2339 79.9264 85.1182 79.075 84.7089 78.425C83.9537 78.2487 83.2458 77.9369 82.659 77.4198C81.1682 76.1474 80.2918 74.2119 80.2432 72.2593C80.2734 71.4409 80.4563 70.7514 80.8668 70.0448C82.9879 69.6198 84.8866 68.3988 86.1932 66.683C87.3195 65.2251 87.9826 63.4369 88.1168 61.6014C88.2234 59.8304 87.7997 58.0909 86.8695 56.579C88.2708 55.8422 89.7681 55.8698 91.2997 56.058Z" fill="#85C2C6"/>
<path d="M21.1091 57.3716C21.6972 57.369 22.3433 57.4611 22.8669 57.7453C23.138 57.8703 23.0867 58.1993 23.1301 58.444C23.2538 60.0703 23.6156 61.6493 24.088 63.2071C24.8788 65.7545 25.9735 68.2058 27.359 70.4848C28.0432 71.5795 28.7682 72.64 29.6459 73.59C29.9103 73.8926 30.1367 74.194 29.9117 74.6032C29.1643 75.9953 27.959 77.1795 26.6919 78.1045C25.7288 78.7939 24.6788 79.3716 23.4946 79.5545C23.2183 80.515 23.0183 81.5347 23.2196 82.5295C23.1854 82.6374 23.1498 82.7453 23.1143 82.8545C22.8604 82.8966 22.6433 82.9374 22.3998 82.8229C20.8762 82.1979 19.3709 81.336 18.1762 80.1926C17.0038 79.0795 16.163 77.6637 15.8577 76.0676C15.2433 75.7926 14.9064 75.3032 14.4814 74.8111C13.5822 73.7178 13.0663 72.3598 13.013 70.9453C12.9104 69.5742 13.4314 68.2071 13.9788 66.9742C14.6617 65.5427 15.5367 64.0756 16.6999 62.9808C17.1367 62.5558 17.6262 62.2124 18.113 61.8479C17.1854 62.1032 16.3077 62.4071 15.5525 63.0256C15.3854 63.1295 15.1091 63.4164 14.9143 63.2506C14.5578 63.0979 14.6814 62.6506 14.7525 62.3598C15.2209 60.8756 16.242 59.5558 17.5051 58.6585C18.5722 57.9045 19.788 57.3953 21.1091 57.3716Z" fill="black"/>
<path d="M20.0841 58.2674C20.8722 58.0464 21.5906 58.0806 22.3643 58.3266C22.4012 59.1122 22.5275 59.8832 22.6656 60.6556C23.1827 63.2608 24.0656 65.7556 25.2209 68.1437C26.2814 70.3384 27.6077 72.4726 29.2301 74.299C28.2683 75.9147 26.8104 77.2463 25.1775 78.1661C24.5459 78.5161 23.9262 78.7318 23.2091 78.8266C22.9288 78.8489 22.8959 78.995 22.8091 79.2253C22.4959 80.12 22.3801 81.0489 22.3827 81.9937C20.392 81.12 18.413 79.8239 17.3222 77.8858C16.4722 76.4108 16.3196 74.6569 16.7288 73.0174C17.1749 71.1937 18.1788 69.5713 19.3512 68.1253C19.5564 67.8963 19.638 67.4806 19.2696 67.37C19.0051 67.299 18.8406 67.5556 18.6841 67.7213C16.9907 69.8463 15.6999 72.2937 15.7393 75.0805C14.9472 74.2819 14.2999 73.3805 13.988 72.2871C13.7288 71.2937 13.6617 70.2674 13.942 69.27C14.4051 67.6029 15.2288 66.0266 16.2341 64.624C17.2117 63.2569 18.5538 62.3174 20.0393 61.5714C20.3617 61.3595 20.1841 60.9095 19.8038 60.9293C18.3696 60.9069 16.9012 61.3569 15.6617 62.07C16.4643 60.2437 18.142 58.7608 20.0841 58.2674ZM77.1102 69.9621C78.0142 70.1582 78.9273 70.1753 79.8484 70.1858C78.505 72.0463 76.5629 73.4082 74.3221 73.9437C75.3668 72.6884 76.2168 71.3226 77.1102 69.9621Z" fill="#85C2C6"/>
</svg>
