<svg width="26" height="35" viewBox="0 0 26 35" fill="none" xmlns="http://www.w3.org/2000/svg">
<path d="M0 0L5.99906 13.2737C2.40469 15.3084 0 18.9292 0 23.0625C0 29.4201 5.67703 34.5938 12.6562 34.5938C19.6355 34.5938 25.3125 29.4201 25.3125 23.0625C25.3125 18.9305 22.9078 15.3097 19.3134 13.2737L25.3125 0H22.2722L16.7709 12.1693C15.8339 11.872 14.8615 11.6772 13.8741 11.5889L19.1067 0H16.0664L10.7902 11.6722C10.0249 11.7743 9.27171 11.9407 8.54016 12.1693L3.04031 0H0ZM6.20437 0L9.77766 7.91044L11.2992 4.54459L9.24609 0H6.20437ZM12.6562 14.0938C18.083 14.0938 22.5 18.1169 22.5 23.0625C22.5 28.0081 18.083 32.0312 12.6562 32.0312C7.22953 32.0312 2.8125 28.0081 2.8125 23.0625C2.8125 18.1169 7.22953 14.0938 12.6562 14.0938ZM12.6562 18.1451L11.0138 21.5019L7.03125 21.8991L10.0125 24.3386L9.17297 27.9389L12.6562 26.1093L16.1395 27.9415L15.3014 24.3412L18.2812 21.8978L14.2987 21.5007L12.6562 18.1438V18.1451Z" fill="white"/>
</svg>
