<svg width="9" height="14" viewBox="0 0 9 14" fill="none" xmlns="http://www.w3.org/2000/svg">
<path d="M1.90255 12.8578L7.83743 7.36184C7.94166 7.26531 8 7.13584 8 7.00103C8 6.86623 7.94166 6.73676 7.83743 6.64022L1.90255 1.14225C1.85399 1.09723 1.79594 1.06145 1.73181 1.03702C1.66769 1.01259 1.59879 0.999999 1.52918 0.999999C1.45958 0.999999 1.39068 1.01259 1.32656 1.03702C1.26243 1.06145 1.20438 1.09723 1.15582 1.14225C1.05592 1.23457 1 1.3585 1 1.48755C1 1.6166 1.05592 1.74053 1.15582 1.83285L6.7368 7.00103L1.15582 12.1682C1.05627 12.2605 1.00056 12.3842 1.00056 12.513C1.00056 12.6418 1.05627 12.7655 1.15582 12.8578C1.20438 12.9028 1.26243 12.9386 1.32656 12.963C1.39068 12.9874 1.45958 13 1.52918 13C1.59879 13 1.66769 12.9874 1.73181 12.963C1.79594 12.9386 1.85399 12.9028 1.90255 12.8578Z" fill="#7E7E7E" stroke="#979797" stroke-width="1.5"/>
</svg>
