<svg width="28" height="35" viewBox="0 0 28 35" fill="none" xmlns="http://www.w3.org/2000/svg">
<path d="M11.6667 14.2188C11.6667 13.9287 11.7896 13.6505 12.0084 13.4454C12.2272 13.2402 12.5239 13.125 12.8333 13.125H21C21.3094 13.125 21.6062 13.2402 21.825 13.4454C22.0438 13.6505 22.1667 13.9287 22.1667 14.2188C22.1667 14.5088 22.0438 14.787 21.825 14.9921C21.6062 15.1973 21.3094 15.3125 21 15.3125H12.8333C12.5239 15.3125 12.2272 15.1973 12.0084 14.9921C11.7896 14.787 11.6667 14.5088 11.6667 14.2188ZM11.6667 20.7812C11.6667 20.4912 11.7896 20.213 12.0084 20.0079C12.2272 19.8027 12.5239 19.6875 12.8333 19.6875H21C21.3094 19.6875 21.6062 19.8027 21.825 20.0079C22.0438 20.213 22.1667 20.4912 22.1667 20.7812C22.1667 21.0713 22.0438 21.3495 21.825 21.5546C21.6062 21.7598 21.3094 21.875 21 21.875H12.8333C12.5239 21.875 12.2272 21.7598 12.0084 21.5546C11.7896 21.3495 11.6667 21.0713 11.6667 20.7812ZM11.6667 27.3438C11.6667 27.0537 11.7896 26.7755 12.0084 26.5704C12.2272 26.3652 12.5239 26.25 12.8333 26.25H21C21.3094 26.25 21.6062 26.3652 21.825 26.5704C22.0438 26.7755 22.1667 27.0537 22.1667 27.3438C22.1667 27.6338 22.0438 27.912 21.825 28.1171C21.6062 28.3223 21.3094 28.4375 21 28.4375H12.8333C12.5239 28.4375 12.2272 28.3223 12.0084 28.1171C11.7896 27.912 11.6667 27.6338 11.6667 27.3438ZM9.33333 14.2188C9.33333 14.6539 9.14896 15.0712 8.82077 15.3788C8.49258 15.6865 8.04746 15.8594 7.58333 15.8594C7.1192 15.8594 6.67408 15.6865 6.3459 15.3788C6.01771 15.0712 5.83333 14.6539 5.83333 14.2188C5.83333 13.7836 6.01771 13.3663 6.3459 13.0587C6.67408 12.751 7.1192 12.5781 7.58333 12.5781C8.04746 12.5781 8.49258 12.751 8.82077 13.0587C9.14896 13.3663 9.33333 13.7836 9.33333 14.2188ZM9.33333 20.7812C9.33333 21.2164 9.14896 21.6337 8.82077 21.9413C8.49258 22.249 8.04746 22.4219 7.58333 22.4219C7.1192 22.4219 6.67408 22.249 6.3459 21.9413C6.01771 21.6337 5.83333 21.2164 5.83333 20.7812C5.83333 20.3461 6.01771 19.9288 6.3459 19.6212C6.67408 19.3135 7.1192 19.1406 7.58333 19.1406C8.04746 19.1406 8.49258 19.3135 8.82077 19.6212C9.14896 19.9288 9.33333 20.3461 9.33333 20.7812ZM7.58333 28.9844C8.04746 28.9844 8.49258 28.8115 8.82077 28.5038C9.14896 28.1962 9.33333 27.7789 9.33333 27.3438C9.33333 26.9086 9.14896 26.4913 8.82077 26.1837C8.49258 25.876 8.04746 25.7031 7.58333 25.7031C7.1192 25.7031 6.67408 25.876 6.3459 26.1837C6.01771 26.4913 5.83333 26.9086 5.83333 27.3438C5.83333 27.7789 6.01771 28.1962 6.3459 28.5038C6.67408 28.8115 7.1192 28.9844 7.58333 28.9844ZM7.19833 2.1875C7.4397 1.54749 7.88686 0.993406 8.47819 0.601624C9.06952 0.209842 9.77591 -0.000355425 10.5 4.51143e-07H17.5C18.2241 -0.000355425 18.9305 0.209842 19.5218 0.601624C20.1131 0.993406 20.5603 1.54749 20.8017 2.1875H24.5C25.4283 2.1875 26.3185 2.5332 26.9749 3.14856C27.6313 3.76391 28 4.59851 28 5.46875V31.7188C28 32.589 27.6313 33.4236 26.9749 34.0389C26.3185 34.6543 25.4283 35 24.5 35H3.5C2.57174 35 1.6815 34.6543 1.02513 34.0389C0.368748 33.4236 0 32.589 0 31.7188V5.46875C0 4.59851 0.368748 3.76391 1.02513 3.14856C1.6815 2.5332 2.57174 2.1875 3.5 2.1875H7.19833ZM10.5 2.1875C10.1906 2.1875 9.89383 2.30273 9.67504 2.50785C9.45625 2.71297 9.33333 2.99117 9.33333 3.28125C9.33333 3.57133 9.45625 3.84953 9.67504 4.05465C9.89383 4.25977 10.1906 4.375 10.5 4.375H17.5C17.8094 4.375 18.1062 4.25977 18.325 4.05465C18.5438 3.84953 18.6667 3.57133 18.6667 3.28125C18.6667 2.99117 18.5438 2.71297 18.325 2.50785C18.1062 2.30273 17.8094 2.1875 17.5 2.1875H10.5ZM7.19833 4.375H3.5C3.19058 4.375 2.89383 4.49023 2.67504 4.69535C2.45625 4.90047 2.33333 5.17867 2.33333 5.46875V31.7188C2.33333 32.0088 2.45625 32.287 2.67504 32.4921C2.89383 32.6973 3.19058 32.8125 3.5 32.8125H24.5C24.8094 32.8125 25.1062 32.6973 25.325 32.4921C25.5438 32.287 25.6667 32.0088 25.6667 31.7188V5.46875C25.6667 5.17867 25.5438 4.90047 25.325 4.69535C25.1062 4.49023 24.8094 4.375 24.5 4.375H20.8017C20.5603 5.01502 20.1131 5.56909 19.5218 5.96088C18.9305 6.35266 18.2241 6.56286 17.5 6.5625H10.5C9.77591 6.56286 9.06952 6.35266 8.47819 5.96088C7.88686 5.56909 7.4397 5.01502 7.19833 4.375Z" fill="white"/>
</svg>
