<svg width="21" height="24" viewBox="0 0 21 24" fill="none" xmlns="http://www.w3.org/2000/svg">
<path d="M6.25 8.59375C6.4572 8.59375 6.65591 8.67606 6.80243 8.82257C6.94894 8.96909 7.03125 9.1678 7.03125 9.375V18.75C7.03125 18.9572 6.94894 19.1559 6.80243 19.3024C6.65591 19.4489 6.4572 19.5312 6.25 19.5312C6.0428 19.5312 5.84409 19.4489 5.69757 19.3024C5.55106 19.1559 5.46875 18.9572 5.46875 18.75V9.375C5.46875 9.1678 5.55106 8.96909 5.69757 8.82257C5.84409 8.67606 6.0428 8.59375 6.25 8.59375ZM10.1562 8.59375C10.3635 8.59375 10.5622 8.67606 10.7087 8.82257C10.8552 8.96909 10.9375 9.1678 10.9375 9.375V18.75C10.9375 18.9572 10.8552 19.1559 10.7087 19.3024C10.5622 19.4489 10.3635 19.5312 10.1562 19.5312C9.94905 19.5312 9.75034 19.4489 9.60382 19.3024C9.45731 19.1559 9.375 18.9572 9.375 18.75V9.375C9.375 9.1678 9.45731 8.96909 9.60382 8.82257C9.75034 8.67606 9.94905 8.59375 10.1562 8.59375ZM14.8438 9.375C14.8438 9.1678 14.7614 8.96909 14.6149 8.82257C14.4684 8.67606 14.2697 8.59375 14.0625 8.59375C13.8553 8.59375 13.6566 8.67606 13.5101 8.82257C13.3636 8.96909 13.2812 9.1678 13.2812 9.375V18.75C13.2812 18.9572 13.3636 19.1559 13.5101 19.3024C13.6566 19.4489 13.8553 19.5312 14.0625 19.5312C14.2697 19.5312 14.4684 19.4489 14.6149 19.3024C14.7614 19.1559 14.8438 18.9572 14.8438 18.75V9.375Z" fill="#58A8E2"/>
<path fill-rule="evenodd" clip-rule="evenodd" d="M20.3125 4.6875C20.3125 5.1019 20.1479 5.49933 19.8549 5.79235C19.5618 6.08538 19.1644 6.25 18.75 6.25H17.9688V20.3125C17.9688 21.1413 17.6395 21.9362 17.0535 22.5222C16.4674 23.1083 15.6726 23.4375 14.8438 23.4375H5.46875C4.63995 23.4375 3.84509 23.1083 3.25904 22.5222C2.67299 21.9362 2.34375 21.1413 2.34375 20.3125V6.25H1.5625C1.1481 6.25 0.750671 6.08538 0.457646 5.79235C0.16462 5.49933 0 5.1019 0 4.6875V3.125C0 2.7106 0.16462 2.31317 0.457646 2.02015C0.750671 1.72712 1.1481 1.5625 1.5625 1.5625H7.03125C7.03125 1.1481 7.19587 0.750671 7.4889 0.457646C7.78192 0.16462 8.17935 0 8.59375 0L11.7188 0C12.1332 0 12.5306 0.16462 12.8236 0.457646C13.1166 0.750671 13.2812 1.1481 13.2812 1.5625H18.75C19.1644 1.5625 19.5618 1.72712 19.8549 2.02015C20.1479 2.31317 20.3125 2.7106 20.3125 3.125V4.6875ZM4.09062 6.25L3.90625 6.34219V20.3125C3.90625 20.7269 4.07087 21.1243 4.3639 21.4174C4.65692 21.7104 5.05435 21.875 5.46875 21.875H14.8438C15.2582 21.875 15.6556 21.7104 15.9486 21.4174C16.2416 21.1243 16.4062 20.7269 16.4062 20.3125V6.34219L16.2219 6.25H4.09062ZM1.5625 4.6875V3.125H18.75V4.6875H1.5625Z" fill="#58A8E2"/>
</svg>
