<svg width="24" height="24" viewBox="0 0 24 24" fill="none" xmlns="http://www.w3.org/2000/svg">
<path fill-rule="evenodd" clip-rule="evenodd" d="M14.543 2.5979C14.3129 2.11874 13.9522 1.71433 13.5022 1.43128C13.0523 1.14823 12.5316 0.998047 12 0.998047C11.4685 0.998047 10.9478 1.14823 10.4978 1.43128C10.0479 1.71433 9.68714 2.11874 9.45704 2.5979L1.34104 18.5629C0.370043 20.4689 1.59704 22.9999 3.88304 22.9999H20.116C22.403 22.9999 23.628 20.4699 22.659 18.5629L14.543 2.5979ZM12 7.9999C12.2653 7.9999 12.5196 8.10526 12.7071 8.2928C12.8947 8.48033 13 8.73469 13 8.9999V13.9999C13 14.2651 12.8947 14.5195 12.7071 14.707C12.5196 14.8945 12.2653 14.9999 12 14.9999C11.7348 14.9999 11.4805 14.8945 11.2929 14.707C11.1054 14.5195 11 14.2651 11 13.9999V8.9999C11 8.73469 11.1054 8.48033 11.2929 8.2928C11.4805 8.10526 11.7348 7.9999 12 7.9999ZM12 16.4999C12.2653 16.4999 12.5196 16.6053 12.7071 16.7928C12.8947 16.9803 13 17.2347 13 17.4999V17.9999C13 18.2651 12.8947 18.5195 12.7071 18.707C12.5196 18.8945 12.2653 18.9999 12 18.9999C11.7348 18.9999 11.4805 18.8945 11.2929 18.707C11.1054 18.5195 11 18.2651 11 17.9999V17.4999C11 17.2347 11.1054 16.9803 11.2929 16.7928C11.4805 16.6053 11.7348 16.4999 12 16.4999Z" fill="#E37209"/>
</svg>
